  0
SECTION
  2
HEADER
  9
$ACADVER
  1
AC1015
  9
$ACADMAINTVER
 70
     6
  9
$DWGCODEPAGE
  3
ANSI_1256
  9
$INSBASE
 10
0.0
 20
0.0
 30
0.0
  9
$EXTMIN
 10
1.000000000000000E+20
 20
1.000000000000000E+20
 30
1.000000000000000E+20
  9
$EXTMAX
 10
-1.000000000000000E+20
 20
-1.000000000000000E+20
 30
-1.000000000000000E+20
  9
$LIMMIN
 10
0.0
 20
0.0
  9
$LIMMAX
 10
12.0
 20
9.0
  9
$ORTHOMODE
 70
     0
  9
$REGENMODE
 70
     1
  9
$FILLMODE
 70
     1
  9
$QTEXTMODE
 70
     0
  9
$MIRRTEXT
 70
     1
  9
$LTSCALE
 40
1.0
  9
$ATTMODE
 70
     1
  9
$TEXTSIZE
 40
0.2
  9
$TRACEWID
 40
0.05
  9
$TEXTSTYLE
  7
Standard
  9
$CLAYER
  8
0
  9
$CELTYPE
  6
ByLayer
  9
$CECOLOR
 62
   256
  9
$CELTSCALE
 40
1.0
  9
$DISPSILH
 70
     0
  9
$DIMSCALE
 40
1.0
  9
$DIMASZ
 40
0.18
  9
$DIMEXO
 40
0.0625
  9
$DIMDLI
 40
0.38
  9
$DIMRND
 40
0.0
  9
$DIMDLE
 40
0.0
  9
$DIMEXE
 40
0.18
  9
$DIMTP
 40
0.0
  9
$DIMTM
 40
0.0
  9
$DIMTXT
 40
0.18
  9
$DIMCEN
 40
0.09
  9
$DIMTSZ
 40
0.0
  9
$DIMTOL
 70
     0
  9
$DIMLIM
 70
     0
  9
$DIMTIH
 70
     1
  9
$DIMTOH
 70
     1
  9
$DIMSE1
 70
     0
  9
$DIMSE2
 70
     0
  9
$DIMTAD
 70
     0
  9
$DIMZIN
 70
     0
  9
$DIMBLK
  1

  9
$DIMASO
 70
     1
  9
$DIMSHO
 70
     1
  9
$DIMPOST
  1

  9
$DIMAPOST
  1

  9
$DIMALT
 70
     0
  9
$DIMALTD
 70
     2
  9
$DIMALTF
 40
25.4
  9
$DIMLFAC
 40
1.0
  9
$DIMTOFL
 70
     0
  9
$DIMTVP
 40
0.0
  9
$DIMTIX
 70
     0
  9
$DIMSOXD
 70
     0
  9
$DIMSAH
 70
     0
  9
$DIMBLK1
  1

  9
$DIMBLK2
  1

  9
$DIMSTYLE
  2
Standard
  9
$DIMCLRD
 70
     0
  9
$DIMCLRE
 70
     0
  9
$DIMCLRT
 70
     0
  9
$DIMTFAC
 40
1.0
  9
$DIMGAP
 40
0.09
  9
$DIMJUST
 70
     0
  9
$DIMSD1
 70
     0
  9
$DIMSD2
 70
     0
  9
$DIMTOLJ
 70
     1
  9
$DIMTZIN
 70
     0
  9
$DIMALTZ
 70
     0
  9
$DIMALTTZ
 70
     0
  9
$DIMUPT
 70
     0
  9
$DIMDEC
 70
     4
  9
$DIMTDEC
 70
     4
  9
$DIMALTU
 70
     2
  9
$DIMALTTD
 70
     2
  9
$DIMTXSTY
  7
Standard
  9
$DIMAUNIT
 70
     0
  9
$DIMADEC
 70
     0
  9
$DIMALTRND
 40
0.0
  9
$DIMAZIN
 70
     0
  9
$DIMDSEP
 70
    46
  9
$DIMATFIT
 70
     3
  9
$DIMFRAC
 70
     0
  9
$DIMLDRBLK
  1

  9
$DIMLUNIT
 70
     2
  9
$DIMLWD
 70
    -2
  9
$DIMLWE
 70
    -2
  9
$DIMTMOVE
 70
     0
  9
$LUNITS
 70
     2
  9
$LUPREC
 70
     4
  9
$SKETCHINC
 40
0.1
  9
$FILLETRAD
 40
0.5
  9
$AUNITS
 70
     0
  9
$AUPREC
 70
     0
  9
$MENU
  1
.
  9
$ELEVATION
 40
0.0
  9
$PELEVATION
 40
0.0
  9
$THICKNESS
 40
0.0
  9
$LIMCHECK
 70
     0
  9
$CHAMFERA
 40
0.5
  9
$CHAMFERB
 40
0.5
  9
$CHAMFERC
 40
1.0
  9
$CHAMFERD
 40
0.0
  9
$SKPOLY
 70
     0
  9
$TDCREATE
 40
2458922.62387456
  9
$TDUCREATE
 40
2458922.540541227
  9
$TDUPDATE
 40
2458922.623874572
  9
$TDUUPDATE
 40
2458922.540541239
  9
$TDINDWG
 40
0.0000000116
  9
$TDUSRTIMER
 40
0.0000000116
  9
$USRTIMER
 70
     1
  9
$ANGBASE
 50
0.0
  9
$ANGDIR
 70
     0
  9
$PDMODE
 70
     0
  9
$PDSIZE
 40
0.0
  9
$PLINEWID
 40
0.0
  9
$SPLFRAME
 70
     0
  9
$SPLINETYPE
 70
     6
  9
$SPLINESEGS
 70
     8
  9
$HANDSEED
  5
47
  9
$SURFTAB1
 70
     6
  9
$SURFTAB2
 70
     6
  9
$SURFTYPE
 70
     6
  9
$SURFU
 70
     6
  9
$SURFV
 70
     6
  9
$UCSBASE
  2

  9
$UCSNAME
  2

  9
$UCSORG
 10
0.0
 20
0.0
 30
0.0
  9
$UCSXDIR
 10
1.0
 20
0.0
 30
0.0
  9
$UCSYDIR
 10
0.0
 20
1.0
 30
0.0
  9
$UCSORTHOREF
  2

  9
$UCSORTHOVIEW
 70
     0
  9
$UCSORGTOP
 10
0.0
 20
0.0
 30
0.0
  9
$UCSORGBOTTOM
 10
0.0
 20
0.0
 30
0.0
  9
$UCSORGLEFT
 10
0.0
 20
0.0
 30
0.0
  9
$UCSORGRIGHT
 10
0.0
 20
0.0
 30
0.0
  9
$UCSORGFRONT
 10
0.0
 20
0.0
 30
0.0
  9
$UCSORGBACK
 10
0.0
 20
0.0
 30
0.0
  9
$PUCSBASE
  2

  9
$PUCSNAME
  2

  9
$PUCSORG
 10
0.0
 20
0.0
 30
0.0
  9
$PUCSXDIR
 10
1.0
 20
0.0
 30
0.0
  9
$PUCSYDIR
 10
0.0
 20
1.0
 30
0.0
  9
$PUCSORTHOREF
  2

  9
$PUCSORTHOVIEW
 70
     0
  9
$PUCSORGTOP
 10
0.0
 20
0.0
 30
0.0
  9
$PUCSORGBOTTOM
 10
0.0
 20
0.0
 30
0.0
  9
$PUCSORGLEFT
 10
0.0
 20
0.0
 30
0.0
  9
$PUCSORGRIGHT
 10
0.0
 20
0.0
 30
0.0
  9
$PUCSORGFRONT
 10
0.0
 20
0.0
 30
0.0
  9
$PUCSORGBACK
 10
0.0
 20
0.0
 30
0.0
  9
$USERI1
 70
     0
  9
$USERI2
 70
     0
  9
$USERI3
 70
     0
  9
$USERI4
 70
     0
  9
$USERI5
 70
     0
  9
$USERR1
 40
0.0
  9
$USERR2
 40
0.0
  9
$USERR3
 40
0.0
  9
$USERR4
 40
0.0
  9
$USERR5
 40
0.0
  9
$WORLDVIEW
 70
     1
  9
$SHADEDGE
 70
     3
  9
$SHADEDIF
 70
    70
  9
$TILEMODE
 70
     1
  9
$MAXACTVP
 70
    64
  9
$PINSBASE
 10
0.0
 20
0.0
 30
0.0
  9
$PLIMCHECK
 70
     0
  9
$PEXTMIN
 10
1.000000000000000E+20
 20
1.000000000000000E+20
 30
1.000000000000000E+20
  9
$PEXTMAX
 10
-1.000000000000000E+20
 20
-1.000000000000000E+20
 30
-1.000000000000000E+20
  9
$PLIMMIN
 10
0.0
 20
0.0
  9
$PLIMMAX
 10
12.0
 20
9.0
  9
$UNITMODE
 70
     0
  9
$VISRETAIN
 70
     1
  9
$PLINEGEN
 70
     0
  9
$PSLTSCALE
 70
     1
  9
$TREEDEPTH
 70
  3020
  9
$CMLSTYLE
  2
Standard
  9
$CMLJUST
 70
     0
  9
$CMLSCALE
 40
1.0
  9
$PROXYGRAPHICS
 70
     1
  9
$MEASUREMENT
 70
     0
  9
$CELWEIGHT
370
    -1
  9
$ENDCAPS
280
     0
  9
$JOINSTYLE
280
     0
  9
$LWDISPLAY
290
     1
  9
$INSUNITS
 70
     1
  9
$HYPERLINKBASE
  1

  9
$STYLESHEET
  1

  9
$XEDIT
290
     1
  9
$CEPSNTYPE
380
     0
  9
$PSTYLEMODE
290
     1
  9
$FINGERPRINTGUID
  2
{CC7B0BC6-E3E2-40EE-96B5-83DFDA0AF64E}
  9
$VERSIONGUID
  2
{FAEB1C32-E019-11D5-929B-00C0DF256EC4}
  9
$EXTNAMES
290
     1
  9
$PSVPSCALE
 40
0.0
  9
$OLESTARTUP
290
     0
  0
ENDSEC
  0
SECTION
  2
CLASSES
  0
CLASS
  1
ACDBDICTIONARYWDFLT
  2
AcDbDictionaryWithDefault
  3
ObjectDBX Classes
 90
        0
280
     0
281
     0
  0
CLASS
  1
VISUALSTYLE
  2
AcDbVisualStyle
  3
ObjectDBX Classes
 90
     4095
280
     0
281
     0
  0
CLASS
  1
ACDBPLACEHOLDER
  2
AcDbPlaceHolder
  3
ObjectDBX Classes
 90
        0
280
     0
281
     0
  0
CLASS
  1
LAYOUT
  2
AcDbLayout
  3
ObjectDBX Classes
 90
        0
280
     0
281
     0
  0
ENDSEC
  0
SECTION
  2
TABLES
  0
TABLE
  2
VPORT
  5
8
330
0
100
AcDbSymbolTable
 70
     1
  0
VPORT
  5
29
330
8
100
AcDbSymbolTableRecord
100
AcDbViewportTableRecord
  2
*Active
 70
     0
 10
0.0
 20
0.0
 11
1.0
 21
1.0
 12
0.0
 22
0.0
 13
0.0
 23
0.0
 14
0.5
 24
0.5
 15
0.5
 25
0.5
 16
0.0
 26
0.0
 36
1.0
 17
4.999918754175368
 27
4.999918754175368
 37
0.0
 40
9.999837508350735
 41
1.0
 42
50.0
 43
0.0
 44
0.0
 50
0.0
 51
0.0
 71
     0
 72
   100
 73
     1
 74
     3
 75
     0
 76
     0
 77
     0
 78
     0
281
     0
 65
     1
110
0.0
120
0.0
130
0.0
111
1.0
121
0.0
131
0.0
112
0.0
122
1.0
132
0.0
 79
     0
146
0.0
  0
ENDTAB
  0
TABLE
  2
LTYPE
  5
5
330
0
100
AcDbSymbolTable
 70
     1
  0
LTYPE
  5
14
330
5
100
AcDbSymbolTableRecord
100
AcDbLinetypeTableRecord
  2
ByBlock
 70
     0
  3

 72
    65
 73
     0
 40
0.0
  0
LTYPE
  5
15
330
5
100
AcDbSymbolTableRecord
100
AcDbLinetypeTableRecord
  2
ByLayer
 70
     0
  3

 72
    65
 73
     0
 40
0.0
  0
LTYPE
  5
16
330
5
100
AcDbSymbolTableRecord
100
AcDbLinetypeTableRecord
  2
Continuous
 70
     0
  3
Solid line
 72
    65
 73
     0
 40
0.0
  0
ENDTAB
  0
TABLE
  2
LAYER
  5
2
330
0
100
AcDbSymbolTable
 70
     2
  0
LAYER
  5
10
330
2
100
AcDbSymbolTableRecord
100
AcDbLayerTableRecord
  2
0
 70
     0
 62
     7
  6
Continuous
370
    -3
390
F
  0
LAYER
  5
3B
330
2
100
AcDbSymbolTableRecord
100
AcDbLayerTableRecord
  2
Layer 1
 70
     0
 62
     7
  6
Continuous
370
    -3
390
F
  0
ENDTAB
  0
TABLE
  2
STYLE
  5
3
330
0
100
AcDbSymbolTable
 70
     1
  0
STYLE
  5
11
330
3
100
AcDbSymbolTableRecord
100
AcDbTextStyleTableRecord
  2
Standard
 70
     0
 40
0.0
 41
1.0
 50
0.0
 71
     0
 42
0.2
  3
txt
  4

  0
ENDTAB
  0
TABLE
  2
VIEW
  5
6
330
0
100
AcDbSymbolTable
 70
     0
  0
ENDTAB
  0
TABLE
  2
UCS
  5
7
330
0
100
AcDbSymbolTable
 70
     0
  0
ENDTAB
  0
TABLE
  2
APPID
  5
9
330
0
100
AcDbSymbolTable
 70
     1
  0
APPID
  5
12
330
9
100
AcDbSymbolTableRecord
100
AcDbRegAppTableRecord
  2
ACAD
 70
     0
  0
ENDTAB
  0
TABLE
  2
DIMSTYLE
  5
A
330
0
100
AcDbSymbolTable
 70
     1
100
AcDbDimStyleTable
  0
DIMSTYLE
105
27
330
A
100
AcDbSymbolTableRecord
100
AcDbDimStyleTableRecord
  2
Standard
 70
     0
340
11
  0
ENDTAB
  0
TABLE
  2
BLOCK_RECORD
  5
1
330
0
100
AcDbSymbolTable
 70
     1
  0
BLOCK_RECORD
  5
1F
330
1
100
AcDbSymbolTableRecord
100
AcDbBlockTableRecord
  2
*Model_Space
340
22
  0
BLOCK_RECORD
  5
1B
330
1
100
AcDbSymbolTableRecord
100
AcDbBlockTableRecord
  2
*Paper_Space
340
1E
  0
BLOCK_RECORD
  5
23
330
1
100
AcDbSymbolTableRecord
100
AcDbBlockTableRecord
  2
*Paper_Space0
340
26
  0
ENDTAB
  0
ENDSEC
  0
SECTION
  2
BLOCKS
  0
BLOCK
  5
20
330
1F
100
AcDbEntity
  8
0
100
AcDbBlockBegin
  2
*Model_Space
 70
     0
 71
     0
 10
0.0
 20
0.0
 30
0.0
  3
*Model_Space
  1

  0
ENDBLK
  5
21
330
1F
100
AcDbEntity
  8
0
100
AcDbBlockEnd
  0
BLOCK
  5
1C
330
1B
100
AcDbEntity
 67
     1
  8
0
100
AcDbBlockBegin
  2
*Paper_Space
 70
     0
 71
     0
 10
0.0
 20
0.0
 30
0.0
  3
*Paper_Space
  1

  0
ENDBLK
  5
1D
330
1B
100
AcDbEntity
 67
     1
  8
0
100
AcDbBlockEnd
  0
BLOCK
  5
24
330
23
100
AcDbEntity
  8
0
100
AcDbBlockBegin
  2
*Paper_Space0
 70
     0
 71
     0
 10
0.0
 20
0.0
 30
0.0
  3
*Paper_Space0
  1

  0
ENDBLK
  5
25
330
23
100
AcDbEntity
  8
0
100
AcDbBlockEnd
  0
ENDSEC
  0
SECTION
  2
ENTITIES
  0
SPLINE
  5
3C
330
1F
100
AcDbEntity
  8
Layer 1
370
     0
100
AcDbSpline
210
0.0
220
0.0
230
1.0
 70
    11
 71
     3
 72
   173
 73
   169
 74
     0
 42
0.0000000001
 43
0.0000000001
 40
0.0
 40
0.0
 40
0.0
 40
0.0
 40
1.0
 40
1.0
 40
1.0
 40
2.0
 40
2.0
 40
2.0
 40
3.0
 40
3.0
 40
3.0
 40
4.0
 40
4.0
 40
4.0
 40
5.0
 40
5.0
 40
5.0
 40
6.0
 40
6.0
 40
6.0
 40
7.0
 40
7.0
 40
7.0
 40
8.0
 40
8.0
 40
8.0
 40
9.0
 40
9.0
 40
9.0
 40
10.0
 40
10.0
 40
10.0
 40
11.0
 40
11.0
 40
11.0
 40
12.0
 40
12.0
 40
12.0
 40
13.0
 40
13.0
 40
13.0
 40
14.0
 40
14.0
 40
14.0
 40
15.0
 40
15.0
 40
15.0
 40
16.0
 40
16.0
 40
16.0
 40
17.0
 40
17.0
 40
17.0
 40
18.0
 40
18.0
 40
18.0
 40
19.0
 40
19.0
 40
19.0
 40
20.0
 40
20.0
 40
20.0
 40
21.0
 40
21.0
 40
21.0
 40
22.0
 40
22.0
 40
22.0
 40
23.0
 40
23.0
 40
23.0
 40
24.0
 40
24.0
 40
24.0
 40
25.0
 40
25.0
 40
25.0
 40
26.0
 40
26.0
 40
26.0
 40
27.0
 40
27.0
 40
27.0
 40
28.0
 40
28.0
 40
28.0
 40
29.0
 40
29.0
 40
29.0
 40
30.0
 40
30.0
 40
30.0
 40
31.0
 40
31.0
 40
31.0
 40
32.0
 40
32.0
 40
32.0
 40
33.0
 40
33.0
 40
33.0
 40
34.0
 40
34.0
 40
34.0
 40
35.0
 40
35.0
 40
35.0
 40
36.0
 40
36.0
 40
36.0
 40
37.0
 40
37.0
 40
37.0
 40
38.0
 40
38.0
 40
38.0
 40
39.0
 40
39.0
 40
39.0
 40
40.0
 40
40.0
 40
40.0
 40
41.0
 40
41.0
 40
41.0
 40
42.0
 40
42.0
 40
42.0
 40
43.0
 40
43.0
 40
43.0
 40
44.0
 40
44.0
 40
44.0
 40
45.0
 40
45.0
 40
45.0
 40
46.0
 40
46.0
 40
46.0
 40
47.0
 40
47.0
 40
47.0
 40
48.0
 40
48.0
 40
48.0
 40
49.0
 40
49.0
 40
49.0
 40
50.0
 40
50.0
 40
50.0
 40
51.0
 40
51.0
 40
51.0
 40
52.0
 40
52.0
 40
52.0
 40
53.0
 40
53.0
 40
53.0
 40
54.0
 40
54.0
 40
54.0
 40
55.0
 40
55.0
 40
55.0
 40
56.0
 40
56.0
 40
56.0
 40
56.0
 10
4.910363497036298
 20
3.365823838134238
 30
0.0
 10
4.804874673277948
 20
3.36971679603257
 30
0.0
 10
4.666967501003397
 20
3.381395669727568
 30
0.0
 10
4.528474662496353
 20
3.382773707921667
 30
0.0
 10
4.455576442028467
 20
3.383531628928422
 30
0.0
 10
4.389637314440785
 20
3.414985350708753
 30
0.0
 10
4.335411511502953
 20
3.460460611114051
 30
0.0
 10
4.261410860479786
 20
3.522472329848549
 30
0.0
 10
4.188891600515277
 20
3.555407442687537
 30
0.0
 10
4.091360947327854
 20
3.513480630632046
 30
0.0
 10
4.051707898292628
 20
3.49642740798006
 30
0.0
 10
4.00223632712444
 20
3.500458169697802
 30
0.0
 10
3.956933321493405
 20
3.503834363273347
 30
0.0
 10
3.824055988627319
 20
3.513652885406309
 30
0.0
 10
3.691006400986971
 20
3.511206867611782
 30
0.0
 10
3.557956813346622
 20
3.510207789921059
 30
0.0
 10
3.518200411446839
 20
3.509897731327386
 30
0.0
 10
3.478202852863088
 20
3.513308375857784
 30
0.0
 10
3.43865315669242
 20
3.517890352853166
 30
0.0
 10
3.313975151081228
 20
3.532221950071806
 30
0.0
 10
3.192569986181024
 20
3.515237629329524
 30
0.0
 10
3.07116482128082
 20
3.48719455207959
 30
0.0
 10
2.806030272735992
 20
3.425940754351848
 30
0.0
 10
2.553745930351146
 20
3.471209309028031
 30
0.0
 10
2.311607394170362
 20
3.587102321151835
 30
0.0
 10
2.210958929568788
 20
3.635264756035628
 30
0.0
 10
2.113014864923135
 20
3.688835990831263
 30
0.0
 10
2.014140624496465
 20
3.740546874064863
 30
0.0
 10
1.85880126906655
 20
3.821747774652202
 30
0.0
 10
1.76414727060931
 20
3.949595268109823
 30
0.0
 10
1.70775105751577
 20
4.11213487310391
 30
0.0
 10
1.623621825765969
 20
4.354531791446089
 30
0.0
 10
1.562333577083375
 20
4.603474391210242
 30
0.0
 10
1.492432589687656
 20
4.849936522225016
 30
0.0
 10
1.480133598805314
 20
4.893344725339164
 30
0.0
 10
1.466921657619381
 20
4.936546222724196
 30
0.0
 10
1.453003471858971
 20
4.979454886992984
 30
0.0
 10
1.373611246401389
 20
5.224418401471673
 30
0.0
 10
1.395642632029561
 20
5.467108152930098
 30
0.0
 10
1.470607909788598
 20
5.708040905691045
 30
0.0
 10
1.502750650665979
 20
5.811359319293688
 30
0.0
 10
1.549224988761999
 20
5.908114825996929
 30
0.0
 10
1.612631971168022
 20
5.996533201625867
 30
0.0
 10
1.702273355694223
 20
6.121572942263009
 30
0.0
 10
1.75014295746177
 20
6.265388453294763
 30
0.0
 10
1.796910128674036
 20
6.40978963055901
 30
0.0
 10
1.84639892531965
 20
6.562648517239546
 30
0.0
 10
1.902450628864665
 20
6.712716876577028
 30
0.0
 10
1.967028943735673
 20
6.860356443597411
 30
0.0
 10
2.032451307000568
 20
7.009908038612106
 30
0.0
 10
2.141126844082774
 20
7.085011120190552
 30
0.0
 10
2.29793036509392
 20
7.112279050956305
 30
0.0
 10
2.442607149996987
 20
7.137428247998629
 30
0.0
 10
2.58812798329394
 20
7.147229544654165
 30
0.0
 10
2.733821071365156
 20
7.158770614529751
 30
0.0
 10
2.821429849555059
 20
7.165695256455104
 30
0.0
 10
2.907936197189682
 20
7.178390433318249
 30
0.0
 10
2.992409938488009
 20
7.20391859086395
 30
0.0
 10
3.016353352110495
 20
7.211153291382975
 30
0.0
 10
3.034509005317761
 20
7.222746037690841
 30
0.0
 10
3.050804306962993
 20
7.241883543111403
 30
0.0
 10
3.100895995318526
 20
7.300553519225208
 30
0.0
 10
3.151297742267731
 20
7.35905124056475
 30
0.0
 10
3.204248859876021
 20
7.415085718632339
 30
0.0
 10
3.361310763048561
 20
7.581156546498807
 30
0.0
 10
3.561022948328494
 20
7.650230710978067
 30
0.0
 10
3.783610567630486
 20
7.661031085324325
 30
0.0
 10
3.883173827154206
 20
7.665854219003675
 30
0.0
 10
3.983150498136157
 20
7.66330484834459
 30
0.0
 10
4.082920463388992
 20
7.662030163015047
 30
0.0
 10
4.274192164730063
 20
7.659601370697946
 30
0.0
 10
4.451097817897642
 20
7.703095701199225
 30
0.0
 10
4.609778915948249
 20
7.814647893011616
 30
0.0
 10
4.70796413727787
 20
7.883704832013448
 30
0.0
 10
4.819895289593637
 20
7.915675318116567
 30
0.0
 10
4.939715710570626
 20
7.918638100233881
 30
0.0
 10
5.108456487438163
 20
7.922772214816181
 30
0.0
 10
5.277989636267308
 20
7.938326820932084
 30
0.0
 10
5.445490178760155
 20
7.908940156442903
 30
0.0
 10
5.593043618393406
 20
7.883033038393824
 30
0.0
 10
5.718996309334139
 20
7.80989366124197
 30
0.0
 10
5.829273815816987
 20
7.709589706188922
 30
0.0
 10
5.846981606611171
 20
7.693518335750231
 30
0.0
 10
5.862450085339943
 20
7.67501817299444
 30
0.0
 10
5.879710013721044
 20
7.658447263710388
 30
0.0
 10
5.92018988567273
 20
7.619431557339933
 30
0.0
 10
5.96501057793583
 20
7.597951386989401
 30
0.0
 10
6.02512749415344
 20
7.598657631563877
 30
0.0
 10
6.229938420751543
 20
7.601086423880978
 30
0.0
 10
6.434921602123908
 20
7.602498913029931
 30
0.0
 10
6.639215764399223
 20
7.58215562418953
 30
0.0
 10
6.773023273046327
 20
7.568823104661613
 30
0.0
 10
6.905004881086248
 20
7.546171601846096
 30
0.0
 10
7.033885903189445
 20
7.506501327333444
 30
0.0
 10
7.266498750353514
 20
7.434946694104805
 30
0.0
 10
7.422527124880479
 20
7.283414169186091
 30
0.0
 10
7.50486490697795
 20
7.055727808565929
 30
0.0
 10
7.564947372240707
 20
6.889622529744607
 30
0.0
 10
7.643771156943223
 20
6.733749184514479
 30
0.0
 10
7.750810273669936
 20
6.592862004645187
 30
0.0
 10
7.826188962887202
 20
6.493729382057123
 30
0.0
 10
7.876108396468473
 20
6.383813610600226
 30
0.0
 10
7.898639320942006
 20
6.26113376037048
 30
0.0
 10
7.932263452878044
 20
6.077871906032615
 30
0.0
 10
8.002164440273765
 20
5.904101289756613
 30
0.0
 10
8.042368704586629
 20
5.722803139845341
 30
0.0
 10
8.085983613429892
 20
5.526105413115001
 30
0.0
 10
8.100074053964564
 20
5.325755885170297
 30
0.0
 10
8.08842963122442
 20
5.124390054057444
 30
0.0
 10
8.078473305272048
 20
4.95246256386605
 30
0.0
 10
8.129908580866827
 20
4.799086912862728
 30
0.0
 10
8.224338648117525
 20
4.658561468019387
 30
0.0
 10
8.293275008777375
 20
4.556069877333204
 30
0.0
 10
8.375991751378224
 20
4.463672416418804
 30
0.0
 10
8.44089735032033
 20
4.357804632157077
 30
0.0
 10
8.537256671042769
 20
4.200639376119979
 30
0.0
 10
8.608673500451998
 20
4.036101615744447
 30
0.0
 10
8.595237628059524
 20
3.847723794610985
 30
0.0
 10
8.582697480493215
 20
3.672092826772949
 30
0.0
 10
8.519032115925796
 20
3.512171494347651
 30
0.0
 10
8.42780598747638
 20
3.362482095513546
 30
0.0
 10
8.366414385929229
 20
3.261781954479693
 30
0.0
 10
8.28080376312077
 20
3.180581053892355
 30
0.0
 10
8.209455835621247
 20
3.088045789158544
 30
0.0
 10
8.069033743642462
 20
2.905869139898532
 30
0.0
 10
7.93550184263418
 20
2.718352592636384
 30
0.0
 10
7.788602971143127
 20
2.54110242992028
 30
0.0
 10
7.724076332704397
 20
2.463277722908486
 30
0.0
 10
7.660032007633602
 20
2.384729545844789
 30
0.0
 10
7.586272513294404
 20
2.31537977372671
 30
0.0
 10
7.391624618377787
 20
2.132445203459944
 30
0.0
 10
7.156014538141552
 20
2.077151420921684
 30
0.0
 10
6.896874455741059
 20
2.099716796350071
 30
0.0
 10
6.736333006128416
 20
2.113669433065332
 30
0.0
 10
6.578409829084563
 20
2.142918293735104
 30
0.0
 10
6.422657062196419
 20
2.184121635738692
 30
0.0
 10
6.282269421172487
 20
2.22132866697939
 30
0.0
 10
6.14425889603338
 20
2.215230847970498
 30
0.0
 10
6.007316350494698
 20
2.16507025770526
 30
0.0
 10
5.910061304946096
 20
2.129482421342629
 30
0.0
 10
5.81070475115149
 20
2.100026854943743
 30
0.0
 10
5.709108885291473
 20
2.079046223438572
 30
0.0
 10
5.633351235570829
 20
2.063405489935537
 30
0.0
 10
5.563760306768781
 20
2.080837673090902
 30
0.0
 10
5.500094942201365
 20
2.122626681326982
 30
0.0
 10
5.446730413134845
 20
2.15762885145712
 30
0.0
 10
5.394227157939637
 20
2.193905706916801
 30
0.0
 10
5.342033961338102
 20
2.230595973834712
 30
0.0
 10
5.192792424917079
 20
2.33549913136057
 30
0.0
 10
5.113245170162661
 20
2.478401692088733
 30
0.0
 10
5.107767468341113
 20
2.661715222858877
 30
0.0
 10
5.104081216171896
 20
2.785497503643903
 30
0.0
 10
5.123752711392672
 20
2.90569688512427
 30
0.0
 10
5.166816404958295
 20
3.02138319151896
 30
0.0
 10
5.186556802088777
 20
3.074506563901512
 30
0.0
 10
5.226072047304593
 20
3.115641003995395
 30
0.0
 10
5.266724174030541
 20
3.154363877249603
 30
0.0
 10
5.295594074196934
 20
3.18189019017675
 30
0.0
 10
5.325979816376838
 20
3.207831759180681
 30
0.0
 10
5.355228677046609
 20
3.234979111604449
 30
0.0
 10
5.372764213066531
 20
3.251239962294829
 30
0.0
 10
5.390850964364092
 20
3.267604165849765
 30
0.0
 10
5.401117348910137
 20
3.289721678865069
 30
0.0
 10
5.416654729548614
 20
3.323345810801108
 30
0.0
 10
5.398843585889872
 20
3.351526691870451
 30
0.0
 10
5.361946613242846
 20
3.351319986141336
 30
0.0
 10
5.222144638451408
 20
3.350562065134581
 30
0.0
 10
5.08261827129879
 20
3.357142197511409
 30
0.0
 10
4.910363497036298
 20
3.365823838134238
 30
0.0
  0
SPLINE
  5
3D
330
1F
100
AcDbEntity
  8
Layer 1
370
     0
100
AcDbSpline
210
0.0
220
0.0
230
1.0
 70
    11
 71
     3
 72
   623
 73
   619
 74
     0
 42
0.0000000001
 43
0.0000000001
 40
0.0
 40
0.0
 40
0.0
 40
0.0
 40
1.0
 40
1.0
 40
1.0
 40
2.0
 40
2.0
 40
2.0
 40
3.0
 40
3.0
 40
3.0
 40
4.0
 40
4.0
 40
4.0
 40
5.0
 40
5.0
 40
5.0
 40
6.0
 40
6.0
 40
6.0
 40
7.0
 40
7.0
 40
7.0
 40
8.0
 40
8.0
 40
8.0
 40
9.0
 40
9.0
 40
9.0
 40
10.0
 40
10.0
 40
10.0
 40
11.0
 40
11.0
 40
11.0
 40
12.0
 40
12.0
 40
12.0
 40
13.0
 40
13.0
 40
13.0
 40
14.0
 40
14.0
 40
14.0
 40
15.0
 40
15.0
 40
15.0
 40
16.0
 40
16.0
 40
16.0
 40
17.0
 40
17.0
 40
17.0
 40
18.0
 40
18.0
 40
18.0
 40
19.0
 40
19.0
 40
19.0
 40
20.0
 40
20.0
 40
20.0
 40
21.0
 40
21.0
 40
21.0
 40
22.0
 40
22.0
 40
22.0
 40
23.0
 40
23.0
 40
23.0
 40
24.0
 40
24.0
 40
24.0
 40
25.0
 40
25.0
 40
25.0
 40
26.0
 40
26.0
 40
26.0
 40
27.0
 40
27.0
 40
27.0
 40
28.0
 40
28.0
 40
28.0
 40
29.0
 40
29.0
 40
29.0
 40
30.0
 40
30.0
 40
30.0
 40
31.0
 40
31.0
 40
31.0
 40
32.0
 40
32.0
 40
32.0
 40
33.0
 40
33.0
 40
33.0
 40
34.0
 40
34.0
 40
34.0
 40
35.0
 40
35.0
 40
35.0
 40
36.0
 40
36.0
 40
36.0
 40
37.0
 40
37.0
 40
37.0
 40
38.0
 40
38.0
 40
38.0
 40
39.0
 40
39.0
 40
39.0
 40
40.0
 40
40.0
 40
40.0
 40
41.0
 40
41.0
 40
41.0
 40
42.0
 40
42.0
 40
42.0
 40
43.0
 40
43.0
 40
43.0
 40
44.0
 40
44.0
 40
44.0
 40
45.0
 40
45.0
 40
45.0
 40
46.0
 40
46.0
 40
46.0
 40
47.0
 40
47.0
 40
47.0
 40
48.0
 40
48.0
 40
48.0
 40
49.0
 40
49.0
 40
49.0
 40
50.0
 40
50.0
 40
50.0
 40
51.0
 40
51.0
 40
51.0
 40
52.0
 40
52.0
 40
52.0
 40
53.0
 40
53.0
 40
53.0
 40
54.0
 40
54.0
 40
54.0
 40
55.0
 40
55.0
 40
55.0
 40
56.0
 40
56.0
 40
56.0
 40
57.0
 40
57.0
 40
57.0
 40
58.0
 40
58.0
 40
58.0
 40
59.0
 40
59.0
 40
59.0
 40
60.0
 40
60.0
 40
60.0
 40
61.0
 40
61.0
 40
61.0
 40
62.0
 40
62.0
 40
62.0
 40
63.0
 40
63.0
 40
63.0
 40
64.0
 40
64.0
 40
64.0
 40
65.0
 40
65.0
 40
65.0
 40
66.0
 40
66.0
 40
66.0
 40
67.0
 40
67.0
 40
67.0
 40
68.0
 40
68.0
 40
68.0
 40
69.0
 40
69.0
 40
69.0
 40
70.0
 40
70.0
 40
70.0
 40
71.0
 40
71.0
 40
71.0
 40
72.0
 40
72.0
 40
72.0
 40
73.0
 40
73.0
 40
73.0
 40
74.0
 40
74.0
 40
74.0
 40
75.0
 40
75.0
 40
75.0
 40
76.0
 40
76.0
 40
76.0
 40
77.0
 40
77.0
 40
77.0
 40
78.0
 40
78.0
 40
78.0
 40
79.0
 40
79.0
 40
79.0
 40
80.0
 40
80.0
 40
80.0
 40
81.0
 40
81.0
 40
81.0
 40
82.0
 40
82.0
 40
82.0
 40
83.0
 40
83.0
 40
83.0
 40
84.0
 40
84.0
 40
84.0
 40
85.0
 40
85.0
 40
85.0
 40
86.0
 40
86.0
 40
86.0
 40
87.0
 40
87.0
 40
87.0
 40
88.0
 40
88.0
 40
88.0
 40
89.0
 40
89.0
 40
89.0
 40
90.0
 40
90.0
 40
90.0
 40
91.0
 40
91.0
 40
91.0
 40
92.0
 40
92.0
 40
92.0
 40
93.0
 40
93.0
 40
93.0
 40
94.0
 40
94.0
 40
94.0
 40
95.0
 40
95.0
 40
95.0
 40
96.0
 40
96.0
 40
96.0
 40
97.0
 40
97.0
 40
97.0
 40
98.0
 40
98.0
 40
98.0
 40
99.0
 40
99.0
 40
99.0
 40
100.0
 40
100.0
 40
100.0
 40
101.0
 40
101.0
 40
101.0
 40
102.0
 40
102.0
 40
102.0
 40
103.0
 40
103.0
 40
103.0
 40
104.0
 40
104.0
 40
104.0
 40
105.0
 40
105.0
 40
105.0
 40
106.0
 40
106.0
 40
106.0
 40
107.0
 40
107.0
 40
107.0
 40
108.0
 40
108.0
 40
108.0
 40
109.0
 40
109.0
 40
109.0
 40
110.0
 40
110.0
 40
110.0
 40
111.0
 40
111.0
 40
111.0
 40
112.0
 40
112.0
 40
112.0
 40
113.0
 40
113.0
 40
113.0
 40
114.0
 40
114.0
 40
114.0
 40
115.0
 40
115.0
 40
115.0
 40
116.0
 40
116.0
 40
116.0
 40
117.0
 40
117.0
 40
117.0
 40
118.0
 40
118.0
 40
118.0
 40
119.0
 40
119.0
 40
119.0
 40
120.0
 40
120.0
 40
120.0
 40
121.0
 40
121.0
 40
121.0
 40
122.0
 40
122.0
 40
122.0
 40
123.0
 40
123.0
 40
123.0
 40
124.0
 40
124.0
 40
124.0
 40
125.0
 40
125.0
 40
125.0
 40
126.0
 40
126.0
 40
126.0
 40
127.0
 40
127.0
 40
127.0
 40
128.0
 40
128.0
 40
128.0
 40
129.0
 40
129.0
 40
129.0
 40
130.0
 40
130.0
 40
130.0
 40
131.0
 40
131.0
 40
131.0
 40
132.0
 40
132.0
 40
132.0
 40
133.0
 40
133.0
 40
133.0
 40
134.0
 40
134.0
 40
134.0
 40
135.0
 40
135.0
 40
135.0
 40
136.0
 40
136.0
 40
136.0
 40
137.0
 40
137.0
 40
137.0
 40
138.0
 40
138.0
 40
138.0
 40
139.0
 40
139.0
 40
139.0
 40
140.0
 40
140.0
 40
140.0
 40
141.0
 40
141.0
 40
141.0
 40
142.0
 40
142.0
 40
142.0
 40
143.0
 40
143.0
 40
143.0
 40
144.0
 40
144.0
 40
144.0
 40
145.0
 40
145.0
 40
145.0
 40
146.0
 40
146.0
 40
146.0
 40
147.0
 40
147.0
 40
147.0
 40
148.0
 40
148.0
 40
148.0
 40
149.0
 40
149.0
 40
149.0
 40
150.0
 40
150.0
 40
150.0
 40
151.0
 40
151.0
 40
151.0
 40
152.0
 40
152.0
 40
152.0
 40
153.0
 40
153.0
 40
153.0
 40
154.0
 40
154.0
 40
154.0
 40
155.0
 40
155.0
 40
155.0
 40
156.0
 40
156.0
 40
156.0
 40
157.0
 40
157.0
 40
157.0
 40
158.0
 40
158.0
 40
158.0
 40
159.0
 40
159.0
 40
159.0
 40
160.0
 40
160.0
 40
160.0
 40
161.0
 40
161.0
 40
161.0
 40
162.0
 40
162.0
 40
162.0
 40
163.0
 40
163.0
 40
163.0
 40
164.0
 40
164.0
 40
164.0
 40
165.0
 40
165.0
 40
165.0
 40
166.0
 40
166.0
 40
166.0
 40
167.0
 40
167.0
 40
167.0
 40
168.0
 40
168.0
 40
168.0
 40
169.0
 40
169.0
 40
169.0
 40
170.0
 40
170.0
 40
170.0
 40
171.0
 40
171.0
 40
171.0
 40
172.0
 40
172.0
 40
172.0
 40
173.0
 40
173.0
 40
173.0
 40
174.0
 40
174.0
 40
174.0
 40
175.0
 40
175.0
 40
175.0
 40
176.0
 40
176.0
 40
176.0
 40
177.0
 40
177.0
 40
177.0
 40
178.0
 40
178.0
 40
178.0
 40
179.0
 40
179.0
 40
179.0
 40
180.0
 40
180.0
 40
180.0
 40
181.0
 40
181.0
 40
181.0
 40
182.0
 40
182.0
 40
182.0
 40
183.0
 40
183.0
 40
183.0
 40
184.0
 40
184.0
 40
184.0
 40
185.0
 40
185.0
 40
185.0
 40
186.0
 40
186.0
 40
186.0
 40
187.0
 40
187.0
 40
187.0
 40
188.0
 40
188.0
 40
188.0
 40
189.0
 40
189.0
 40
189.0
 40
190.0
 40
190.0
 40
190.0
 40
191.0
 40
191.0
 40
191.0
 40
192.0
 40
192.0
 40
192.0
 40
193.0
 40
193.0
 40
193.0
 40
194.0
 40
194.0
 40
194.0
 40
195.0
 40
195.0
 40
195.0
 40
196.0
 40
196.0
 40
196.0
 40
197.0
 40
197.0
 40
197.0
 40
198.0
 40
198.0
 40
198.0
 40
199.0
 40
199.0
 40
199.0
 40
200.0
 40
200.0
 40
200.0
 40
201.0
 40
201.0
 40
201.0
 40
202.0
 40
202.0
 40
202.0
 40
203.0
 40
203.0
 40
203.0
 40
204.0
 40
204.0
 40
204.0
 40
205.0
 40
205.0
 40
205.0
 40
206.0
 40
206.0
 40
206.0
 40
206.0
 10
7.641979707290893
 20
4.893344725339164
 30
0.0
 10
7.638948023263874
 20
4.895239527856051
 30
0.0
 10
7.635916339236854
 20
4.897134330372938
 30
0.0
 10
7.632884655209834
 20
4.899029132889826
 30
0.0
 10
7.639258081857546
 20
4.909915634623215
 30
0.0
 10
7.645493704685848
 20
4.920871038266309
 30
0.0
 10
7.652004935152971
 20
4.931654187135142
 30
0.0
 10
7.682941892610514
 20
4.982831080568528
 30
0.0
 10
7.71598035831406
 20
5.032871092491781
 30
0.0
 10
7.744574650841634
 20
5.085305445777284
 30
0.0
 10
7.822089299259755
 20
5.22741563454384
 30
0.0
 10
7.870768498466335
 20
5.378086885591242
 30
0.0
 10
7.871733125202205
 20
5.541625568276052
 30
0.0
 10
7.87207763475073
 20
5.597677271821066
 30
0.0
 10
7.858951820951928
 20
5.649026420028715
 30
0.0
 10
7.811237248481218
 20
5.692141790026617
 30
0.0
 10
7.780265840068822
 20
5.603826767262237
 30
0.0
 10
7.750603567940821
 20
5.519180771189649
 30
0.0
 10
7.720872393903115
 20
5.434552000594486
 30
0.0
 10
7.713844399113205
 20
5.414535995825185
 30
0.0
 10
7.706747502413591
 20
5.394519991055883
 30
0.0
 10
7.699099390436336
 20
5.374745142970549
 30
0.0
 10
7.697273489829153
 20
5.370094264065462
 30
0.0
 10
7.693793943389051
 20
5.364926620837587
 30
0.0
 10
7.687213811012223
 20
5.366425237373671
 30
0.0
 10
7.677980955111754
 20
5.368509520142247
 30
0.0
 10
7.679048934712181
 20
5.375813122570977
 30
0.0
 10
7.680909286274217
 20
5.382100421831558
 30
0.0
 10
7.684009872210941
 20
5.392229002558192
 30
0.0
 10
7.688075084883536
 20
5.402116426600859
 30
0.0
 10
7.691864689917311
 20
5.412038301598379
 30
0.0
 10
7.740819496762711
 20
5.540299206514231
 30
0.0
 10
7.764280597017263
 20
5.673038735560906
 30
0.0
 10
7.759939776705848
 20
5.810308565170686
 30
0.0
 10
7.752877330961086
 20
6.031707626530267
 30
0.0
 10
7.678876679937919
 20
6.23431369201781
 30
0.0
 10
7.583757593590171
 20
6.430684134677051
 30
0.0
 10
7.553061792816595
 20
6.494056666128222
 30
0.0
 10
7.519954425203344
 20
6.556240639636981
 30
0.0
 10
7.487604978596848
 20
6.618803573649118
 30
0.0
 10
7.483539765924253
 20
6.626675616832914
 30
0.0
 10
7.480335827122971
 20
6.637441540224319
 30
0.0
 10
7.468450247698859
 20
6.636184080372203
 30
0.0
 10
7.456013452997107
 20
6.634874944087809
 30
0.0
 10
7.458493921746487
 20
6.62247260034091
 30
0.0
 10
7.45425645429963
 20
6.614910615750786
 30
0.0
 10
7.44612602895444
 20
6.600492891145016
 30
0.0
 10
7.454738767667565
 20
6.57939168129786
 30
0.0
 10
7.43606635013751
 20
6.568832463635569
 30
0.0
 10
7.424284123577956
 20
6.655183781973356
 30
0.0
 10
7.40957356585594
 20
6.74044989523329
 30
0.0
 10
7.40158094433016
 20
6.826336125680569
 30
0.0
 10
7.377603079752821
 20
7.083478052699616
 30
0.0
 10
7.242383081956765
 20
7.252563339115678
 30
0.0
 10
7.003396808144983
 20
7.344754094300963
 30
0.0
 10
6.883886445761667
 20
7.390849471893606
 30
0.0
 10
6.760896536938247
 20
7.411278888121138
 30
0.0
 10
6.633428003984004
 20
7.414706758128962
 30
0.0
 10
6.443327635107917
 20
7.419874401356837
 30
0.0
 10
6.253399521006094
 20
7.429210610121864
 30
0.0
 10
6.065676268014831
 20
7.46343763376782
 30
0.0
 10
6.043386500225264
 20
7.467502846440415
 30
0.0
 10
6.021579045803633
 20
7.475943330379278
 30
0.0
 10
5.989608559700514
 20
7.472170950822929
 30
0.0
 10
6.016273598756348
 20
7.451173093840331
 30
0.0
 10
6.036255152570797
 20
7.435446232950166
 30
0.0
 10
6.05878607704433
 20
7.417721216678555
 30
0.0
 10
6.040423718107949
 20
7.415068493154913
 30
0.0
 10
6.029778373058527
 20
7.424249672623104
 30
0.0
 10
6.018030597453826
 20
7.429279512031568
 30
0.0
 10
5.895247394359521
 20
7.482023923910743
 30
0.0
 10
5.783488496818016
 20
7.553733586436219
 30
0.0
 10
5.673279892244874
 20
7.62849215846614
 30
0.0
 10
5.601828611880793
 20
7.676947426466179
 30
0.0
 10
5.532272134033598
 20
7.729071721158009
 30
0.0
 10
5.453000486918
 20
7.76465955752064
 30
0.0
 10
5.315127765598301
 20
7.826533472435727
 30
0.0
 10
5.171088323360006
 20
7.816732175780191
 30
0.0
 10
5.025498588153347
 20
7.803141274090881
 30
0.0
 10
4.883801810845021
 20
7.789877656472669
 30
0.0
 10
4.766358505752854
 20
7.733653698153391
 30
0.0
 10
4.665486109944739
 20
7.634124889584524
 30
0.0
 10
4.561857637748425
 20
7.531874455582309
 30
0.0
 10
4.440107963299694
 20
7.452154946053628
 30
0.0
 10
4.319943032774181
 20
7.370988496421141
 30
0.0
 10
4.311226941196498
 20
7.365097383141364
 30
0.0
 10
4.300891654740749
 20
7.350266247077363
 30
0.0
 10
4.289901800142802
 20
7.365648598419004
 30
0.0
 10
4.278670788860888
 20
7.38137545930917
 30
0.0
 10
4.296860893023006
 20
7.385940210827125
 30
0.0
 10
4.305025769323048
 20
7.391986353403739
 30
0.0
 10
4.370344779723386
 20
7.440079886377827
 30
0.0
 10
4.436766220679003
 20
7.48672647924811
 30
0.0
 10
4.501465113891994
 20
7.535629609661231
 30
0.0
 10
4.515245495832994
 20
7.546033798026685
 30
0.0
 10
4.547353785755522
 20
7.552820636132628
 30
0.0
 10
4.535020343918328
 20
7.574662541509111
 30
0.0
 10
4.523754881681561
 20
7.594575193413855
 30
0.0
 10
4.498881292278057
 20
7.574920923670505
 30
0.0
 10
4.481242403393578
 20
7.568805879184187
 30
0.0
 10
4.288971624361785
 20
7.501884899383208
 30
0.0
 10
4.091567653056969
 20
7.466279837543151
 30
0.0
 10
3.889133842343688
 20
7.49742350072981
 30
0.0
 10
3.727145452627241
 20
7.522365992043019
 30
0.0
 10
3.591098631914725
 20
7.477304143095951
 30
0.0
 10
3.464766980470614
 20
7.380703665689546
 30
0.0
 10
3.307360567749548
 20
7.260280353002638
 30
0.0
 10
3.148059352511596
 20
7.142303058110257
 30
0.0
 10
2.989240450641578
 20
7.023671195075678
 30
0.0
 10
2.961231824346497
 20
7.002759465480213
 30
0.0
 10
2.934876843884336
 20
6.979005532109415
 30
0.0
 10
2.897359754049965
 20
6.969652097866962
 30
0.0
 10
2.931431748399086
 20
7.007151962223906
 30
0.0
 10
2.96553819370306
 20
7.044669052058277
 30
0.0
 10
2.999610188052181
 20
7.082186141892647
 30
0.0
 10
2.978870713230977
 20
7.084528806822617
 30
0.0
 10
2.963540038321615
 20
7.080997583950237
 30
0.0
 10
2.948416069141368
 20
7.0767084400711
 30
0.0
 10
2.807752820478617
 20
7.037089841990727
 30
0.0
 10
2.667089571815866
 20
6.997729626071748
 30
0.0
 10
2.521706542338323
 20
6.978454316831775
 30
0.0
 10
2.461107312752778
 20
6.970427244351143
 30
0.0
 10
2.400904269148038
 20
6.958024900604244
 30
0.0
 10
2.340081108355952
 20
6.953339570744303
 30
0.0
 10
2.21195800725951
 20
6.943486597656489
 30
0.0
 10
2.131807860795173
 20
6.876014402577871
 30
0.0
 10
2.080854898568328
 20
6.760448674525165
 30
0.0
 10
2.021203070241227
 20
6.62517700029683
 30
0.0
 10
1.999016655316218
 20
6.480431313484059
 30
0.0
 10
1.963359917043882
 20
6.339061820246831
 30
0.0
 10
1.945049234539779
 20
6.266439207417765
 30
0.0
 10
1.93002861822409
 20
6.192972546194812
 30
0.0
 10
1.91354383632717
 20
6.119919296430089
 30
0.0
 10
1.900883110418876
 20
6.158883326368265
 30
0.0
 10
1.913767767533711
 20
6.19812296394526
 30
0.0
 10
1.903311902735978
 20
6.240084226955603
 30
0.0
 10
1.842988280789253
 20
6.147307805537825
 30
0.0
 10
1.795635443344494
 20
6.054341903868359
 30
0.0
 10
1.763854437493064
 20
5.95334892971826
 30
0.0
 10
1.729196776911451
 20
5.843140325145117
 30
0.0
 10
1.690887315115472
 20
5.73410305303696
 30
0.0
 10
1.655781792120777
 20
5.624015026805801
 30
0.0
 10
1.630374212917059
 20
5.544381644664251
 30
0.0
 10
1.604363742003423
 20
5.464731037045275
 30
0.0
 10
1.588085665835617
 20
5.382513833289788
 30
0.0
 10
1.564848496787607
 20
5.265311684881588
 30
0.0
 10
1.59032497790103
 20
5.155016952921315
 30
0.0
 10
1.625878363308808
 20
5.042500134373055
 30
0.0
 10
1.703065727655831
 20
4.798225638991416
 30
0.0
 10
1.773156195303239
 20
4.551660155112085
 30
0.0
 10
1.842195908827645
 20
4.304922416458491
 30
0.0
 10
1.89549153598446
 20
4.114408636124176
 30
0.0
 10
2.010316568507837
 20
3.989179415235344
 30
0.0
 10
2.203879258346599
 20
3.939053275924959
 30
0.0
 10
2.220415716675799
 20
3.934781357523249
 30
0.0
 10
2.239656574960919
 20
3.931956379225344
 30
0.0
 10
2.258656276562072
 20
3.906221515950528
 30
0.0
 10
2.189203151579435
 20
3.925720756397042
 30
0.0
 10
2.129792479936302
 20
3.942429469500504
 30
0.0
 10
2.063801675916341
 20
3.960964083211147
 30
0.0
 10
2.08309421063374
 20
3.932473143548131
 30
0.0
 10
2.08240519153669
 20
3.931164007263737
 30
0.0
 10
2.101456569570122
 20
3.921104328446807
 30
0.0
 10
2.305457898729191
 20
3.813238388803635
 30
0.0
 10
2.515195311871201
 20
3.794910480822105
 30
0.0
 10
2.731168347841513
 20
3.882484808057156
 30
0.0
 10
2.756834309206625
 20
3.892888996422611
 30
0.0
 10
2.782190211978063
 20
3.942084959951978
 30
0.0
 10
2.777746038802091
 20
3.968646646143255
 30
0.0
 10
2.773060708942151
 20
3.996689723393188
 30
0.0
 10
2.751287705475372
 20
4.005715873564543
 30
0.0
 10
2.727792154265968
 20
3.988766003777114
 30
0.0
 10
2.715975476751562
 20
3.980222166973694
 30
0.0
 10
2.70395209350804
 20
3.971437173486307
 30
0.0
 10
2.69403021851052
 20
3.96086073034659
 30
0.0
 10
2.652895778416637
 20
3.916935762909655
 30
0.0
 10
2.601150444228185
 20
3.894990504668613
 30
0.0
 10
2.542859428617757
 20
3.887721353194736
 30
0.0
 10
2.506685926022634
 20
3.883208278109059
 30
0.0
 10
2.470305717698396
 20
3.883173827154206
 30
0.0
 10
2.426708034332559
 20
3.908977592338728
 30
0.0
 10
2.459557019784416
 20
3.908977592338728
 30
0.0
 10
2.480813258928408
 20
3.907668456054333
 30
0.0
 10
2.501897243298137
 20
3.909184298067843
 30
0.0
 10
2.651758896906505
 20
3.919864094072117
 30
0.0
 10
2.735026854784993
 20
4.017739256808065
 30
0.0
 10
2.712978243679394
 20
4.157954643057733
 30
0.0
 10
2.709498697239292
 20
4.180037705118185
 30
0.0
 10
2.702263996720267
 20
4.201845159539817
 30
0.0
 10
2.694512531878455
 20
4.222929143909545
 30
0.0
 10
2.641148002811935
 20
4.368587781025909
 30
0.0
 10
2.610142143444687
 20
4.519310708505588
 30
0.0
 10
2.594535860896505
 20
4.673168672876846
 30
0.0
 10
2.566871744149949
 20
4.945882431489223
 30
0.0
 10
2.586715494144987
 20
5.218079425778813
 30
0.0
 10
2.605353460720189
 20
5.490259194590976
 30
0.0
 10
2.618548176428696
 20
5.682650551964754
 30
0.0
 10
2.640148925121212
 20
5.874680174312579
 30
0.0
 10
2.629124619568413
 20
6.068105060331932
 30
0.0
 10
2.628263345697101
 20
6.08345296071872
 30
0.0
 10
2.624198133024506
 20
6.100299477641592
 30
0.0
 10
2.63584255576465
 20
6.124397920560914
 30
0.0
 10
2.646487900814072
 20
6.074151202908545
 30
0.0
 10
2.655135090482049
 20
6.033275144976056
 30
0.0
 10
2.666297199854259
 20
5.980547958574307
 30
0.0
 10
2.711324597846474
 20
6.095441893007389
 30
0.0
 10
2.751873371707865
 20
6.198915335906868
 30
0.0
 10
2.795178221957455
 20
6.309382322641404
 30
0.0
 10
2.804583332632187
 20
6.285094399470393
 30
0.0
 10
2.799415689404313
 20
6.271296792051967
 30
0.0
 10
2.79621175060303
 20
6.257051322220459
 30
0.0
 10
2.768168673353097
 20
6.132752277112645
 30
0.0
 10
2.727826605220821
 20
6.011174857438178
 30
0.0
 10
2.713253851318214
 20
5.883895804735623
 30
0.0
 10
2.691515298806288
 20
5.693571504652995
 30
0.0
 10
2.672016058359774
 20
5.502937145976696
 30
0.0
 10
2.660406086574481
 20
5.311786022977609
 30
0.0
 10
2.65003634916388
 20
5.140650904747823
 30
0.0
 10
2.632983126511893
 20
4.969481335563185
 30
0.0
 10
2.648761663834337
 20
4.797571070849218
 30
0.0
 10
2.662300889091369
 20
4.650431042674198
 30
0.0
 10
2.691997612174223
 20
4.505668130384
 30
0.0
 10
2.709877657742669
 20
4.359182670351176
 30
0.0
 10
2.725483940290851
 20
4.231231824028997
 30
0.0
 10
2.798898925081525
 20
4.152580294100743
 30
0.0
 10
2.923197970189339
 20
4.120713160862183
 30
0.0
 10
3.053146971892963
 20
4.087433538474669
 30
0.0
 10
3.183061522641734
 20
4.053981661312894
 30
0.0
 10
3.313044975300211
 20
4.021046548473905
 30
0.0
 10
3.390318467034365
 20
4.001478406117686
 30
0.0
 10
3.467833115452486
 20
3.983047145271599
 30
0.0
 10
3.545003254322082
 20
3.963031140502297
 30
0.0
 10
3.554994031229307
 20
3.96044731888836
 30
0.0
 10
3.573321939210836
 20
3.962445474269805
 30
0.0
 10
3.572288410565261
 20
3.946666936947361
 30
0.0
 10
3.570979274280866
 20
3.927064343636289
 30
0.0
 10
3.552203503886254
 20
3.935022514207216
 30
0.0
 10
3.54028347350729
 20
3.933196613600034
 30
0.0
 10
3.535081379324563
 20
3.932369790683574
 30
0.0
 10
3.529672579412721
 20
3.933127711690329
 30
0.0
 10
3.524332681410583
 20
3.933093260735476
 30
0.0
 10
3.403547633697724
 20
3.931680771586524
 30
0.0
 10
3.286104328605557
 20
3.953453775053303
 30
0.0
 10
3.170693629849688
 20
3.986526691711701
 30
0.0
 10
3.07281846711374
 20
4.014569768961635
 30
0.0
 10
2.975873480158809
 20
4.045885686922556
 30
0.0
 10
2.877826062648599
 20
4.07599582146364
 30
0.0
 10
2.878583983655354
 20
4.065040417820545
 30
0.0
 10
2.886611056135986
 20
4.061733126154706
 30
0.0
 10
2.892364365596353
 20
4.057185600114176
 30
0.0
 10
2.978388399863042
 20
3.989007160461081
 30
0.0
 10
3.075643445411644
 20
3.944220919152833
 30
0.0
 10
3.183302679325702
 20
3.924721678706319
 30
0.0
 10
3.363171114610596
 20
3.892131075415856
 30
0.0
 10
3.545554469599722
 20
3.884827472987126
 30
0.0
 10
3.727662216950029
 20
3.881657985140696
 30
0.0
 10
3.85399386839414
 20
3.879487574984989
 30
0.0
 10
3.996861978167451
 20
3.982461479039106
 30
0.0
 10
4.036928438660906
 20
4.092980142205922
 30
0.0
 10
4.039960122687926
 20
4.101282822325373
 30
0.0
 10
4.047642685620033
 20
4.111514755916565
 30
0.0
 10
4.038478731629269
 20
4.11861165261618
 30
0.0
 10
4.028901366180274
 20
4.126018607909467
 30
0.0
 10
4.021838920435512
 20
4.114925400446963
 30
0.0
 10
4.015120984239275
 20
4.10965440435453
 30
0.0
 10
3.973331976003195
 20
4.076753742470395
 30
0.0
 10
3.932507594502984
 20
4.042475042392159
 30
0.0
 10
3.886308864045783
 20
4.015672199516915
 30
0.0
 10
3.835597058502906
 20
3.986216633118029
 30
0.0
 10
3.782025823707271
 20
3.965856118800202
 30
0.0
 10
3.710367837614074
 20
3.964340276786692
 30
0.0
 10
3.791775443930528
 20
4.015534395697505
 30
0.0
 10
3.86239990137815
 20
4.061974282838673
 30
0.0
 10
3.935056965162069
 20
4.105037976404295
 30
0.0
 10
4.008024087539661
 20
4.148273924744181
 30
0.0
 10
4.036618380067234
 20
4.208700899555463
 30
0.0
 10
4.033621146995067
 20
4.294070365679954
 30
0.0
 10
4.020081921738035
 20
4.681402451086593
 30
0.0
 10
4.029624836232177
 20
5.068097193828462
 30
0.0
 10
4.068106552802417
 20
5.454189044860411
 30
0.0
 10
4.087984753752309
 20
5.653350014862704
 30
0.0
 10
4.080887857052694
 20
5.853113876574915
 30
0.0
 10
4.049330782407806
 20
6.051103514112223
 30
0.0
 10
4.026662054114862
 20
6.193179251923927
 30
0.0
 10
4.011641437799173
 20
6.335737303103565
 30
0.0
 10
4.00843749899789
 20
6.479535588657893
 30
0.0
 10
4.008127440404218
 20
6.492747529843826
 30
0.0
 10
4.003132051950606
 20
6.507354734701286
 30
0.0
 10
4.02001301982833
 20
6.526888426102652
 30
0.0
 10
4.046057941696819
 20
6.373874510125281
 30
0.0
 10
4.062215439522641
 20
6.225804306169243
 30
0.0
 10
4.129015840981634
 20
6.080283472872289
 30
0.0
 10
4.154854057121009
 20
6.143001436181263
 30
0.0
 10
4.177453883504247
 20
6.195349662079634
 30
0.0
 10
4.198124456415746
 20
6.248404132552482
 30
0.0
 10
4.235951604843789
 20
6.345504148804248
 30
0.0
 10
4.256312119161616
 20
6.446652152251183
 30
0.0
 10
4.264304740687396
 20
6.550745712338007
 30
0.0
 10
4.277775064034723
 20
6.518000079750708
 30
0.0
 10
4.278877494590002
 20
6.48423814399526
 30
0.0
 10
4.278808592680297
 20
6.450217826078418
 30
0.0
 10
4.27856743599633
 20
6.347605657050251
 30
0.0
 10
4.247354870899967
 20
6.251160208940682
 30
0.0
 10
4.219242891740328
 20
6.154249672940604
 30
0.0
 10
4.171356064495355
 20
5.989384628493973
 30
0.0
 10
4.123503688205234
 20
5.823899466859997
 30
0.0
 10
4.120437553223362
 20
5.651110702797292
 30
0.0
 10
4.11254828456214
 20
5.202714299914599
 30
0.0
 10
4.10868977761866
 20
4.754231769644775
 30
0.0
 10
4.093772514167529
 20
4.306024847013771
 30
0.0
 10
4.089982909133754
 20
4.191888833587444
 30
0.0
 10
4.139282225527679
 20
4.115476615724603
 30
0.0
 10
4.234539115694838
 20
4.057667913482111
 30
0.0
 10
4.338615450304235
 20
3.994588215147186
 30
0.0
 10
4.455989853486697
 20
3.987146808899046
 30
0.0
 10
4.570160317867876
 20
3.964822590154627
 30
0.0
 10
4.683572861242301
 20
3.942705077139323
 30
0.0
 10
4.799086912862728
 20
3.931853026360786
 30
0.0
 10
4.91081135944938
 20
3.900778265083833
 30
0.0
 10
4.921594508318212
 20
3.897746581056813
 30
0.0
 10
4.936546222724196
 20
3.898642305882978
 30
0.0
 10
4.934031303019964
 20
3.880452201720859
 30
0.0
 10
4.931447481406027
 20
3.861641980371395
 30
0.0
 10
4.916426865090338
 20
3.867877603199697
 30
0.0
 10
4.90585042195062
 20
3.867980956064255
 30
0.0
 10
4.820687661555245
 20
3.86873887707101
 30
0.0
 10
4.735490450205016
 20
3.868911131845272
 30
0.0
 10
4.650362140764493
 20
3.871563855368914
 30
0.0
 10
4.468151040549628
 20
3.877179361009872
 30
0.0
 10
4.293829208995986
 20
3.910975747720173
 30
0.0
 10
4.141177028044567
 20
4.019220647866723
 30
0.0
 10
4.140350205128106
 20
4.019806314099215
 30
0.0
 10
4.137284070146234
 20
4.017222492485278
 30
0.0
 10
4.135285914764789
 20
4.016120061929997
 30
0.0
 10
4.167049695138793
 20
3.926650932178059
 30
0.0
 10
4.259274901278931
 20
3.849377440443905
 30
0.0
 10
4.370999347865583
 20
3.828534612758144
 30
0.0
 10
4.654289549617677
 20
3.775721298969264
 30
0.0
 10
4.939336750067249
 20
3.749641926145923
 30
0.0
 10
5.228208006505447
 20
3.771139321973882
 30
0.0
 10
5.398567978251053
 20
3.783782822404748
 30
0.0
 10
5.513565265548691
 20
3.874836696079901
 30
0.0
 10
5.601863062835645
 20
4.010676811063303
 30
0.0
 10
5.610372448684212
 20
4.023768173907252
 30
0.0
 10
5.623015949115079
 20
4.038134222080744
 30
0.0
 10
5.617193737745007
 20
4.061423067561033
 30
0.0
 10
5.55518201901051
 20
3.976329209075362
 30
0.0
 10
5.482869464775115
 20
3.912663844507945
 30
0.0
 10
5.377828503429848
 20
3.890821939131461
 30
0.0
 10
5.247948403635929
 20
3.863812390527102
 30
0.0
 10
5.12165120314667
 20
3.861607529416542
 30
0.0
 10
5.082377114614822
 20
3.893853623158481
 30
0.0
 10
5.105734862004816
 20
3.911010198675025
 30
0.0
 10
5.130505098543762
 20
3.920828720807987
 30
0.0
 10
5.158892685342221
 20
3.925376246848517
 30
0.0
 10
5.217941621959403
 20
3.934815808478101
 30
0.0
 10
5.279023164912883
 20
3.929682616205079
 30
0.0
 10
5.336590710471407
 20
3.948561739464248
 30
0.0
 10
5.522625866674899
 20
4.009436576688612
 30
0.0
 10
5.65612331672833
 20
4.11916286789382
 30
0.0
 10
5.686371255088823
 20
4.325351832686023
 30
0.0
 10
5.716825899178432
 20
4.533091090446588
 30
0.0
 10
5.749588757243158
 20
4.740485838658628
 30
0.0
 10
5.778837617912929
 20
4.948397351193456
 30
0.0
 10
5.791239961659828
 20
5.036281737022179
 30
0.0
 10
5.810187986828702
 20
5.123563231140984
 30
0.0
 10
5.802470972941743
 20
5.213859183809382
 30
0.0
 10
5.786761337529004
 20
5.398137341315396
 30
0.0
 10
5.777735187357649
 20
5.582846135757066
 30
0.0
 10
5.771051702116265
 20
5.767692734018146
 30
0.0
 10
5.76078531757022
 20
6.052016464415815
 30
0.0
 10
5.75623779152969
 20
6.336994762955682
 30
0.0
 10
5.692193466458896
 20
6.616443683241722
 30
0.0
 10
5.689092880522171
 20
6.629965683021328
 30
0.0
 10
5.677414006827174
 20
6.645761445821198
 30
0.0
 10
5.697671168280443
 20
6.666914332100632
 30
0.0
 10
5.75568657625205
 20
6.469734292002357
 30
0.0
 10
5.812220593165
 20
6.277808022519089
 30
0.0
 10
5.868789061032802
 20
6.085675047306705
 30
0.0
 10
5.882879501567474
 20
6.090463730031203
 30
0.0
 10
5.884670951219804
 20
6.100730114577248
 30
0.0
 10
5.889184026305482
 20
6.108447128464207
 30
0.0
 10
5.950437824033224
 20
6.212799070712425
 30
0.0
 10
6.011347112212441
 20
6.317306042257479
 30
0.0
 10
6.072394204211068
 20
6.421795788325106
 30
0.0
 10
6.077079534071007
 20
6.429822860805738
 30
0.0
 10
6.081454805337275
 20
6.438091089970338
 30
0.0
 10
6.086794703339412
 20
6.445687525515313
 30
0.0
 10
6.089550779727612
 20
6.449580483413646
 30
0.0
 10
6.092823620438599
 20
6.454920381415783
 30
0.0
 10
6.099576007589689
 20
6.451526962362812
 30
0.0
 10
6.106776257153861
 20
6.447892386625874
 30
0.0
 10
6.108602157761044
 20
6.441932371436391
 30
0.0
 10
6.106018336147106
 20
6.434990504033613
 30
0.0
 10
6.103262259758906
 20
6.427549097785473
 30
0.0
 10
6.099748262363951
 20
6.420331622743875
 30
0.0
 10
6.095993108285029
 20
6.413320853431392
 30
0.0
 10
5.91646918254866
 20
6.079663355684945
 30
0.0
 10
5.843123099667691
 20
5.722424179341963
 30
0.0
 10
5.853079425620063
 20
5.34516899822968
 30
0.0
 10
5.859452852267776
 20
5.104287921901011
 30
0.0
 10
5.854388561904458
 20
4.863303492707785
 30
0.0
 10
5.819696450367992
 20
4.624317218896004
 30
0.0
 10
5.800817327108823
 20
4.494195962418117
 30
0.0
 10
5.774083386143285
 20
4.365246038405216
 30
0.0
 10
5.751207952121225
 20
4.235710448159822
 30
0.0
 10
5.729572752473857
 20
4.11309949983978
 30
0.0
 10
5.773842229459317
 20
4.046815862703574
 30
0.0
 10
5.895523001998341
 20
4.023699271997547
 30
0.0
 10
5.945029024121381
 20
4.014294161322815
 30
0.0
 10
5.995465222025439
 20
4.008885361410973
 30
0.0
 10
6.045763616110087
 20
4.004510090144706
 30
0.0
 10
6.191663409910417
 20
3.991728785894429
 30
0.0
 10
6.337907713259272
 20
3.986630044576259
 30
0.0
 10
6.484358722337243
 20
3.985665417840389
 30
0.0
 10
6.496209850806503
 20
3.985562064975831
 30
0.0
 10
6.514193249239507
 20
3.991280923481346
 30
0.0
 10
6.516191404620952
 20
3.971402722531455
 30
0.0
 10
6.518465167641216
 20
3.948975150922478
 30
0.0
 10
6.499310436743228
 20
3.951593423491268
 30
0.0
 10
6.485598956711933
 20
3.950008679568053
 30
0.0
 10
6.419522025304842
 20
3.942532822365061
 30
0.0
 10
6.353513995807455
 20
3.934126789381051
 30
0.0
 10
6.2872648096261
 20
3.928614636604652
 30
0.0
 10
6.138161077024487
 20
3.916212292857752
 30
0.0
 10
5.989574108745662
 20
3.914696450844242
 30
0.0
 10
5.844156628313266
 20
3.958483614461768
 30
0.0
 10
5.819730901322845
 20
3.965856118800202
 30
0.0
 10
5.795511880061539
 20
3.973917642235687
 30
0.0
 10
5.765126137881635
 20
3.983563909594387
 30
0.0
 10
5.817870549760809
 20
3.91259494259824
 30
0.0
 10
5.86627414132857
 20
3.883966199115814
 30
0.0
 10
5.957086858319756
 20
3.869152288529239
 30
0.0
 10
6.067915580080243
 20
3.851065537231678
 30
0.0
 10
6.17998453621542
 20
3.8534426531165
 30
0.0
 10
6.291571178982663
 20
3.853890515529583
 30
0.0
 10
6.472473142913131
 20
3.854613985581485
 30
0.0
 10
6.653685165437273
 20
3.844140895306325
 30
0.0
 10
6.834104815999806
 20
3.860952961274345
 30
0.0
 10
6.943486597656489
 20
3.871115992955832
 30
0.0
 10
7.041223956573027
 20
3.914145235566602
 30
0.0
 10
7.125559894051943
 20
3.987077906989341
 30
0.0
 10
7.017108288176278
 20
3.948320582780281
 30
0.0
 10
6.907381996971071
 20
3.919278427839624
 30
0.0
 10
6.790627710975953
 20
3.931474065857409
 30
0.0
 10
6.845232474417164
 20
3.955589734254158
 30
0.0
 10
6.900939668413653
 20
3.975640189978312
 30
0.0
 10
6.956336803816471
 20
3.996517468618926
 30
0.0
 10
7.034678275151052
 20
4.025973035017812
 30
0.0
 10
7.113329805079306
 20
4.054842935184205
 30
0.0
 10
7.184849987353092
 20
4.099388019808486
 30
0.0
 10
7.377361923068854
 20
4.219311793650033
 30
0.0
 10
7.4552210810355
 20
4.400041502806239
 30
0.0
 10
7.455048826261237
 20
4.619046222803571
 30
0.0
 10
7.454911022441827
 20
4.777658418944474
 30
0.0
 10
7.464281682161706
 20
4.935443792168916
 30
0.0
 10
7.478716632244904
 20
5.093211939915933
 30
0.0
 10
7.49618326635512
 20
5.284001327889069
 30
0.0
 10
7.477614201689624
 20
5.470139836957117
 30
0.0
 10
7.404268118808655
 20
5.649043645506142
 30
0.0
 10
7.38780056238916
 20
5.689196233386729
 30
0.0
 10
7.375122611003441
 20
5.730899114235678
 30
0.0
 10
7.360722111875097
 20
5.771895750510151
 30
0.0
 10
7.3869737394727
 20
5.754377439967655
 30
0.0
 10
7.397343476883303
 20
5.726885577995361
 30
0.0
 10
7.414189993806175
 20
5.704044594928155
 30
0.0
 10
7.425524357952646
 20
5.688713920018794
 30
0.0
 10
7.435239527221051
 20
5.665356172628799
 30
0.0
 10
7.458769529385307
 20
5.671057805656888
 30
0.0
 10
7.480680336671496
 20
5.676380478181599
 30
0.0
 10
7.491463485540328
 20
5.696413708428326
 30
0.0
 10
7.496286619219678
 20
5.718737927172746
 30
0.0
 10
7.522607148726987
 20
5.840952689511983
 30
0.0
 10
7.548307561046951
 20
5.96308132446409
 30
0.0
 10
7.54844536486636
 20
6.08918904470166
 30
0.0
 10
7.548479815821213
 20
6.126998967652278
 30
0.0
 10
7.545069171290815
 20
6.165635713519355
 30
0.0
 10
7.555852320159648
 20
6.203238930740857
 30
0.0
 10
7.568668075364777
 20
6.107499727205764
 30
0.0
 10
7.580381400014626
 20
6.011484916031851
 30
0.0
 10
7.576832951664819
 20
5.914987791490002
 30
0.0
 10
7.568564722500219
 20
5.690557046103402
 30
0.0
 10
7.552545028493808
 20
5.466918672678409
 30
0.0
 10
7.557643769811977
 20
5.241454398646233
 30
0.0
 10
7.563638235956312
 20
4.975561929094651
 30
0.0
 10
7.524295245514759
 20
4.710823566530627
 30
0.0
 10
7.501523164357257
 20
4.445792370850357
 30
0.0
 10
7.494047307154266
 20
4.358803709847799
 30
0.0
 10
7.475271536759654
 20
4.271883950754946
 30
0.0
 10
7.493737248560593
 20
4.183655055377697
 30
0.0
 10
7.498284774601123
 20
4.161813150001213
 30
0.0
 10
7.504485946474572
 20
4.156266546269961
 30
0.0
 10
7.527361380496632
 20
4.160056151303736
 30
0.0
 10
7.608527830129118
 20
4.173457572741357
 30
0.0
 10
7.690211044084391
 20
4.184034015881075
 30
0.0
 10
7.775856117847702
 20
4.196264104853712
 30
0.0
 10
7.755909014988106
 20
4.171183809721093
 30
0.0
 10
7.729795191209912
 20
4.169530163888172
 30
0.0
 10
7.706230738090803
 20
4.163639050608396
 30
0.0
 10
7.536559785442249
 20
4.121436630914085
 30
0.0
 10
7.404405922628064
 20
4.033965656543591
 30
0.0
 10
7.309665796783694
 20
3.880073241217481
 30
0.0
 10
7.181714950461515
 20
3.672230630592359
 30
0.0
 10
6.982485078549517
 20
3.569187824628536
 30
0.0
 10
6.741879609859668
 20
3.550963269511564
 30
0.0
 10
6.566834308254125
 20
3.537699651893353
 30
0.0
 10
6.390996634686973
 20
3.534805771685743
 30
0.0
 10
6.215572372578051
 20
3.526089680108061
 30
0.0
 10
5.970005966389443
 20
3.513894042090276
 30
0.0
 10
5.750415580159618
 20
3.437309569453173
 30
0.0
 10
5.567033147479769
 20
3.267156303436683
 30
0.0
 10
5.414863279896283
 20
3.125976290451145
 30
0.0
 10
5.307100693117669
 20
2.96291992113427
 30
0.0
 10
5.288118216993943
 20
2.750047471100682
 30
0.0
 10
5.274372286007796
 20
2.5958449971809
 30
0.0
 10
5.32270697566585
 20
2.469995659104723
 30
0.0
 10
5.448797470425995
 20
2.377219237686945
 30
0.0
 10
5.50167968612458
 20
2.338289658703622
 30
0.0
 10
5.529447155735693
 20
2.343801811480021
 30
0.0
 10
5.562175562845566
 20
2.398957790198871
 30
0.0
 10
5.60427462967532
 20
2.469857855285313
 30
0.0
 10
5.642997502929528
 20
2.542377115249822
 30
0.0
 10
5.671970755960479
 20
2.620029567487354
 30
0.0
 10
5.699841578436151
 20
2.694650335697865
 30
0.0
 10
5.730709633983989
 20
2.768168673353097
 30
0.0
 10
5.760888670434777
 20
2.841893716737443
 30
0.0
 10
5.787829317129431
 20
2.907591687641157
 30
0.0
 10
5.833890243767222
 20
2.947795951954023
 30
0.0
 10
5.90778754192583
 20
2.952067870355733
 30
0.0
 10
5.942238496778329
 20
2.954066025737178
 30
0.0
 10
5.976448294946859
 20
2.96030164856548
 30
0.0
 10
6.010864798844506
 20
2.963574489276467
 30
0.0
 10
6.113976506718033
 20
2.973496364273987
 30
0.0
 10
6.216812606952741
 20
2.991135253158466
 30
0.0
 10
6.320992294426696
 20
2.974667696738972
 30
0.0
 10
6.379145506217713
 20
2.965503742748207
 30
0.0
 10
6.437505423737846
 20
2.959509276603872
 30
0.0
 10
6.469544811750669
 20
2.898048773147015
 30
0.0
 10
6.500481769208212
 20
2.838689777936161
 30
0.0
 10
6.519533147241644
 20
2.777263725434156
 30
0.0
 10
6.50816433214032
 20
2.710325520155752
 30
0.0
 10
6.499517142472342
 20
2.659303656019202
 30
0.0
 10
6.487287053499705
 20
2.608867458115144
 30
0.0
 10
6.474953611662511
 20
2.558569064030496
 30
0.0
 10
6.468476832150241
 20
2.531938475929515
 30
0.0
 10
6.474471298294576
 20
2.518674858311303
 30
0.0
 10
6.502721081273624
 20
2.509752061004506
 30
0.0
 10
6.682348359874552
 20
2.453011338362441
 30
0.0
 10
6.864938420592793
 20
2.427724337500708
 30
0.0
 10
7.053350692681106
 20
2.447533636540894
 30
0.0
 10
7.177201875375838
 20
2.460556097475139
 30
0.0
 10
7.265051810249709
 20
2.517641329665728
 30
0.0
 10
7.321172415704429
 20
2.632190754550285
 30
0.0
 10
7.39469075335966
 20
2.782259113887768
 30
0.0
 10
7.418082951704506
 20
2.931431748399086
 30
0.0
 10
7.348044160489377
 20
3.088734808255594
 30
0.0
 10
7.335193954329395
 20
3.117535806512282
 30
0.0
 10
7.329371742959323
 20
3.149540743570253
 30
0.0
 10
7.320965709975313
 20
3.180236544343829
 30
0.0
 10
7.317968476903146
 20
3.191329751806334
 30
0.0
 10
7.312559676991304
 20
3.204283310830873
 30
0.0
 10
7.329165037230208
 20
3.210277776975208
 30
0.0
 10
7.344254555455603
 20
3.21568657688705
 30
0.0
 10
7.346528318475867
 20
3.201423881578116
 30
0.0
 10
7.35235052984594
 20
3.193948024375124
 30
0.0
 10
7.455186630080648
 20
3.06138075010271
 30
0.0
 10
7.473066675649094
 20
2.917031249270742
 30
0.0
 10
7.410572643546661
 20
2.762277560073319
 30
0.0
 10
7.390659991641918
 20
2.713012694634247
 30
0.0
 10
7.368955890084844
 20
2.664471299247076
 30
0.0
 10
7.358758407448504
 20
2.611933593097016
 30
0.0
 10
7.356277938699124
 20
2.59915228884674
 30
0.0
 10
7.341980792435337
 20
2.5820646152399
 30
0.0
 10
7.362651365346837
 20
2.575277777133958
 30
0.0
 10
7.380221352321611
 20
2.569524467673591
 30
0.0
 10
7.381323782876891
 20
2.590298393449647
 30
0.0
 10
7.386663680879028
 20
2.600978189453922
 30
0.0
 10
7.442853188243453
 20
2.712978243679394
 30
0.0
 10
7.484469941705271
 20
2.829422471080838
 30
0.0
 10
7.490361054985048
 20
2.959922688062103
 30
0.0
 10
7.509929197341267
 20
2.942214897267918
 30
0.0
 10
7.513167587097402
 20
2.922853460640814
 30
0.0
 10
7.515131291523995
 20
2.903147514465185
 30
0.0
 10
7.518610837964097
 20
2.867904187651079
 30
0.0
 10
7.509067923469955
 20
2.834796820037828
 30
0.0
 10
7.499938420434042
 20
2.801276040966347
 30
0.0
 10
7.489740937797703
 20
2.763862303996534
 30
0.0
 10
7.475202634849949
 20
2.726414116071869
 30
0.0
 10
7.486847057590094
 20
2.681248914260243
 30
0.0
 10
7.534389375286541
 20
2.724312607825866
 30
0.0
 10
7.56870252631963
 20
2.773129610851856
 30
0.0
 10
7.60801106580633
 20
2.817364636882464
 30
0.0
 10
7.707470972465493
 20
2.929261338243379
 30
0.0
 10
7.798352591366384
 20
3.045877820419086
 30
0.0
 10
7.841622990661121
 20
3.193500161962041
 30
0.0
 10
7.858124998035469
 20
3.249861924100729
 30
0.0
 10
7.895332029276166
 20
3.296990830338947
 30
0.0
 10
7.933228079613914
 20
3.342087130240867
 30
0.0
 10
7.977910968057605
 20
3.395279404533124
 30
0.0
 10
8.030483125162517
 20
3.440375704435045
 30
0.0
 10
8.080850421156871
 20
3.487780218312083
 30
0.0
 10
8.137349987114968
 20
3.54097249260434
 30
0.0
 10
8.18730387165109
 20
3.598161077659487
 30
0.0
 10
8.217172849508206
 20
3.672127277727801
 30
0.0
 10
8.311878524397724
 20
3.906772731228167
 30
0.0
 10
8.293309459732228
 20
4.132357583602327
 30
0.0
 10
8.166702200649295
 20
4.349605304902182
 30
0.0
 10
8.110478242330018
 20
4.446067978489177
 30
0.0
 10
8.049396699376539
 20
4.539705673778268
 30
0.0
 10
7.997237953729857
 20
4.638511012295233
 30
0.0
 10
7.937086586557395
 20
4.752405869037593
 30
0.0
 10
7.874385848725847
 20
4.86530164808923
 30
0.0
 10
7.851097003245559
 20
4.994475503308673
 30
0.0
 10
7.845171439010929
 20
5.027427841625087
 30
0.0
 10
7.836937660801182
 20
5.059983993960698
 30
0.0
 10
7.8282215692235
 20
5.099757621337908
 30
0.0
 10
7.762420245455227
 20
5.026807724437742
 30
0.0
 10
7.702199976373061
 20
4.960076224888453
 30
0.0
 10
7.641979707290893
 20
4.893344725339164
 30
0.0
  0
SPLINE
  5
3E
330
1F
100
AcDbEntity
  8
Layer 1
370
     0
100
AcDbSpline
210
0.0
220
0.0
230
1.0
 70
    11
 71
     3
 72
    50
 73
    46
 74
     0
 42
0.0000000001
 43
0.0000000001
 40
0.0
 40
0.0
 40
0.0
 40
0.0
 40
1.0
 40
1.0
 40
1.0
 40
2.0
 40
2.0
 40
2.0
 40
3.0
 40
3.0
 40
3.0
 40
4.0
 40
4.0
 40
4.0
 40
5.0
 40
5.0
 40
5.0
 40
6.0
 40
6.0
 40
6.0
 40
7.0
 40
7.0
 40
7.0
 40
8.0
 40
8.0
 40
8.0
 40
9.0
 40
9.0
 40
9.0
 40
10.0
 40
10.0
 40
10.0
 40
11.0
 40
11.0
 40
11.0
 40
12.0
 40
12.0
 40
12.0
 40
13.0
 40
13.0
 40
13.0
 40
14.0
 40
14.0
 40
14.0
 40
15.0
 40
15.0
 40
15.0
 40
15.0
 10
6.209095593065781
 20
2.462864311450256
 30
0.0
 10
6.225459796620718
 20
2.462313096172616
 30
0.0
 10
6.231385360855348
 20
2.468169758497541
 30
0.0
 10
6.236070690715287
 20
2.474405381325843
 30
0.0
 10
6.291743433756925
 20
2.548716090942682
 30
0.0
 10
6.354754230182144
 20
2.617790255421941
 30
0.0
 10
6.398610295709375
 20
2.700575899932495
 30
0.0
 10
6.424930825216683
 20
2.750254176829797
 30
0.0
 10
6.433095701516725
 20
2.803446451122055
 30
0.0
 10
6.426550020094751
 20
2.85894693938943
 30
0.0
 10
6.422209199783336
 20
2.895430500578226
 30
0.0
 10
6.403950193711512
 20
2.919408365155564
 30
0.0
 10
6.366157496238321
 20
2.928572319146329
 30
0.0
 10
6.323266057446961
 20
2.938976507511784
 30
0.0
 10
6.280030109107075
 20
2.943627386416871
 30
0.0
 10
6.236036239760435
 20
2.944316405513921
 30
0.0
 10
6.135990666868779
 20
2.945866698482283
 30
0.0
 10
6.037702092674602
 20
2.924610459338292
 30
0.0
 10
5.938448891744554
 20
2.920648599530254
 30
0.0
 10
5.866239690373718
 20
2.917823621232349
 30
0.0
 10
5.826242131789967
 20
2.884027234522049
 30
0.0
 10
5.801024032837938
 20
2.821636555284174
 30
0.0
 10
5.774152288052989
 20
2.755215114328557
 30
0.0
 10
5.745075682157481
 20
2.689723849153958
 30
0.0
 10
5.717928329733712
 20
2.623440212017751
 30
0.0
 10
5.672280814554152
 20
2.512163627844181
 30
0.0
 10
5.627391220381346
 20
2.400508083167234
 30
0.0
 10
5.581468097562966
 20
2.287302245521924
 30
0.0
 10
5.619777559358944
 20
2.281101073648474
 30
0.0
 10
5.65474527853423
 20
2.28254801375228
 30
0.0
 10
5.689850801528926
 20
2.292504339704652
 30
0.0
 10
5.817388236392874
 20
2.328677842299775
 30
0.0
 10
5.944650063618004
 20
2.366126030224441
 30
0.0
 10
6.073048772353265
 20
2.398992241153724
 30
0.0
 10
6.12413953839952
 20
2.412049153042821
 30
0.0
 10
6.148875323983614
 20
2.438679741143802
 30
0.0
 10
6.156523435960868
 20
2.49021836960314
 30
0.0
 10
6.168615721114096
 20
2.571557074009888
 30
0.0
 10
6.202343205914691
 20
2.645144313574825
 30
0.0
 10
6.250815699392157
 20
2.711427950711032
 30
0.0
 10
6.272037487581295
 20
2.74036675278713
 30
0.0
 10
6.294223902506305
 20
2.769167751043819
 30
0.0
 10
6.326780054841915
 20
2.787736815709315
 30
0.0
 10
6.255466578297244
 20
2.690791828754385
 30
0.0
 10
6.218500703740514
 20
2.582684732427245
 30
0.0
 10
6.209095593065781
 20
2.462864311450256
 30
0.0
  0
SPLINE
  5
3F
330
1F
100
AcDbEntity
  8
Layer 1
370
     0
100
AcDbSpline
210
0.0
220
0.0
230
1.0
 70
    11
 71
     3
 72
    29
 73
    25
 74
     0
 42
0.0000000001
 43
0.0000000001
 40
0.0
 40
0.0
 40
0.0
 40
0.0
 40
1.0
 40
1.0
 40
1.0
 40
2.0
 40
2.0
 40
2.0
 40
3.0
 40
3.0
 40
3.0
 40
4.0
 40
4.0
 40
4.0
 40
5.0
 40
5.0
 40
5.0
 40
6.0
 40
6.0
 40
6.0
 40
7.0
 40
7.0
 40
7.0
 40
8.0
 40
8.0
 40
8.0
 40
8.0
 10
7.158357203071521
 20
3.787021212160883
 30
0.0
 10
7.13365586844228
 20
3.776238063292051
 30
0.0
 10
7.118084036848951
 20
3.770174695238012
 30
0.0
 10
7.103166773397819
 20
3.76283664185443
 30
0.0
 10
6.975939397127543
 20
3.70010145306803
 30
0.0
 10
6.841373967473684
 20
3.666167262538319
 30
0.0
 10
6.699642739210505
 20
3.666546223041697
 30
0.0
 10
6.444154458024378
 20
3.667200791183894
 30
0.0
 10
6.18894178447707
 20
3.678362900556103
 30
0.0
 10
5.933763561884614
 20
3.688973794650673
 30
0.0
 10
5.866790905651357
 20
3.691764321993726
 30
0.0
 10
5.801127385702496
 20
3.702202961314032
 30
0.0
 10
5.725369735981851
 20
3.720703124069824
 30
0.0
 10
5.775840384840762
 20
3.661413030768674
 30
0.0
 10
5.831203069288726
 20
3.640742457857175
 30
0.0
 10
5.894317218578504
 20
3.637400715236483
 30
0.0
 10
6.109532333542061
 20
3.625997449180306
 30
0.0
 10
6.32478189946047
 20
3.614835339808097
 30
0.0
 10
6.540272622062848
 20
3.611528048142257
 30
0.0
 10
6.720278861167152
 20
3.608737520799204
 30
0.0
 10
6.895083006088729
 20
3.636987303778253
 30
0.0
 10
7.060654295109836
 20
3.710746798117452
 30
0.0
 10
7.095656465239975
 20
3.726318629710781
 30
0.0
 10
7.128247068530437
 20
3.746472438299493
 30
0.0
 10
7.158357203071521
 20
3.787021212160883
 30
0.0
  0
SPLINE
  5
40
330
1F
100
AcDbEntity
  8
Layer 1
370
     0
100
AcDbSpline
210
0.0
220
0.0
230
1.0
 70
    11
 71
     3
 72
    26
 73
    22
 74
     0
 42
0.0000000001
 43
0.0000000001
 40
0.0
 40
0.0
 40
0.0
 40
0.0
 40
1.0
 40
1.0
 40
1.0
 40
2.0
 40
2.0
 40
2.0
 40
3.0
 40
3.0
 40
3.0
 40
4.0
 40
4.0
 40
4.0
 40
5.0
 40
5.0
 40
5.0
 40
6.0
 40
6.0
 40
6.0
 40
7.0
 40
7.0
 40
7.0
 40
7.0
 10
5.515701224749547
 20
3.687354599772605
 30
0.0
 10
5.378276365842931
 20
3.59612847132319
 30
0.0
 10
5.225761988710921
 20
3.575044486953461
 30
0.0
 10
5.065737303421066
 20
3.589203829397838
 30
0.0
 10
4.933342283922914
 20
3.600882703092835
 30
0.0
 10
4.801636283521812
 20
3.621208766455809
 30
0.0
 10
4.668311088242644
 20
3.621208766455809
 30
0.0
 10
4.562546656845474
 20
3.621174315500956
 30
0.0
 10
4.462535534908671
 20
3.64232720178039
 30
0.0
 10
4.372756346563061
 20
3.701720647946098
 30
0.0
 10
4.359286023215733
 20
3.710643445252894
 30
0.0
 10
4.343679740667552
 20
3.716327852803557
 30
0.0
 10
4.329072535810092
 20
3.723493651412876
 30
0.0
 10
4.389258353937407
 20
3.649251843705742
 30
0.0
 10
4.459055988468569
 20
3.590271808998265
 30
0.0
 10
4.55682779833996
 20
3.582038030788518
 30
0.0
 10
4.768873425457087
 20
3.564226887129776
 30
0.0
 10
4.98126356212274
 20
3.55213460197655
 30
0.0
 10
5.194067110246622
 20
3.545898979148247
 30
0.0
 10
5.324395072453623
 20
3.54207492315962
 30
0.0
 10
5.427058917914068
 20
3.597127549013913
 30
0.0
 10
5.515701224749547
 20
3.687354599772605
 30
0.0
  0
SPLINE
  5
41
330
1F
100
AcDbEntity
  8
Layer 1
370
     0
100
AcDbSpline
210
0.0
220
0.0
230
1.0
 70
    11
 71
     3
 72
    26
 73
    22
 74
     0
 42
0.0000000001
 43
0.0000000001
 40
0.0
 40
0.0
 40
0.0
 40
0.0
 40
1.0
 40
1.0
 40
1.0
 40
2.0
 40
2.0
 40
2.0
 40
3.0
 40
3.0
 40
3.0
 40
4.0
 40
4.0
 40
4.0
 40
5.0
 40
5.0
 40
5.0
 40
6.0
 40
6.0
 40
6.0
 40
7.0
 40
7.0
 40
7.0
 40
7.0
 10
3.149885253118779
 20
3.802041828476573
 30
0.0
 10
3.241765949710392
 20
3.744680988647163
 30
0.0
 10
3.342879502202474
 20
3.719876301153364
 30
0.0
 10
3.448747286464202
 20
3.716775715216639
 30
0.0
 10
3.605705836772184
 20
3.712193738221257
 30
0.0
 10
3.762802190899577
 20
3.712641600634339
 30
0.0
 10
3.919726290252707
 20
3.708094074593809
 30
0.0
 10
3.999273545007126
 20
3.705785860618692
 30
0.0
 10
4.071655001152225
 20
3.728799098460161
 30
0.0
 10
4.143519692974537
 20
3.75787570435567
 30
0.0
 10
4.162605521962821
 20
3.765592718242629
 30
0.0
 10
4.172630749824897
 20
3.778374022492906
 30
0.0
 10
4.172424044095782
 20
3.801490613198933
 30
0.0
 10
4.163225639150165
 20
3.799561359727193
 30
0.0
 10
4.155198566669533
 20
3.79925130113352
 30
0.0
 10
4.148308375699034
 20
3.796322969971058
 30
0.0
 10
4.028935817135127
 20
3.745438909653918
 30
0.0
 10
3.902500812826458
 20
3.743750812866145
 30
0.0
 10
3.776031357562936
 20
3.743165146633653
 30
0.0
 10
3.565536023414171
 20
3.742200519897783
 30
0.0
 10
3.356177570775539
 20
3.754120550276747
 30
0.0
 10
3.149885253118779
 20
3.802041828476573
 30
0.0
  0
SPLINE
  5
42
330
1F
100
AcDbEntity
  8
Layer 1
370
     0
100
AcDbSpline
210
0.0
220
0.0
230
1.0
 70
    11
 71
     3
 72
    35
 73
    31
 74
     0
 42
0.0000000001
 43
0.0000000001
 40
0.0
 40
0.0
 40
0.0
 40
0.0
 40
1.0
 40
1.0
 40
1.0
 40
2.0
 40
2.0
 40
2.0
 40
3.0
 40
3.0
 40
3.0
 40
4.0
 40
4.0
 40
4.0
 40
5.0
 40
5.0
 40
5.0
 40
6.0
 40
6.0
 40
6.0
 40
7.0
 40
7.0
 40
7.0
 40
8.0
 40
8.0
 40
8.0
 40
9.0
 40
9.0
 40
9.0
 40
10.0
 40
10.0
 40
10.0
 40
10.0
 10
8.306814234034407
 20
4.098974608350256
 30
0.0
 10
8.315495874657236
 20
4.042957355760094
 30
0.0
 10
8.331860078212173
 20
3.989558375738721
 30
0.0
 10
8.334753958419784
 20
3.933541123148559
 30
0.0
 10
8.342781030900415
 20
3.777168239073069
 30
0.0
 10
8.292861597319146
 20
3.638227538152943
 30
0.0
 10
8.209249129892132
 20
3.509002006501222
 30
0.0
 10
8.12015896064357
 20
3.371335990910638
 30
0.0
 10
8.006298554856064
 20
3.252583549534076
 30
0.0
 10
7.912281899063595
 20
3.11860378611271
 30
0.0
 10
7.864946287096263
 20
3.051148816511518
 30
0.0
 10
7.815578068792632
 20
2.985106336059279
 30
0.0
 10
7.767725692502513
 20
2.91796142505176
 30
0.0
 10
7.762661402139195
 20
2.910864528352145
 30
0.0
 10
7.747640785823506
 20
2.901735025316233
 30
0.0
 10
7.761490069674211
 20
2.892054307002681
 30
0.0
 10
7.774891491111832
 20
2.882718098237654
 30
0.0
 10
7.777682018454884
 20
2.900391438076985
 30
0.0
 10
7.784606660380237
 20
2.90666151186014
 30
0.0
 10
7.789464245014439
 20
2.911002332171555
 30
0.0
 10
7.792668183815722
 20
2.917134602135299
 30
0.0
 10
7.796733396488316
 20
2.922405598227732
 30
0.0
 10
7.899431692903613
 20
3.054766166771031
 30
0.0
 10
7.993896211109164
 20
3.193569063871746
 30
0.0
 10
8.105930716289489
 20
3.318591579031463
 30
0.0
 10
8.210282658537707
 20
3.435035806432908
 30
0.0
 10
8.289175345149928
 20
3.566121689646664
 30
0.0
 10
8.332996959722307
 20
3.716810166171492
 30
0.0
 10
8.371030813879464
 20
3.847517088881871
 30
0.0
 10
8.36820583558156
 20
3.976019150481689
 30
0.0
 10
8.306814234034407
 20
4.098974608350256
 30
0.0
  0
SPLINE
  5
43
330
1F
100
AcDbEntity
  8
Layer 1
370
     0
100
AcDbSpline
210
0.0
220
0.0
230
1.0
 70
    11
 71
     3
 72
    26
 73
    22
 74
     0
 42
0.0000000001
 43
0.0000000001
 40
0.0
 40
0.0
 40
0.0
 40
0.0
 40
1.0
 40
1.0
 40
1.0
 40
2.0
 40
2.0
 40
2.0
 40
3.0
 40
3.0
 40
3.0
 40
4.0
 40
4.0
 40
4.0
 40
5.0
 40
5.0
 40
5.0
 40
6.0
 40
6.0
 40
6.0
 40
7.0
 40
7.0
 40
7.0
 40
7.0
 10
6.486770289176918
 20
2.377667100100028
 30
0.0
 10
6.597840167621372
 20
2.343112792382972
 30
0.0
 10
6.710356986169632
 20
2.31827365393432
 30
0.0
 10
6.825147567738157
 20
2.306215819735946
 30
0.0
 10
6.996368813355074
 20
2.288163519393237
 30
0.0
 10
7.162387964789263
 20
2.302391763747318
 30
0.0
 10
7.314557832372749
 20
2.392859971189979
 30
0.0
 10
7.382667370116138
 20
2.433339843141665
 30
0.0
 10
7.443576658295355
 20
2.48208794425795
 30
0.0
 10
7.489568683023441
 20
2.547544758477697
 30
0.0
 10
7.478819985109461
 20
2.542377115249822
 30
0.0
 10
7.470000540667222
 20
2.534935709001683
 30
0.0
 10
7.461525605773507
 20
2.527149793205018
 30
0.0
 10
7.343634438268258
 20
2.418870442103616
 30
0.0
 10
7.206519637955314
 20
2.353069118335344
 30
0.0
 10
7.046667207439722
 20
2.333190917385452
 30
0.0
 10
6.925882159726862
 20
2.318170301069763
 30
0.0
 10
6.80836995272499
 20
2.340287814085067
 30
0.0
 10
6.689893118987248
 20
2.355273979445903
 30
0.0
 10
6.622334796521499
 20
2.363817816249323
 30
0.0
 10
6.55450086641693
 20
2.37026014480674
 30
0.0
 10
6.486770289176918
 20
2.377667100100028
 30
0.0
  0
SPLINE
  5
44
330
1F
100
AcDbEntity
  8
Layer 1
370
     0
100
AcDbSpline
210
0.0
220
0.0
230
1.0
 70
    11
 71
     3
 72
    23
 73
    19
 74
     0
 42
0.0000000001
 43
0.0000000001
 40
0.0
 40
0.0
 40
0.0
 40
0.0
 40
1.0
 40
1.0
 40
1.0
 40
2.0
 40
2.0
 40
2.0
 40
3.0
 40
3.0
 40
3.0
 40
4.0
 40
4.0
 40
4.0
 40
5.0
 40
5.0
 40
5.0
 40
6.0
 40
6.0
 40
6.0
 40
6.0
 10
2.507547199893946
 20
3.727455511220914
 30
0.0
 10
2.561290689463844
 20
3.692281086316513
 30
0.0
 10
2.618410372609286
 20
3.676984862362004
 30
0.0
 10
2.677838269729846
 20
3.668923338926519
 30
0.0
 10
2.829904784448773
 20
3.648287216969873
 30
0.0
 10
2.976734754030121
 20
3.677329371910528
 30
0.0
 10
3.122427842101337
 20
3.715914441345327
 30
0.0
 10
3.138619790882012
 20
3.720186359747037
 30
0.0
 10
3.169866806933228
 20
3.716913519036049
 30
0.0
 10
3.165147026118435
 20
3.738789875367385
 30
0.0
 10
3.159497069522625
 20
3.764731444371317
 30
0.0
 10
3.131764050866364
 20
3.747747123629035
 30
0.0
 10
3.11474527916923
 20
3.74423312623408
 30
0.0
 10
2.95823459127433
 20
3.712090385356699
 30
0.0
 10
2.80172390337943
 20
3.682910426596633
 30
0.0
 10
2.640837944218263
 20
3.709024250374827
 30
0.0
 10
2.596568467232802
 20
3.716224499938999
 30
0.0
 10
2.551988931653669
 20
3.721357692212021
 30
0.0
 10
2.507547199893946
 20
3.727455511220914
 30
0.0
  0
HATCH
  5
45
330
1F
100
AcDbEntity
  8
Layer 1
 62
     7
100
AcDbHatch
 10
0.0
 20
0.0
 30
0.0
210
0.0
220
0.0
230
1.0
  2
SOLID
 70
     1
 71
     0
 91
        9
 92
        1
 93
        1
 72
     4
 94
        3
 73
     0
 74
     1
 95
      173
 96
      169
 40
0.0
 40
0.0
 40
0.0
 40
0.0
 40
1.0
 40
1.0
 40
1.0
 40
2.0
 40
2.0
 40
2.0
 40
3.0
 40
3.0
 40
3.0
 40
4.0
 40
4.0
 40
4.0
 40
5.0
 40
5.0
 40
5.0
 40
6.0
 40
6.0
 40
6.0
 40
7.0
 40
7.0
 40
7.0
 40
8.0
 40
8.0
 40
8.0
 40
9.0
 40
9.0
 40
9.0
 40
10.0
 40
10.0
 40
10.0
 40
11.0
 40
11.0
 40
11.0
 40
12.0
 40
12.0
 40
12.0
 40
13.0
 40
13.0
 40
13.0
 40
14.0
 40
14.0
 40
14.0
 40
15.0
 40
15.0
 40
15.0
 40
16.0
 40
16.0
 40
16.0
 40
17.0
 40
17.0
 40
17.0
 40
18.0
 40
18.0
 40
18.0
 40
19.0
 40
19.0
 40
19.0
 40
20.0
 40
20.0
 40
20.0
 40
21.0
 40
21.0
 40
21.0
 40
22.0
 40
22.0
 40
22.0
 40
23.0
 40
23.0
 40
23.0
 40
24.0
 40
24.0
 40
24.0
 40
25.0
 40
25.0
 40
25.0
 40
26.0
 40
26.0
 40
26.0
 40
27.0
 40
27.0
 40
27.0
 40
28.0
 40
28.0
 40
28.0
 40
29.0
 40
29.0
 40
29.0
 40
30.0
 40
30.0
 40
30.0
 40
31.0
 40
31.0
 40
31.0
 40
32.0
 40
32.0
 40
32.0
 40
33.0
 40
33.0
 40
33.0
 40
34.0
 40
34.0
 40
34.0
 40
35.0
 40
35.0
 40
35.0
 40
36.0
 40
36.0
 40
36.0
 40
37.0
 40
37.0
 40
37.0
 40
38.0
 40
38.0
 40
38.0
 40
39.0
 40
39.0
 40
39.0
 40
40.0
 40
40.0
 40
40.0
 40
41.0
 40
41.0
 40
41.0
 40
42.0
 40
42.0
 40
42.0
 40
43.0
 40
43.0
 40
43.0
 40
44.0
 40
44.0
 40
44.0
 40
45.0
 40
45.0
 40
45.0
 40
46.0
 40
46.0
 40
46.0
 40
47.0
 40
47.0
 40
47.0
 40
48.0
 40
48.0
 40
48.0
 40
49.0
 40
49.0
 40
49.0
 40
50.0
 40
50.0
 40
50.0
 40
51.0
 40
51.0
 40
51.0
 40
52.0
 40
52.0
 40
52.0
 40
53.0
 40
53.0
 40
53.0
 40
54.0
 40
54.0
 40
54.0
 40
55.0
 40
55.0
 40
55.0
 40
56.0
 40
56.0
 40
56.0
 40
56.0
 10
4.910363497036298
 20
3.365823838134238
 10
4.804874673277948
 20
3.36971679603257
 10
4.666967501003397
 20
3.381395669727568
 10
4.528474662496353
 20
3.382773707921667
 10
4.455576442028467
 20
3.383531628928422
 10
4.389637314440785
 20
3.414985350708753
 10
4.335411511502953
 20
3.460460611114051
 10
4.261410860479786
 20
3.522472329848549
 10
4.188891600515277
 20
3.555407442687537
 10
4.091360947327854
 20
3.513480630632046
 10
4.051707898292628
 20
3.49642740798006
 10
4.00223632712444
 20
3.500458169697802
 10
3.956933321493405
 20
3.503834363273347
 10
3.824055988627319
 20
3.513652885406309
 10
3.691006400986971
 20
3.511206867611782
 10
3.557956813346622
 20
3.510207789921059
 10
3.518200411446839
 20
3.509897731327386
 10
3.478202852863088
 20
3.513308375857784
 10
3.43865315669242
 20
3.517890352853166
 10
3.313975151081228
 20
3.532221950071806
 10
3.192569986181024
 20
3.515237629329524
 10
3.07116482128082
 20
3.48719455207959
 10
2.806030272735992
 20
3.425940754351848
 10
2.553745930351146
 20
3.471209309028031
 10
2.311607394170362
 20
3.587102321151835
 10
2.210958929568788
 20
3.635264756035628
 10
2.113014864923135
 20
3.688835990831263
 10
2.014140624496465
 20
3.740546874064863
 10
1.85880126906655
 20
3.821747774652202
 10
1.76414727060931
 20
3.949595268109823
 10
1.70775105751577
 20
4.11213487310391
 10
1.623621825765969
 20
4.354531791446089
 10
1.562333577083375
 20
4.603474391210242
 10
1.492432589687656
 20
4.849936522225016
 10
1.480133598805314
 20
4.893344725339164
 10
1.466921657619381
 20
4.936546222724196
 10
1.453003471858971
 20
4.979454886992984
 10
1.373611246401389
 20
5.224418401471673
 10
1.395642632029561
 20
5.467108152930098
 10
1.470607909788598
 20
5.708040905691045
 10
1.502750650665979
 20
5.811359319293688
 10
1.549224988761999
 20
5.908114825996929
 10
1.612631971168022
 20
5.996533201625867
 10
1.702273355694223
 20
6.121572942263009
 10
1.75014295746177
 20
6.265388453294763
 10
1.796910128674036
 20
6.40978963055901
 10
1.84639892531965
 20
6.562648517239546
 10
1.902450628864665
 20
6.712716876577028
 10
1.967028943735673
 20
6.860356443597411
 10
2.032451307000568
 20
7.009908038612106
 10
2.141126844082774
 20
7.085011120190552
 10
2.29793036509392
 20
7.112279050956305
 10
2.442607149996987
 20
7.137428247998629
 10
2.58812798329394
 20
7.147229544654165
 10
2.733821071365156
 20
7.158770614529751
 10
2.821429849555059
 20
7.165695256455104
 10
2.907936197189682
 20
7.178390433318249
 10
2.992409938488009
 20
7.20391859086395
 10
3.016353352110495
 20
7.211153291382975
 10
3.034509005317761
 20
7.222746037690841
 10
3.050804306962993
 20
7.241883543111403
 10
3.100895995318526
 20
7.300553519225208
 10
3.151297742267731
 20
7.35905124056475
 10
3.204248859876021
 20
7.415085718632339
 10
3.361310763048561
 20
7.581156546498807
 10
3.561022948328494
 20
7.650230710978067
 10
3.783610567630486
 20
7.661031085324325
 10
3.883173827154206
 20
7.665854219003675
 10
3.983150498136157
 20
7.66330484834459
 10
4.082920463388992
 20
7.662030163015047
 10
4.274192164730063
 20
7.659601370697946
 10
4.451097817897642
 20
7.703095701199225
 10
4.609778915948249
 20
7.814647893011616
 10
4.70796413727787
 20
7.883704832013448
 10
4.819895289593637
 20
7.915675318116567
 10
4.939715710570626
 20
7.918638100233881
 10
5.108456487438163
 20
7.922772214816181
 10
5.277989636267308
 20
7.938326820932084
 10
5.445490178760155
 20
7.908940156442903
 10
5.593043618393406
 20
7.883033038393824
 10
5.718996309334139
 20
7.80989366124197
 10
5.829273815816987
 20
7.709589706188922
 10
5.846981606611171
 20
7.693518335750231
 10
5.862450085339943
 20
7.67501817299444
 10
5.879710013721044
 20
7.658447263710388
 10
5.92018988567273
 20
7.619431557339933
 10
5.96501057793583
 20
7.597951386989401
 10
6.02512749415344
 20
7.598657631563877
 10
6.229938420751543
 20
7.601086423880978
 10
6.434921602123908
 20
7.602498913029931
 10
6.639215764399223
 20
7.58215562418953
 10
6.773023273046327
 20
7.568823104661613
 10
6.905004881086248
 20
7.546171601846096
 10
7.033885903189445
 20
7.506501327333444
 10
7.266498750353514
 20
7.434946694104805
 10
7.422527124880479
 20
7.283414169186091
 10
7.50486490697795
 20
7.055727808565929
 10
7.564947372240707
 20
6.889622529744607
 10
7.643771156943223
 20
6.733749184514479
 10
7.750810273669936
 20
6.592862004645187
 10
7.826188962887202
 20
6.493729382057123
 10
7.876108396468473
 20
6.383813610600226
 10
7.898639320942006
 20
6.26113376037048
 10
7.932263452878044
 20
6.077871906032615
 10
8.002164440273765
 20
5.904101289756613
 10
8.042368704586629
 20
5.722803139845341
 10
8.085983613429892
 20
5.526105413115001
 10
8.100074053964564
 20
5.325755885170297
 10
8.08842963122442
 20
5.124390054057444
 10
8.078473305272048
 20
4.95246256386605
 10
8.129908580866827
 20
4.799086912862728
 10
8.224338648117525
 20
4.658561468019387
 10
8.293275008777375
 20
4.556069877333204
 10
8.375991751378224
 20
4.463672416418804
 10
8.44089735032033
 20
4.357804632157077
 10
8.537256671042769
 20
4.200639376119979
 10
8.608673500451998
 20
4.036101615744447
 10
8.595237628059524
 20
3.847723794610985
 10
8.582697480493215
 20
3.672092826772949
 10
8.519032115925796
 20
3.512171494347651
 10
8.42780598747638
 20
3.362482095513546
 10
8.366414385929229
 20
3.261781954479693
 10
8.28080376312077
 20
3.180581053892355
 10
8.209455835621247
 20
3.088045789158544
 10
8.069033743642462
 20
2.905869139898532
 10
7.93550184263418
 20
2.718352592636384
 10
7.788602971143127
 20
2.54110242992028
 10
7.724076332704397
 20
2.463277722908486
 10
7.660032007633602
 20
2.384729545844789
 10
7.586272513294404
 20
2.31537977372671
 10
7.391624618377787
 20
2.132445203459944
 10
7.156014538141552
 20
2.077151420921684
 10
6.896874455741059
 20
2.099716796350071
 10
6.736333006128416
 20
2.113669433065332
 10
6.578409829084563
 20
2.142918293735104
 10
6.422657062196419
 20
2.184121635738692
 10
6.282269421172487
 20
2.22132866697939
 10
6.14425889603338
 20
2.215230847970498
 10
6.007316350494698
 20
2.16507025770526
 10
5.910061304946096
 20
2.129482421342629
 10
5.81070475115149
 20
2.100026854943743
 10
5.709108885291473
 20
2.079046223438572
 10
5.633351235570829
 20
2.063405489935537
 10
5.563760306768781
 20
2.080837673090902
 10
5.500094942201365
 20
2.122626681326982
 10
5.446730413134845
 20
2.15762885145712
 10
5.394227157939637
 20
2.193905706916801
 10
5.342033961338102
 20
2.230595973834712
 10
5.192792424917079
 20
2.33549913136057
 10
5.113245170162661
 20
2.478401692088733
 10
5.107767468341113
 20
2.661715222858877
 10
5.104081216171896
 20
2.785497503643903
 10
5.123752711392672
 20
2.90569688512427
 10
5.166816404958295
 20
3.02138319151896
 10
5.186556802088777
 20
3.074506563901512
 10
5.226072047304593
 20
3.115641003995395
 10
5.266724174030541
 20
3.154363877249603
 10
5.295594074196934
 20
3.18189019017675
 10
5.325979816376838
 20
3.207831759180681
 10
5.355228677046609
 20
3.234979111604449
 10
5.372764213066531
 20
3.251239962294829
 10
5.390850964364092
 20
3.267604165849765
 10
5.401117348910137
 20
3.289721678865069
 10
5.416654729548614
 20
3.323345810801108
 10
5.398843585889872
 20
3.351526691870451
 10
5.361946613242846
 20
3.351319986141336
 10
5.222144638451408
 20
3.350562065134581
 10
5.08261827129879
 20
3.357142197511409
 10
4.910363497036298
 20
3.365823838134238
 97
        0
 92
        1
 93
        1
 72
     4
 94
        3
 73
     0
 74
     1
 95
      623
 96
      619
 40
0.0
 40
0.0
 40
0.0
 40
0.0
 40
1.0
 40
1.0
 40
1.0
 40
2.0
 40
2.0
 40
2.0
 40
3.0
 40
3.0
 40
3.0
 40
4.0
 40
4.0
 40
4.0
 40
5.0
 40
5.0
 40
5.0
 40
6.0
 40
6.0
 40
6.0
 40
7.0
 40
7.0
 40
7.0
 40
8.0
 40
8.0
 40
8.0
 40
9.0
 40
9.0
 40
9.0
 40
10.0
 40
10.0
 40
10.0
 40
11.0
 40
11.0
 40
11.0
 40
12.0
 40
12.0
 40
12.0
 40
13.0
 40
13.0
 40
13.0
 40
14.0
 40
14.0
 40
14.0
 40
15.0
 40
15.0
 40
15.0
 40
16.0
 40
16.0
 40
16.0
 40
17.0
 40
17.0
 40
17.0
 40
18.0
 40
18.0
 40
18.0
 40
19.0
 40
19.0
 40
19.0
 40
20.0
 40
20.0
 40
20.0
 40
21.0
 40
21.0
 40
21.0
 40
22.0
 40
22.0
 40
22.0
 40
23.0
 40
23.0
 40
23.0
 40
24.0
 40
24.0
 40
24.0
 40
25.0
 40
25.0
 40
25.0
 40
26.0
 40
26.0
 40
26.0
 40
27.0
 40
27.0
 40
27.0
 40
28.0
 40
28.0
 40
28.0
 40
29.0
 40
29.0
 40
29.0
 40
30.0
 40
30.0
 40
30.0
 40
31.0
 40
31.0
 40
31.0
 40
32.0
 40
32.0
 40
32.0
 40
33.0
 40
33.0
 40
33.0
 40
34.0
 40
34.0
 40
34.0
 40
35.0
 40
35.0
 40
35.0
 40
36.0
 40
36.0
 40
36.0
 40
37.0
 40
37.0
 40
37.0
 40
38.0
 40
38.0
 40
38.0
 40
39.0
 40
39.0
 40
39.0
 40
40.0
 40
40.0
 40
40.0
 40
41.0
 40
41.0
 40
41.0
 40
42.0
 40
42.0
 40
42.0
 40
43.0
 40
43.0
 40
43.0
 40
44.0
 40
44.0
 40
44.0
 40
45.0
 40
45.0
 40
45.0
 40
46.0
 40
46.0
 40
46.0
 40
47.0
 40
47.0
 40
47.0
 40
48.0
 40
48.0
 40
48.0
 40
49.0
 40
49.0
 40
49.0
 40
50.0
 40
50.0
 40
50.0
 40
51.0
 40
51.0
 40
51.0
 40
52.0
 40
52.0
 40
52.0
 40
53.0
 40
53.0
 40
53.0
 40
54.0
 40
54.0
 40
54.0
 40
55.0
 40
55.0
 40
55.0
 40
56.0
 40
56.0
 40
56.0
 40
57.0
 40
57.0
 40
57.0
 40
58.0
 40
58.0
 40
58.0
 40
59.0
 40
59.0
 40
59.0
 40
60.0
 40
60.0
 40
60.0
 40
61.0
 40
61.0
 40
61.0
 40
62.0
 40
62.0
 40
62.0
 40
63.0
 40
63.0
 40
63.0
 40
64.0
 40
64.0
 40
64.0
 40
65.0
 40
65.0
 40
65.0
 40
66.0
 40
66.0
 40
66.0
 40
67.0
 40
67.0
 40
67.0
 40
68.0
 40
68.0
 40
68.0
 40
69.0
 40
69.0
 40
69.0
 40
70.0
 40
70.0
 40
70.0
 40
71.0
 40
71.0
 40
71.0
 40
72.0
 40
72.0
 40
72.0
 40
73.0
 40
73.0
 40
73.0
 40
74.0
 40
74.0
 40
74.0
 40
75.0
 40
75.0
 40
75.0
 40
76.0
 40
76.0
 40
76.0
 40
77.0
 40
77.0
 40
77.0
 40
78.0
 40
78.0
 40
78.0
 40
79.0
 40
79.0
 40
79.0
 40
80.0
 40
80.0
 40
80.0
 40
81.0
 40
81.0
 40
81.0
 40
82.0
 40
82.0
 40
82.0
 40
83.0
 40
83.0
 40
83.0
 40
84.0
 40
84.0
 40
84.0
 40
85.0
 40
85.0
 40
85.0
 40
86.0
 40
86.0
 40
86.0
 40
87.0
 40
87.0
 40
87.0
 40
88.0
 40
88.0
 40
88.0
 40
89.0
 40
89.0
 40
89.0
 40
90.0
 40
90.0
 40
90.0
 40
91.0
 40
91.0
 40
91.0
 40
92.0
 40
92.0
 40
92.0
 40
93.0
 40
93.0
 40
93.0
 40
94.0
 40
94.0
 40
94.0
 40
95.0
 40
95.0
 40
95.0
 40
96.0
 40
96.0
 40
96.0
 40
97.0
 40
97.0
 40
97.0
 40
98.0
 40
98.0
 40
98.0
 40
99.0
 40
99.0
 40
99.0
 40
100.0
 40
100.0
 40
100.0
 40
101.0
 40
101.0
 40
101.0
 40
102.0
 40
102.0
 40
102.0
 40
103.0
 40
103.0
 40
103.0
 40
104.0
 40
104.0
 40
104.0
 40
105.0
 40
105.0
 40
105.0
 40
106.0
 40
106.0
 40
106.0
 40
107.0
 40
107.0
 40
107.0
 40
108.0
 40
108.0
 40
108.0
 40
109.0
 40
109.0
 40
109.0
 40
110.0
 40
110.0
 40
110.0
 40
111.0
 40
111.0
 40
111.0
 40
112.0
 40
112.0
 40
112.0
 40
113.0
 40
113.0
 40
113.0
 40
114.0
 40
114.0
 40
114.0
 40
115.0
 40
115.0
 40
115.0
 40
116.0
 40
116.0
 40
116.0
 40
117.0
 40
117.0
 40
117.0
 40
118.0
 40
118.0
 40
118.0
 40
119.0
 40
119.0
 40
119.0
 40
120.0
 40
120.0
 40
120.0
 40
121.0
 40
121.0
 40
121.0
 40
122.0
 40
122.0
 40
122.0
 40
123.0
 40
123.0
 40
123.0
 40
124.0
 40
124.0
 40
124.0
 40
125.0
 40
125.0
 40
125.0
 40
126.0
 40
126.0
 40
126.0
 40
127.0
 40
127.0
 40
127.0
 40
128.0
 40
128.0
 40
128.0
 40
129.0
 40
129.0
 40
129.0
 40
130.0
 40
130.0
 40
130.0
 40
131.0
 40
131.0
 40
131.0
 40
132.0
 40
132.0
 40
132.0
 40
133.0
 40
133.0
 40
133.0
 40
134.0
 40
134.0
 40
134.0
 40
135.0
 40
135.0
 40
135.0
 40
136.0
 40
136.0
 40
136.0
 40
137.0
 40
137.0
 40
137.0
 40
138.0
 40
138.0
 40
138.0
 40
139.0
 40
139.0
 40
139.0
 40
140.0
 40
140.0
 40
140.0
 40
141.0
 40
141.0
 40
141.0
 40
142.0
 40
142.0
 40
142.0
 40
143.0
 40
143.0
 40
143.0
 40
144.0
 40
144.0
 40
144.0
 40
145.0
 40
145.0
 40
145.0
 40
146.0
 40
146.0
 40
146.0
 40
147.0
 40
147.0
 40
147.0
 40
148.0
 40
148.0
 40
148.0
 40
149.0
 40
149.0
 40
149.0
 40
150.0
 40
150.0
 40
150.0
 40
151.0
 40
151.0
 40
151.0
 40
152.0
 40
152.0
 40
152.0
 40
153.0
 40
153.0
 40
153.0
 40
154.0
 40
154.0
 40
154.0
 40
155.0
 40
155.0
 40
155.0
 40
156.0
 40
156.0
 40
156.0
 40
157.0
 40
157.0
 40
157.0
 40
158.0
 40
158.0
 40
158.0
 40
159.0
 40
159.0
 40
159.0
 40
160.0
 40
160.0
 40
160.0
 40
161.0
 40
161.0
 40
161.0
 40
162.0
 40
162.0
 40
162.0
 40
163.0
 40
163.0
 40
163.0
 40
164.0
 40
164.0
 40
164.0
 40
165.0
 40
165.0
 40
165.0
 40
166.0
 40
166.0
 40
166.0
 40
167.0
 40
167.0
 40
167.0
 40
168.0
 40
168.0
 40
168.0
 40
169.0
 40
169.0
 40
169.0
 40
170.0
 40
170.0
 40
170.0
 40
171.0
 40
171.0
 40
171.0
 40
172.0
 40
172.0
 40
172.0
 40
173.0
 40
173.0
 40
173.0
 40
174.0
 40
174.0
 40
174.0
 40
175.0
 40
175.0
 40
175.0
 40
176.0
 40
176.0
 40
176.0
 40
177.0
 40
177.0
 40
177.0
 40
178.0
 40
178.0
 40
178.0
 40
179.0
 40
179.0
 40
179.0
 40
180.0
 40
180.0
 40
180.0
 40
181.0
 40
181.0
 40
181.0
 40
182.0
 40
182.0
 40
182.0
 40
183.0
 40
183.0
 40
183.0
 40
184.0
 40
184.0
 40
184.0
 40
185.0
 40
185.0
 40
185.0
 40
186.0
 40
186.0
 40
186.0
 40
187.0
 40
187.0
 40
187.0
 40
188.0
 40
188.0
 40
188.0
 40
189.0
 40
189.0
 40
189.0
 40
190.0
 40
190.0
 40
190.0
 40
191.0
 40
191.0
 40
191.0
 40
192.0
 40
192.0
 40
192.0
 40
193.0
 40
193.0
 40
193.0
 40
194.0
 40
194.0
 40
194.0
 40
195.0
 40
195.0
 40
195.0
 40
196.0
 40
196.0
 40
196.0
 40
197.0
 40
197.0
 40
197.0
 40
198.0
 40
198.0
 40
198.0
 40
199.0
 40
199.0
 40
199.0
 40
200.0
 40
200.0
 40
200.0
 40
201.0
 40
201.0
 40
201.0
 40
202.0
 40
202.0
 40
202.0
 40
203.0
 40
203.0
 40
203.0
 40
204.0
 40
204.0
 40
204.0
 40
205.0
 40
205.0
 40
205.0
 40
206.0
 40
206.0
 40
206.0
 40
206.0
 10
7.641979707290893
 20
4.893344725339164
 10
7.638948023263874
 20
4.895239527856051
 10
7.635916339236854
 20
4.897134330372938
 10
7.632884655209834
 20
4.899029132889826
 10
7.639258081857546
 20
4.909915634623215
 10
7.645493704685848
 20
4.920871038266309
 10
7.652004935152971
 20
4.931654187135142
 10
7.682941892610514
 20
4.982831080568528
 10
7.71598035831406
 20
5.032871092491781
 10
7.744574650841634
 20
5.085305445777284
 10
7.822089299259755
 20
5.22741563454384
 10
7.870768498466335
 20
5.378086885591242
 10
7.871733125202205
 20
5.541625568276052
 10
7.87207763475073
 20
5.597677271821066
 10
7.858951820951928
 20
5.649026420028715
 10
7.811237248481218
 20
5.692141790026617
 10
7.780265840068822
 20
5.603826767262237
 10
7.750603567940821
 20
5.519180771189649
 10
7.720872393903115
 20
5.434552000594486
 10
7.713844399113205
 20
5.414535995825185
 10
7.706747502413591
 20
5.394519991055883
 10
7.699099390436336
 20
5.374745142970549
 10
7.697273489829153
 20
5.370094264065462
 10
7.693793943389051
 20
5.364926620837587
 10
7.687213811012223
 20
5.366425237373671
 10
7.677980955111754
 20
5.368509520142247
 10
7.679048934712181
 20
5.375813122570977
 10
7.680909286274217
 20
5.382100421831558
 10
7.684009872210941
 20
5.392229002558192
 10
7.688075084883536
 20
5.402116426600859
 10
7.691864689917311
 20
5.412038301598379
 10
7.740819496762711
 20
5.540299206514231
 10
7.764280597017263
 20
5.673038735560906
 10
7.759939776705848
 20
5.810308565170686
 10
7.752877330961086
 20
6.031707626530267
 10
7.678876679937919
 20
6.23431369201781
 10
7.583757593590171
 20
6.430684134677051
 10
7.553061792816595
 20
6.494056666128222
 10
7.519954425203344
 20
6.556240639636981
 10
7.487604978596848
 20
6.618803573649118
 10
7.483539765924253
 20
6.626675616832914
 10
7.480335827122971
 20
6.637441540224319
 10
7.468450247698859
 20
6.636184080372203
 10
7.456013452997107
 20
6.634874944087809
 10
7.458493921746487
 20
6.62247260034091
 10
7.45425645429963
 20
6.614910615750786
 10
7.44612602895444
 20
6.600492891145016
 10
7.454738767667565
 20
6.57939168129786
 10
7.43606635013751
 20
6.568832463635569
 10
7.424284123577956
 20
6.655183781973356
 10
7.40957356585594
 20
6.74044989523329
 10
7.40158094433016
 20
6.826336125680569
 10
7.377603079752821
 20
7.083478052699616
 10
7.242383081956765
 20
7.252563339115678
 10
7.003396808144983
 20
7.344754094300963
 10
6.883886445761667
 20
7.390849471893606
 10
6.760896536938247
 20
7.411278888121138
 10
6.633428003984004
 20
7.414706758128962
 10
6.443327635107917
 20
7.419874401356837
 10
6.253399521006094
 20
7.429210610121864
 10
6.065676268014831
 20
7.46343763376782
 10
6.043386500225264
 20
7.467502846440415
 10
6.021579045803633
 20
7.475943330379278
 10
5.989608559700514
 20
7.472170950822929
 10
6.016273598756348
 20
7.451173093840331
 10
6.036255152570797
 20
7.435446232950166
 10
6.05878607704433
 20
7.417721216678555
 10
6.040423718107949
 20
7.415068493154913
 10
6.029778373058527
 20
7.424249672623104
 10
6.018030597453826
 20
7.429279512031568
 10
5.895247394359521
 20
7.482023923910743
 10
5.783488496818016
 20
7.553733586436219
 10
5.673279892244874
 20
7.62849215846614
 10
5.601828611880793
 20
7.676947426466179
 10
5.532272134033598
 20
7.729071721158009
 10
5.453000486918
 20
7.76465955752064
 10
5.315127765598301
 20
7.826533472435727
 10
5.171088323360006
 20
7.816732175780191
 10
5.025498588153347
 20
7.803141274090881
 10
4.883801810845021
 20
7.789877656472669
 10
4.766358505752854
 20
7.733653698153391
 10
4.665486109944739
 20
7.634124889584524
 10
4.561857637748425
 20
7.531874455582309
 10
4.440107963299694
 20
7.452154946053628
 10
4.319943032774181
 20
7.370988496421141
 10
4.311226941196498
 20
7.365097383141364
 10
4.300891654740749
 20
7.350266247077363
 10
4.289901800142802
 20
7.365648598419004
 10
4.278670788860888
 20
7.38137545930917
 10
4.296860893023006
 20
7.385940210827125
 10
4.305025769323048
 20
7.391986353403739
 10
4.370344779723386
 20
7.440079886377827
 10
4.436766220679003
 20
7.48672647924811
 10
4.501465113891994
 20
7.535629609661231
 10
4.515245495832994
 20
7.546033798026685
 10
4.547353785755522
 20
7.552820636132628
 10
4.535020343918328
 20
7.574662541509111
 10
4.523754881681561
 20
7.594575193413855
 10
4.498881292278057
 20
7.574920923670505
 10
4.481242403393578
 20
7.568805879184187
 10
4.288971624361785
 20
7.501884899383208
 10
4.091567653056969
 20
7.466279837543151
 10
3.889133842343688
 20
7.49742350072981
 10
3.727145452627241
 20
7.522365992043019
 10
3.591098631914725
 20
7.477304143095951
 10
3.464766980470614
 20
7.380703665689546
 10
3.307360567749548
 20
7.260280353002638
 10
3.148059352511596
 20
7.142303058110257
 10
2.989240450641578
 20
7.023671195075678
 10
2.961231824346497
 20
7.002759465480213
 10
2.934876843884336
 20
6.979005532109415
 10
2.897359754049965
 20
6.969652097866962
 10
2.931431748399086
 20
7.007151962223906
 10
2.96553819370306
 20
7.044669052058277
 10
2.999610188052181
 20
7.082186141892647
 10
2.978870713230977
 20
7.084528806822617
 10
2.963540038321615
 20
7.080997583950237
 10
2.948416069141368
 20
7.0767084400711
 10
2.807752820478617
 20
7.037089841990727
 10
2.667089571815866
 20
6.997729626071748
 10
2.521706542338323
 20
6.978454316831775
 10
2.461107312752778
 20
6.970427244351143
 10
2.400904269148038
 20
6.958024900604244
 10
2.340081108355952
 20
6.953339570744303
 10
2.21195800725951
 20
6.943486597656489
 10
2.131807860795173
 20
6.876014402577871
 10
2.080854898568328
 20
6.760448674525165
 10
2.021203070241227
 20
6.62517700029683
 10
1.999016655316218
 20
6.480431313484059
 10
1.963359917043882
 20
6.339061820246831
 10
1.945049234539779
 20
6.266439207417765
 10
1.93002861822409
 20
6.192972546194812
 10
1.91354383632717
 20
6.119919296430089
 10
1.900883110418876
 20
6.158883326368265
 10
1.913767767533711
 20
6.19812296394526
 10
1.903311902735978
 20
6.240084226955603
 10
1.842988280789253
 20
6.147307805537825
 10
1.795635443344494
 20
6.054341903868359
 10
1.763854437493064
 20
5.95334892971826
 10
1.729196776911451
 20
5.843140325145117
 10
1.690887315115472
 20
5.73410305303696
 10
1.655781792120777
 20
5.624015026805801
 10
1.630374212917059
 20
5.544381644664251
 10
1.604363742003423
 20
5.464731037045275
 10
1.588085665835617
 20
5.382513833289788
 10
1.564848496787607
 20
5.265311684881588
 10
1.59032497790103
 20
5.155016952921315
 10
1.625878363308808
 20
5.042500134373055
 10
1.703065727655831
 20
4.798225638991416
 10
1.773156195303239
 20
4.551660155112085
 10
1.842195908827645
 20
4.304922416458491
 10
1.89549153598446
 20
4.114408636124176
 10
2.010316568507837
 20
3.989179415235344
 10
2.203879258346599
 20
3.939053275924959
 10
2.220415716675799
 20
3.934781357523249
 10
2.239656574960919
 20
3.931956379225344
 10
2.258656276562072
 20
3.906221515950528
 10
2.189203151579435
 20
3.925720756397042
 10
2.129792479936302
 20
3.942429469500504
 10
2.063801675916341
 20
3.960964083211147
 10
2.08309421063374
 20
3.932473143548131
 10
2.08240519153669
 20
3.931164007263737
 10
2.101456569570122
 20
3.921104328446807
 10
2.305457898729191
 20
3.813238388803635
 10
2.515195311871201
 20
3.794910480822105
 10
2.731168347841513
 20
3.882484808057156
 10
2.756834309206625
 20
3.892888996422611
 10
2.782190211978063
 20
3.942084959951978
 10
2.777746038802091
 20
3.968646646143255
 10
2.773060708942151
 20
3.996689723393188
 10
2.751287705475372
 20
4.005715873564543
 10
2.727792154265968
 20
3.988766003777114
 10
2.715975476751562
 20
3.980222166973694
 10
2.70395209350804
 20
3.971437173486307
 10
2.69403021851052
 20
3.96086073034659
 10
2.652895778416637
 20
3.916935762909655
 10
2.601150444228185
 20
3.894990504668613
 10
2.542859428617757
 20
3.887721353194736
 10
2.506685926022634
 20
3.883208278109059
 10
2.470305717698396
 20
3.883173827154206
 10
2.426708034332559
 20
3.908977592338728
 10
2.459557019784416
 20
3.908977592338728
 10
2.480813258928408
 20
3.907668456054333
 10
2.501897243298137
 20
3.909184298067843
 10
2.651758896906505
 20
3.919864094072117
 10
2.735026854784993
 20
4.017739256808065
 10
2.712978243679394
 20
4.157954643057733
 10
2.709498697239292
 20
4.180037705118185
 10
2.702263996720267
 20
4.201845159539817
 10
2.694512531878455
 20
4.222929143909545
 10
2.641148002811935
 20
4.368587781025909
 10
2.610142143444687
 20
4.519310708505588
 10
2.594535860896505
 20
4.673168672876846
 10
2.566871744149949
 20
4.945882431489223
 10
2.586715494144987
 20
5.218079425778813
 10
2.605353460720189
 20
5.490259194590976
 10
2.618548176428696
 20
5.682650551964754
 10
2.640148925121212
 20
5.874680174312579
 10
2.629124619568413
 20
6.068105060331932
 10
2.628263345697101
 20
6.08345296071872
 10
2.624198133024506
 20
6.100299477641592
 10
2.63584255576465
 20
6.124397920560914
 10
2.646487900814072
 20
6.074151202908545
 10
2.655135090482049
 20
6.033275144976056
 10
2.666297199854259
 20
5.980547958574307
 10
2.711324597846474
 20
6.095441893007389
 10
2.751873371707865
 20
6.198915335906868
 10
2.795178221957455
 20
6.309382322641404
 10
2.804583332632187
 20
6.285094399470393
 10
2.799415689404313
 20
6.271296792051967
 10
2.79621175060303
 20
6.257051322220459
 10
2.768168673353097
 20
6.132752277112645
 10
2.727826605220821
 20
6.011174857438178
 10
2.713253851318214
 20
5.883895804735623
 10
2.691515298806288
 20
5.693571504652995
 10
2.672016058359774
 20
5.502937145976696
 10
2.660406086574481
 20
5.311786022977609
 10
2.65003634916388
 20
5.140650904747823
 10
2.632983126511893
 20
4.969481335563185
 10
2.648761663834337
 20
4.797571070849218
 10
2.662300889091369
 20
4.650431042674198
 10
2.691997612174223
 20
4.505668130384
 10
2.709877657742669
 20
4.359182670351176
 10
2.725483940290851
 20
4.231231824028997
 10
2.798898925081525
 20
4.152580294100743
 10
2.923197970189339
 20
4.120713160862183
 10
3.053146971892963
 20
4.087433538474669
 10
3.183061522641734
 20
4.053981661312894
 10
3.313044975300211
 20
4.021046548473905
 10
3.390318467034365
 20
4.001478406117686
 10
3.467833115452486
 20
3.983047145271599
 10
3.545003254322082
 20
3.963031140502297
 10
3.554994031229307
 20
3.96044731888836
 10
3.573321939210836
 20
3.962445474269805
 10
3.572288410565261
 20
3.946666936947361
 10
3.570979274280866
 20
3.927064343636289
 10
3.552203503886254
 20
3.935022514207216
 10
3.54028347350729
 20
3.933196613600034
 10
3.535081379324563
 20
3.932369790683574
 10
3.529672579412721
 20
3.933127711690329
 10
3.524332681410583
 20
3.933093260735476
 10
3.403547633697724
 20
3.931680771586524
 10
3.286104328605557
 20
3.953453775053303
 10
3.170693629849688
 20
3.986526691711701
 10
3.07281846711374
 20
4.014569768961635
 10
2.975873480158809
 20
4.045885686922556
 10
2.877826062648599
 20
4.07599582146364
 10
2.878583983655354
 20
4.065040417820545
 10
2.886611056135986
 20
4.061733126154706
 10
2.892364365596353
 20
4.057185600114176
 10
2.978388399863042
 20
3.989007160461081
 10
3.075643445411644
 20
3.944220919152833
 10
3.183302679325702
 20
3.924721678706319
 10
3.363171114610596
 20
3.892131075415856
 10
3.545554469599722
 20
3.884827472987126
 10
3.727662216950029
 20
3.881657985140696
 10
3.85399386839414
 20
3.879487574984989
 10
3.996861978167451
 20
3.982461479039106
 10
4.036928438660906
 20
4.092980142205922
 10
4.039960122687926
 20
4.101282822325373
 10
4.047642685620033
 20
4.111514755916565
 10
4.038478731629269
 20
4.11861165261618
 10
4.028901366180274
 20
4.126018607909467
 10
4.021838920435512
 20
4.114925400446963
 10
4.015120984239275
 20
4.10965440435453
 10
3.973331976003195
 20
4.076753742470395
 10
3.932507594502984
 20
4.042475042392159
 10
3.886308864045783
 20
4.015672199516915
 10
3.835597058502906
 20
3.986216633118029
 10
3.782025823707271
 20
3.965856118800202
 10
3.710367837614074
 20
3.964340276786692
 10
3.791775443930528
 20
4.015534395697505
 10
3.86239990137815
 20
4.061974282838673
 10
3.935056965162069
 20
4.105037976404295
 10
4.008024087539661
 20
4.148273924744181
 10
4.036618380067234
 20
4.208700899555463
 10
4.033621146995067
 20
4.294070365679954
 10
4.020081921738035
 20
4.681402451086593
 10
4.029624836232177
 20
5.068097193828462
 10
4.068106552802417
 20
5.454189044860411
 10
4.087984753752309
 20
5.653350014862704
 10
4.080887857052694
 20
5.853113876574915
 10
4.049330782407806
 20
6.051103514112223
 10
4.026662054114862
 20
6.193179251923927
 10
4.011641437799173
 20
6.335737303103565
 10
4.00843749899789
 20
6.479535588657893
 10
4.008127440404218
 20
6.492747529843826
 10
4.003132051950606
 20
6.507354734701286
 10
4.02001301982833
 20
6.526888426102652
 10
4.046057941696819
 20
6.373874510125281
 10
4.062215439522641
 20
6.225804306169243
 10
4.129015840981634
 20
6.080283472872289
 10
4.154854057121009
 20
6.143001436181263
 10
4.177453883504247
 20
6.195349662079634
 10
4.198124456415746
 20
6.248404132552482
 10
4.235951604843789
 20
6.345504148804248
 10
4.256312119161616
 20
6.446652152251183
 10
4.264304740687396
 20
6.550745712338007
 10
4.277775064034723
 20
6.518000079750708
 10
4.278877494590002
 20
6.48423814399526
 10
4.278808592680297
 20
6.450217826078418
 10
4.27856743599633
 20
6.347605657050251
 10
4.247354870899967
 20
6.251160208940682
 10
4.219242891740328
 20
6.154249672940604
 10
4.171356064495355
 20
5.989384628493973
 10
4.123503688205234
 20
5.823899466859997
 10
4.120437553223362
 20
5.651110702797292
 10
4.11254828456214
 20
5.202714299914599
 10
4.10868977761866
 20
4.754231769644775
 10
4.093772514167529
 20
4.306024847013771
 10
4.089982909133754
 20
4.191888833587444
 10
4.139282225527679
 20
4.115476615724603
 10
4.234539115694838
 20
4.057667913482111
 10
4.338615450304235
 20
3.994588215147186
 10
4.455989853486697
 20
3.987146808899046
 10
4.570160317867876
 20
3.964822590154627
 10
4.683572861242301
 20
3.942705077139323
 10
4.799086912862728
 20
3.931853026360786
 10
4.91081135944938
 20
3.900778265083833
 10
4.921594508318212
 20
3.897746581056813
 10
4.936546222724196
 20
3.898642305882978
 10
4.934031303019964
 20
3.880452201720859
 10
4.931447481406027
 20
3.861641980371395
 10
4.916426865090338
 20
3.867877603199697
 10
4.90585042195062
 20
3.867980956064255
 10
4.820687661555245
 20
3.86873887707101
 10
4.735490450205016
 20
3.868911131845272
 10
4.650362140764493
 20
3.871563855368914
 10
4.468151040549628
 20
3.877179361009872
 10
4.293829208995986
 20
3.910975747720173
 10
4.141177028044567
 20
4.019220647866723
 10
4.140350205128106
 20
4.019806314099215
 10
4.137284070146234
 20
4.017222492485278
 10
4.135285914764789
 20
4.016120061929997
 10
4.167049695138793
 20
3.926650932178059
 10
4.259274901278931
 20
3.849377440443905
 10
4.370999347865583
 20
3.828534612758144
 10
4.654289549617677
 20
3.775721298969264
 10
4.939336750067249
 20
3.749641926145923
 10
5.228208006505447
 20
3.771139321973882
 10
5.398567978251053
 20
3.783782822404748
 10
5.513565265548691
 20
3.874836696079901
 10
5.601863062835645
 20
4.010676811063303
 10
5.610372448684212
 20
4.023768173907252
 10
5.623015949115079
 20
4.038134222080744
 10
5.617193737745007
 20
4.061423067561033
 10
5.55518201901051
 20
3.976329209075362
 10
5.482869464775115
 20
3.912663844507945
 10
5.377828503429848
 20
3.890821939131461
 10
5.247948403635929
 20
3.863812390527102
 10
5.12165120314667
 20
3.861607529416542
 10
5.082377114614822
 20
3.893853623158481
 10
5.105734862004816
 20
3.911010198675025
 10
5.130505098543762
 20
3.920828720807987
 10
5.158892685342221
 20
3.925376246848517
 10
5.217941621959403
 20
3.934815808478101
 10
5.279023164912883
 20
3.929682616205079
 10
5.336590710471407
 20
3.948561739464248
 10
5.522625866674899
 20
4.009436576688612
 10
5.65612331672833
 20
4.11916286789382
 10
5.686371255088823
 20
4.325351832686023
 10
5.716825899178432
 20
4.533091090446588
 10
5.749588757243158
 20
4.740485838658628
 10
5.778837617912929
 20
4.948397351193456
 10
5.791239961659828
 20
5.036281737022179
 10
5.810187986828702
 20
5.123563231140984
 10
5.802470972941743
 20
5.213859183809382
 10
5.786761337529004
 20
5.398137341315396
 10
5.777735187357649
 20
5.582846135757066
 10
5.771051702116265
 20
5.767692734018146
 10
5.76078531757022
 20
6.052016464415815
 10
5.75623779152969
 20
6.336994762955682
 10
5.692193466458896
 20
6.616443683241722
 10
5.689092880522171
 20
6.629965683021328
 10
5.677414006827174
 20
6.645761445821198
 10
5.697671168280443
 20
6.666914332100632
 10
5.75568657625205
 20
6.469734292002357
 10
5.812220593165
 20
6.277808022519089
 10
5.868789061032802
 20
6.085675047306705
 10
5.882879501567474
 20
6.090463730031203
 10
5.884670951219804
 20
6.100730114577248
 10
5.889184026305482
 20
6.108447128464207
 10
5.950437824033224
 20
6.212799070712425
 10
6.011347112212441
 20
6.317306042257479
 10
6.072394204211068
 20
6.421795788325106
 10
6.077079534071007
 20
6.429822860805738
 10
6.081454805337275
 20
6.438091089970338
 10
6.086794703339412
 20
6.445687525515313
 10
6.089550779727612
 20
6.449580483413646
 10
6.092823620438599
 20
6.454920381415783
 10
6.099576007589689
 20
6.451526962362812
 10
6.106776257153861
 20
6.447892386625874
 10
6.108602157761044
 20
6.441932371436391
 10
6.106018336147106
 20
6.434990504033613
 10
6.103262259758906
 20
6.427549097785473
 10
6.099748262363951
 20
6.420331622743875
 10
6.095993108285029
 20
6.413320853431392
 10
5.91646918254866
 20
6.079663355684945
 10
5.843123099667691
 20
5.722424179341963
 10
5.853079425620063
 20
5.34516899822968
 10
5.859452852267776
 20
5.104287921901011
 10
5.854388561904458
 20
4.863303492707785
 10
5.819696450367992
 20
4.624317218896004
 10
5.800817327108823
 20
4.494195962418117
 10
5.774083386143285
 20
4.365246038405216
 10
5.751207952121225
 20
4.235710448159822
 10
5.729572752473857
 20
4.11309949983978
 10
5.773842229459317
 20
4.046815862703574
 10
5.895523001998341
 20
4.023699271997547
 10
5.945029024121381
 20
4.014294161322815
 10
5.995465222025439
 20
4.008885361410973
 10
6.045763616110087
 20
4.004510090144706
 10
6.191663409910417
 20
3.991728785894429
 10
6.337907713259272
 20
3.986630044576259
 10
6.484358722337243
 20
3.985665417840389
 10
6.496209850806503
 20
3.985562064975831
 10
6.514193249239507
 20
3.991280923481346
 10
6.516191404620952
 20
3.971402722531455
 10
6.518465167641216
 20
3.948975150922478
 10
6.499310436743228
 20
3.951593423491268
 10
6.485598956711933
 20
3.950008679568053
 10
6.419522025304842
 20
3.942532822365061
 10
6.353513995807455
 20
3.934126789381051
 10
6.2872648096261
 20
3.928614636604652
 10
6.138161077024487
 20
3.916212292857752
 10
5.989574108745662
 20
3.914696450844242
 10
5.844156628313266
 20
3.958483614461768
 10
5.819730901322845
 20
3.965856118800202
 10
5.795511880061539
 20
3.973917642235687
 10
5.765126137881635
 20
3.983563909594387
 10
5.817870549760809
 20
3.91259494259824
 10
5.86627414132857
 20
3.883966199115814
 10
5.957086858319756
 20
3.869152288529239
 10
6.067915580080243
 20
3.851065537231678
 10
6.17998453621542
 20
3.8534426531165
 10
6.291571178982663
 20
3.853890515529583
 10
6.472473142913131
 20
3.854613985581485
 10
6.653685165437273
 20
3.844140895306325
 10
6.834104815999806
 20
3.860952961274345
 10
6.943486597656489
 20
3.871115992955832
 10
7.041223956573027
 20
3.914145235566602
 10
7.125559894051943
 20
3.987077906989341
 10
7.017108288176278
 20
3.948320582780281
 10
6.907381996971071
 20
3.919278427839624
 10
6.790627710975953
 20
3.931474065857409
 10
6.845232474417164
 20
3.955589734254158
 10
6.900939668413653
 20
3.975640189978312
 10
6.956336803816471
 20
3.996517468618926
 10
7.034678275151052
 20
4.025973035017812
 10
7.113329805079306
 20
4.054842935184205
 10
7.184849987353092
 20
4.099388019808486
 10
7.377361923068854
 20
4.219311793650033
 10
7.4552210810355
 20
4.400041502806239
 10
7.455048826261237
 20
4.619046222803571
 10
7.454911022441827
 20
4.777658418944474
 10
7.464281682161706
 20
4.935443792168916
 10
7.478716632244904
 20
5.093211939915933
 10
7.49618326635512
 20
5.284001327889069
 10
7.477614201689624
 20
5.470139836957117
 10
7.404268118808655
 20
5.649043645506142
 10
7.38780056238916
 20
5.689196233386729
 10
7.375122611003441
 20
5.730899114235678
 10
7.360722111875097
 20
5.771895750510151
 10
7.3869737394727
 20
5.754377439967655
 10
7.397343476883303
 20
5.726885577995361
 10
7.414189993806175
 20
5.704044594928155
 10
7.425524357952646
 20
5.688713920018794
 10
7.435239527221051
 20
5.665356172628799
 10
7.458769529385307
 20
5.671057805656888
 10
7.480680336671496
 20
5.676380478181599
 10
7.491463485540328
 20
5.696413708428326
 10
7.496286619219678
 20
5.718737927172746
 10
7.522607148726987
 20
5.840952689511983
 10
7.548307561046951
 20
5.96308132446409
 10
7.54844536486636
 20
6.08918904470166
 10
7.548479815821213
 20
6.126998967652278
 10
7.545069171290815
 20
6.165635713519355
 10
7.555852320159648
 20
6.203238930740857
 10
7.568668075364777
 20
6.107499727205764
 10
7.580381400014626
 20
6.011484916031851
 10
7.576832951664819
 20
5.914987791490002
 10
7.568564722500219
 20
5.690557046103402
 10
7.552545028493808
 20
5.466918672678409
 10
7.557643769811977
 20
5.241454398646233
 10
7.563638235956312
 20
4.975561929094651
 10
7.524295245514759
 20
4.710823566530627
 10
7.501523164357257
 20
4.445792370850357
 10
7.494047307154266
 20
4.358803709847799
 10
7.475271536759654
 20
4.271883950754946
 10
7.493737248560593
 20
4.183655055377697
 10
7.498284774601123
 20
4.161813150001213
 10
7.504485946474572
 20
4.156266546269961
 10
7.527361380496632
 20
4.160056151303736
 10
7.608527830129118
 20
4.173457572741357
 10
7.690211044084391
 20
4.184034015881075
 10
7.775856117847702
 20
4.196264104853712
 10
7.755909014988106
 20
4.171183809721093
 10
7.729795191209912
 20
4.169530163888172
 10
7.706230738090803
 20
4.163639050608396
 10
7.536559785442249
 20
4.121436630914085
 10
7.404405922628064
 20
4.033965656543591
 10
7.309665796783694
 20
3.880073241217481
 10
7.181714950461515
 20
3.672230630592359
 10
6.982485078549517
 20
3.569187824628536
 10
6.741879609859668
 20
3.550963269511564
 10
6.566834308254125
 20
3.537699651893353
 10
6.390996634686973
 20
3.534805771685743
 10
6.215572372578051
 20
3.526089680108061
 10
5.970005966389443
 20
3.513894042090276
 10
5.750415580159618
 20
3.437309569453173
 10
5.567033147479769
 20
3.267156303436683
 10
5.414863279896283
 20
3.125976290451145
 10
5.307100693117669
 20
2.96291992113427
 10
5.288118216993943
 20
2.750047471100682
 10
5.274372286007796
 20
2.5958449971809
 10
5.32270697566585
 20
2.469995659104723
 10
5.448797470425995
 20
2.377219237686945
 10
5.50167968612458
 20
2.338289658703622
 10
5.529447155735693
 20
2.343801811480021
 10
5.562175562845566
 20
2.398957790198871
 10
5.60427462967532
 20
2.469857855285313
 10
5.642997502929528
 20
2.542377115249822
 10
5.671970755960479
 20
2.620029567487354
 10
5.699841578436151
 20
2.694650335697865
 10
5.730709633983989
 20
2.768168673353097
 10
5.760888670434777
 20
2.841893716737443
 10
5.787829317129431
 20
2.907591687641157
 10
5.833890243767222
 20
2.947795951954023
 10
5.90778754192583
 20
2.952067870355733
 10
5.942238496778329
 20
2.954066025737178
 10
5.976448294946859
 20
2.96030164856548
 10
6.010864798844506
 20
2.963574489276467
 10
6.113976506718033
 20
2.973496364273987
 10
6.216812606952741
 20
2.991135253158466
 10
6.320992294426696
 20
2.974667696738972
 10
6.379145506217713
 20
2.965503742748207
 10
6.437505423737846
 20
2.959509276603872
 10
6.469544811750669
 20
2.898048773147015
 10
6.500481769208212
 20
2.838689777936161
 10
6.519533147241644
 20
2.777263725434156
 10
6.50816433214032
 20
2.710325520155752
 10
6.499517142472342
 20
2.659303656019202
 10
6.487287053499705
 20
2.608867458115144
 10
6.474953611662511
 20
2.558569064030496
 10
6.468476832150241
 20
2.531938475929515
 10
6.474471298294576
 20
2.518674858311303
 10
6.502721081273624
 20
2.509752061004506
 10
6.682348359874552
 20
2.453011338362441
 10
6.864938420592793
 20
2.427724337500708
 10
7.053350692681106
 20
2.447533636540894
 10
7.177201875375838
 20
2.460556097475139
 10
7.265051810249709
 20
2.517641329665728
 10
7.321172415704429
 20
2.632190754550285
 10
7.39469075335966
 20
2.782259113887768
 10
7.418082951704506
 20
2.931431748399086
 10
7.348044160489377
 20
3.088734808255594
 10
7.335193954329395
 20
3.117535806512282
 10
7.329371742959323
 20
3.149540743570253
 10
7.320965709975313
 20
3.180236544343829
 10
7.317968476903146
 20
3.191329751806334
 10
7.312559676991304
 20
3.204283310830873
 10
7.329165037230208
 20
3.210277776975208
 10
7.344254555455603
 20
3.21568657688705
 10
7.346528318475867
 20
3.201423881578116
 10
7.35235052984594
 20
3.193948024375124
 10
7.455186630080648
 20
3.06138075010271
 10
7.473066675649094
 20
2.917031249270742
 10
7.410572643546661
 20
2.762277560073319
 10
7.390659991641918
 20
2.713012694634247
 10
7.368955890084844
 20
2.664471299247076
 10
7.358758407448504
 20
2.611933593097016
 10
7.356277938699124
 20
2.59915228884674
 10
7.341980792435337
 20
2.5820646152399
 10
7.362651365346837
 20
2.575277777133958
 10
7.380221352321611
 20
2.569524467673591
 10
7.381323782876891
 20
2.590298393449647
 10
7.386663680879028
 20
2.600978189453922
 10
7.442853188243453
 20
2.712978243679394
 10
7.484469941705271
 20
2.829422471080838
 10
7.490361054985048
 20
2.959922688062103
 10
7.509929197341267
 20
2.942214897267918
 10
7.513167587097402
 20
2.922853460640814
 10
7.515131291523995
 20
2.903147514465185
 10
7.518610837964097
 20
2.867904187651079
 10
7.509067923469955
 20
2.834796820037828
 10
7.499938420434042
 20
2.801276040966347
 10
7.489740937797703
 20
2.763862303996534
 10
7.475202634849949
 20
2.726414116071869
 10
7.486847057590094
 20
2.681248914260243
 10
7.534389375286541
 20
2.724312607825866
 10
7.56870252631963
 20
2.773129610851856
 10
7.60801106580633
 20
2.817364636882464
 10
7.707470972465493
 20
2.929261338243379
 10
7.798352591366384
 20
3.045877820419086
 10
7.841622990661121
 20
3.193500161962041
 10
7.858124998035469
 20
3.249861924100729
 10
7.895332029276166
 20
3.296990830338947
 10
7.933228079613914
 20
3.342087130240867
 10
7.977910968057605
 20
3.395279404533124
 10
8.030483125162517
 20
3.440375704435045
 10
8.080850421156871
 20
3.487780218312083
 10
8.137349987114968
 20
3.54097249260434
 10
8.18730387165109
 20
3.598161077659487
 10
8.217172849508206
 20
3.672127277727801
 10
8.311878524397724
 20
3.906772731228167
 10
8.293309459732228
 20
4.132357583602327
 10
8.166702200649295
 20
4.349605304902182
 10
8.110478242330018
 20
4.446067978489177
 10
8.049396699376539
 20
4.539705673778268
 10
7.997237953729857
 20
4.638511012295233
 10
7.937086586557395
 20
4.752405869037593
 10
7.874385848725847
 20
4.86530164808923
 10
7.851097003245559
 20
4.994475503308673
 10
7.845171439010929
 20
5.027427841625087
 10
7.836937660801182
 20
5.059983993960698
 10
7.8282215692235
 20
5.099757621337908
 10
7.762420245455227
 20
5.026807724437742
 10
7.702199976373061
 20
4.960076224888453
 10
7.641979707290893
 20
4.893344725339164
 97
        0
 92
        1
 93
        1
 72
     4
 94
        3
 73
     0
 74
     1
 95
       50
 96
       46
 40
0.0
 40
0.0
 40
0.0
 40
0.0
 40
1.0
 40
1.0
 40
1.0
 40
2.0
 40
2.0
 40
2.0
 40
3.0
 40
3.0
 40
3.0
 40
4.0
 40
4.0
 40
4.0
 40
5.0
 40
5.0
 40
5.0
 40
6.0
 40
6.0
 40
6.0
 40
7.0
 40
7.0
 40
7.0
 40
8.0
 40
8.0
 40
8.0
 40
9.0
 40
9.0
 40
9.0
 40
10.0
 40
10.0
 40
10.0
 40
11.0
 40
11.0
 40
11.0
 40
12.0
 40
12.0
 40
12.0
 40
13.0
 40
13.0
 40
13.0
 40
14.0
 40
14.0
 40
14.0
 40
15.0
 40
15.0
 40
15.0
 40
15.0
 10
6.209095593065781
 20
2.462864311450256
 10
6.225459796620718
 20
2.462313096172616
 10
6.231385360855348
 20
2.468169758497541
 10
6.236070690715287
 20
2.474405381325843
 10
6.291743433756925
 20
2.548716090942682
 10
6.354754230182144
 20
2.617790255421941
 10
6.398610295709375
 20
2.700575899932495
 10
6.424930825216683
 20
2.750254176829797
 10
6.433095701516725
 20
2.803446451122055
 10
6.426550020094751
 20
2.85894693938943
 10
6.422209199783336
 20
2.895430500578226
 10
6.403950193711512
 20
2.919408365155564
 10
6.366157496238321
 20
2.928572319146329
 10
6.323266057446961
 20
2.938976507511784
 10
6.280030109107075
 20
2.943627386416871
 10
6.236036239760435
 20
2.944316405513921
 10
6.135990666868779
 20
2.945866698482283
 10
6.037702092674602
 20
2.924610459338292
 10
5.938448891744554
 20
2.920648599530254
 10
5.866239690373718
 20
2.917823621232349
 10
5.826242131789967
 20
2.884027234522049
 10
5.801024032837938
 20
2.821636555284174
 10
5.774152288052989
 20
2.755215114328557
 10
5.745075682157481
 20
2.689723849153958
 10
5.717928329733712
 20
2.623440212017751
 10
5.672280814554152
 20
2.512163627844181
 10
5.627391220381346
 20
2.400508083167234
 10
5.581468097562966
 20
2.287302245521924
 10
5.619777559358944
 20
2.281101073648474
 10
5.65474527853423
 20
2.28254801375228
 10
5.689850801528926
 20
2.292504339704652
 10
5.817388236392874
 20
2.328677842299775
 10
5.944650063618004
 20
2.366126030224441
 10
6.073048772353265
 20
2.398992241153724
 10
6.12413953839952
 20
2.412049153042821
 10
6.148875323983614
 20
2.438679741143802
 10
6.156523435960868
 20
2.49021836960314
 10
6.168615721114096
 20
2.571557074009888
 10
6.202343205914691
 20
2.645144313574825
 10
6.250815699392157
 20
2.711427950711032
 10
6.272037487581295
 20
2.74036675278713
 10
6.294223902506305
 20
2.769167751043819
 10
6.326780054841915
 20
2.787736815709315
 10
6.255466578297244
 20
2.690791828754385
 10
6.218500703740514
 20
2.582684732427245
 10
6.209095593065781
 20
2.462864311450256
 97
        0
 92
        1
 93
        1
 72
     4
 94
        3
 73
     0
 74
     1
 95
       29
 96
       25
 40
0.0
 40
0.0
 40
0.0
 40
0.0
 40
1.0
 40
1.0
 40
1.0
 40
2.0
 40
2.0
 40
2.0
 40
3.0
 40
3.0
 40
3.0
 40
4.0
 40
4.0
 40
4.0
 40
5.0
 40
5.0
 40
5.0
 40
6.0
 40
6.0
 40
6.0
 40
7.0
 40
7.0
 40
7.0
 40
8.0
 40
8.0
 40
8.0
 40
8.0
 10
7.158357203071521
 20
3.787021212160883
 10
7.13365586844228
 20
3.776238063292051
 10
7.118084036848951
 20
3.770174695238012
 10
7.103166773397819
 20
3.76283664185443
 10
6.975939397127543
 20
3.70010145306803
 10
6.841373967473684
 20
3.666167262538319
 10
6.699642739210505
 20
3.666546223041697
 10
6.444154458024378
 20
3.667200791183894
 10
6.18894178447707
 20
3.678362900556103
 10
5.933763561884614
 20
3.688973794650673
 10
5.866790905651357
 20
3.691764321993726
 10
5.801127385702496
 20
3.702202961314032
 10
5.725369735981851
 20
3.720703124069824
 10
5.775840384840762
 20
3.661413030768674
 10
5.831203069288726
 20
3.640742457857175
 10
5.894317218578504
 20
3.637400715236483
 10
6.109532333542061
 20
3.625997449180306
 10
6.32478189946047
 20
3.614835339808097
 10
6.540272622062848
 20
3.611528048142257
 10
6.720278861167152
 20
3.608737520799204
 10
6.895083006088729
 20
3.636987303778253
 10
7.060654295109836
 20
3.710746798117452
 10
7.095656465239975
 20
3.726318629710781
 10
7.128247068530437
 20
3.746472438299493
 10
7.158357203071521
 20
3.787021212160883
 97
        0
 92
        1
 93
        1
 72
     4
 94
        3
 73
     0
 74
     1
 95
       26
 96
       22
 40
0.0
 40
0.0
 40
0.0
 40
0.0
 40
1.0
 40
1.0
 40
1.0
 40
2.0
 40
2.0
 40
2.0
 40
3.0
 40
3.0
 40
3.0
 40
4.0
 40
4.0
 40
4.0
 40
5.0
 40
5.0
 40
5.0
 40
6.0
 40
6.0
 40
6.0
 40
7.0
 40
7.0
 40
7.0
 40
7.0
 10
5.515701224749547
 20
3.687354599772605
 10
5.378276365842931
 20
3.59612847132319
 10
5.225761988710921
 20
3.575044486953461
 10
5.065737303421066
 20
3.589203829397838
 10
4.933342283922914
 20
3.600882703092835
 10
4.801636283521812
 20
3.621208766455809
 10
4.668311088242644
 20
3.621208766455809
 10
4.562546656845474
 20
3.621174315500956
 10
4.462535534908671
 20
3.64232720178039
 10
4.372756346563061
 20
3.701720647946098
 10
4.359286023215733
 20
3.710643445252894
 10
4.343679740667552
 20
3.716327852803557
 10
4.329072535810092
 20
3.723493651412876
 10
4.389258353937407
 20
3.649251843705742
 10
4.459055988468569
 20
3.590271808998265
 10
4.55682779833996
 20
3.582038030788518
 10
4.768873425457087
 20
3.564226887129776
 10
4.98126356212274
 20
3.55213460197655
 10
5.194067110246622
 20
3.545898979148247
 10
5.324395072453623
 20
3.54207492315962
 10
5.427058917914068
 20
3.597127549013913
 10
5.515701224749547
 20
3.687354599772605
 97
        0
 92
        1
 93
        1
 72
     4
 94
        3
 73
     0
 74
     1
 95
       26
 96
       22
 40
0.0
 40
0.0
 40
0.0
 40
0.0
 40
1.0
 40
1.0
 40
1.0
 40
2.0
 40
2.0
 40
2.0
 40
3.0
 40
3.0
 40
3.0
 40
4.0
 40
4.0
 40
4.0
 40
5.0
 40
5.0
 40
5.0
 40
6.0
 40
6.0
 40
6.0
 40
7.0
 40
7.0
 40
7.0
 40
7.0
 10
3.149885253118779
 20
3.802041828476573
 10
3.241765949710392
 20
3.744680988647163
 10
3.342879502202474
 20
3.719876301153364
 10
3.448747286464202
 20
3.716775715216639
 10
3.605705836772184
 20
3.712193738221257
 10
3.762802190899577
 20
3.712641600634339
 10
3.919726290252707
 20
3.708094074593809
 10
3.999273545007126
 20
3.705785860618692
 10
4.071655001152225
 20
3.728799098460161
 10
4.143519692974537
 20
3.75787570435567
 10
4.162605521962821
 20
3.765592718242629
 10
4.172630749824897
 20
3.778374022492906
 10
4.172424044095782
 20
3.801490613198933
 10
4.163225639150165
 20
3.799561359727193
 10
4.155198566669533
 20
3.79925130113352
 10
4.148308375699034
 20
3.796322969971058
 10
4.028935817135127
 20
3.745438909653918
 10
3.902500812826458
 20
3.743750812866145
 10
3.776031357562936
 20
3.743165146633653
 10
3.565536023414171
 20
3.742200519897783
 10
3.356177570775539
 20
3.754120550276747
 10
3.149885253118779
 20
3.802041828476573
 97
        0
 92
        1
 93
        1
 72
     4
 94
        3
 73
     0
 74
     1
 95
       35
 96
       31
 40
0.0
 40
0.0
 40
0.0
 40
0.0
 40
1.0
 40
1.0
 40
1.0
 40
2.0
 40
2.0
 40
2.0
 40
3.0
 40
3.0
 40
3.0
 40
4.0
 40
4.0
 40
4.0
 40
5.0
 40
5.0
 40
5.0
 40
6.0
 40
6.0
 40
6.0
 40
7.0
 40
7.0
 40
7.0
 40
8.0
 40
8.0
 40
8.0
 40
9.0
 40
9.0
 40
9.0
 40
10.0
 40
10.0
 40
10.0
 40
10.0
 10
8.306814234034407
 20
4.098974608350256
 10
8.315495874657236
 20
4.042957355760094
 10
8.331860078212173
 20
3.989558375738721
 10
8.334753958419784
 20
3.933541123148559
 10
8.342781030900415
 20
3.777168239073069
 10
8.292861597319146
 20
3.638227538152943
 10
8.209249129892132
 20
3.509002006501222
 10
8.12015896064357
 20
3.371335990910638
 10
8.006298554856064
 20
3.252583549534076
 10
7.912281899063595
 20
3.11860378611271
 10
7.864946287096263
 20
3.051148816511518
 10
7.815578068792632
 20
2.985106336059279
 10
7.767725692502513
 20
2.91796142505176
 10
7.762661402139195
 20
2.910864528352145
 10
7.747640785823506
 20
2.901735025316233
 10
7.761490069674211
 20
2.892054307002681
 10
7.774891491111832
 20
2.882718098237654
 10
7.777682018454884
 20
2.900391438076985
 10
7.784606660380237
 20
2.90666151186014
 10
7.789464245014439
 20
2.911002332171555
 10
7.792668183815722
 20
2.917134602135299
 10
7.796733396488316
 20
2.922405598227732
 10
7.899431692903613
 20
3.054766166771031
 10
7.993896211109164
 20
3.193569063871746
 10
8.105930716289489
 20
3.318591579031463
 10
8.210282658537707
 20
3.435035806432908
 10
8.289175345149928
 20
3.566121689646664
 10
8.332996959722307
 20
3.716810166171492
 10
8.371030813879464
 20
3.847517088881871
 10
8.36820583558156
 20
3.976019150481689
 10
8.306814234034407
 20
4.098974608350256
 97
        0
 92
        1
 93
        1
 72
     4
 94
        3
 73
     0
 74
     1
 95
       26
 96
       22
 40
0.0
 40
0.0
 40
0.0
 40
0.0
 40
1.0
 40
1.0
 40
1.0
 40
2.0
 40
2.0
 40
2.0
 40
3.0
 40
3.0
 40
3.0
 40
4.0
 40
4.0
 40
4.0
 40
5.0
 40
5.0
 40
5.0
 40
6.0
 40
6.0
 40
6.0
 40
7.0
 40
7.0
 40
7.0
 40
7.0
 10
6.486770289176918
 20
2.377667100100028
 10
6.597840167621372
 20
2.343112792382972
 10
6.710356986169632
 20
2.31827365393432
 10
6.825147567738157
 20
2.306215819735946
 10
6.996368813355074
 20
2.288163519393237
 10
7.162387964789263
 20
2.302391763747318
 10
7.314557832372749
 20
2.392859971189979
 10
7.382667370116138
 20
2.433339843141665
 10
7.443576658295355
 20
2.48208794425795
 10
7.489568683023441
 20
2.547544758477697
 10
7.478819985109461
 20
2.542377115249822
 10
7.470000540667222
 20
2.534935709001683
 10
7.461525605773507
 20
2.527149793205018
 10
7.343634438268258
 20
2.418870442103616
 10
7.206519637955314
 20
2.353069118335344
 10
7.046667207439722
 20
2.333190917385452
 10
6.925882159726862
 20
2.318170301069763
 10
6.80836995272499
 20
2.340287814085067
 10
6.689893118987248
 20
2.355273979445903
 10
6.622334796521499
 20
2.363817816249323
 10
6.55450086641693
 20
2.37026014480674
 10
6.486770289176918
 20
2.377667100100028
 97
        0
 92
        1
 93
        1
 72
     4
 94
        3
 73
     0
 74
     1
 95
       23
 96
       19
 40
0.0
 40
0.0
 40
0.0
 40
0.0
 40
1.0
 40
1.0
 40
1.0
 40
2.0
 40
2.0
 40
2.0
 40
3.0
 40
3.0
 40
3.0
 40
4.0
 40
4.0
 40
4.0
 40
5.0
 40
5.0
 40
5.0
 40
6.0
 40
6.0
 40
6.0
 40
6.0
 10
2.507547199893946
 20
3.727455511220914
 10
2.561290689463844
 20
3.692281086316513
 10
2.618410372609286
 20
3.676984862362004
 10
2.677838269729846
 20
3.668923338926519
 10
2.829904784448773
 20
3.648287216969873
 10
2.976734754030121
 20
3.677329371910528
 10
3.122427842101337
 20
3.715914441345327
 10
3.138619790882012
 20
3.720186359747037
 10
3.169866806933228
 20
3.716913519036049
 10
3.165147026118435
 20
3.738789875367385
 10
3.159497069522625
 20
3.764731444371317
 10
3.131764050866364
 20
3.747747123629035
 10
3.11474527916923
 20
3.74423312623408
 10
2.95823459127433
 20
3.712090385356699
 10
2.80172390337943
 20
3.682910426596633
 10
2.640837944218263
 20
3.709024250374827
 10
2.596568467232802
 20
3.716224499938999
 10
2.551988931653669
 20
3.721357692212021
 10
2.507547199893946
 20
3.727455511220914
 97
        0
 75
     0
 76
     1
 98
        0
  0
ENDSEC
  0
SECTION
  2
OBJECTS
  0
DICTIONARY
  5
C
330
0
100
AcDbDictionary
281
     1
  3
ACAD_GROUP
350
D
  3
ACAD_LAYOUT
350
1A
  3
ACAD_MLINESTYLE
350
17
  3
ACAD_PLOTSETTINGS
350
19
  3
ACAD_PLOTSTYLENAME
350
E
  3
ACAD_TABLESTYLE
350
46
  3
ACAD_VISUALSTYLE
350
2A
  0
DICTIONARY
  5
D
102
{ACAD_REACTORS
330
C
102
}
330
C
100
AcDbDictionary
281
     1
  0
DICTIONARY
  5
1A
102
{ACAD_REACTORS
330
C
102
}
330
C
100
AcDbDictionary
281
     1
  3
Layout1
350
1E
  3
Layout2
350
26
  3
Model
350
22
  0
DICTIONARY
  5
17
102
{ACAD_REACTORS
330
C
102
}
330
C
100
AcDbDictionary
281
     1
  3
Standard
350
18
  0
DICTIONARY
  5
19
102
{ACAD_REACTORS
330
C
102
}
330
C
100
AcDbDictionary
281
     1
  0
ACDBDICTIONARYWDFLT
  5
E
102
{ACAD_REACTORS
330
C
102
}
330
C
100
AcDbDictionary
281
     1
  3
Normal
350
F
100
AcDbDictionaryWithDefault
340
F
  0
DICTIONARY
  5
46
102
{ACAD_REACTORS
330
C
102
}
330
C
100
AcDbDictionary
281
     1
  0
DICTIONARY
  5
2A
102
{ACAD_REACTORS
330
C
102
}
330
C
100
AcDbDictionary
281
     1
  3
2dWireframe
350
2F
  3
3D Hidden
350
31
  3
3dWireframe
350
30
  3
Basic
350
32
  3
Brighten
350
36
  3
ColorChange
350
3A
  3
Conceptual
350
34
  3
Dim
350
35
  3
Facepattern
350
39
  3
Flat
350
2B
  3
FlatWithEdges
350
2C
  3
Gouraud
350
2D
  3
GouraudWithEdges
350
2E
  3
Linepattern
350
38
  3
Realistic
350
33
  3
Thicken
350
37
  0
LAYOUT
  5
1E
102
{ACAD_REACTORS
330
1A
102
}
330
1A
100
AcDbPlotSettings
  1

  2
none_device
  4

  6

 40
0.0
 41
0.0
 42
0.0
 43
0.0
 44
0.0
 45
0.0
 46
0.0
 47
0.0
 48
0.0
 49
0.0
140
0.0
141
0.0
142
1.0
143
1.0
 70
   688
 72
     0
 73
     0
 74
     5
  7

 75
    16
147
1.0
148
0.0
149
0.0
100
AcDbLayout
  1
Layout1
 70
     1
 71
     1
 10
0.0
 20
0.0
 11
12.0
 21
9.0
 12
0.0
 22
0.0
 32
0.0
 14
1.000000000000000E+20
 24
1.000000000000000E+20
 34
1.000000000000000E+20
 15
-1.000000000000000E+20
 25
-1.000000000000000E+20
 35
-1.000000000000000E+20
146
0.0
 13
0.0
 23
0.0
 33
0.0
 16
1.0
 26
0.0
 36
0.0
 17
0.0
 27
1.0
 37
0.0
 76
     0
330
1B
  0
LAYOUT
  5
26
102
{ACAD_REACTORS
330
1A
102
}
330
1A
100
AcDbPlotSettings
  1

  2
none_device
  4

  6

 40
0.0
 41
0.0
 42
0.0
 43
0.0
 44
0.0
 45
0.0
 46
0.0
 47
0.0
 48
0.0
 49
0.0
140
0.0
141
0.0
142
1.0
143
1.0
 70
   688
 72
     0
 73
     0
 74
     5
  7

 75
    16
147
1.0
148
0.0
149
0.0
100
AcDbLayout
  1
Layout2
 70
     1
 71
     2
 10
0.0
 20
0.0
 11
0.0
 21
0.0
 12
0.0
 22
0.0
 32
0.0
 14
0.0
 24
0.0
 34
0.0
 15
0.0
 25
0.0
 35
0.0
146
0.0
 13
0.0
 23
0.0
 33
0.0
 16
1.0
 26
0.0
 36
0.0
 17
0.0
 27
1.0
 37
0.0
 76
     0
330
23
  0
LAYOUT
  5
22
102
{ACAD_REACTORS
330
1A
102
}
330
1A
100
AcDbPlotSettings
  1

  2
none_device
  4

  6

 40
0.0
 41
0.0
 42
0.0
 43
0.0
 44
0.0
 45
0.0
 46
0.0
 47
0.0
 48
0.0
 49
0.0
140
0.0
141
0.0
142
1.0
143
1.0
 70
  1712
 72
     0
 73
     0
 74
     0
  7

 75
     0
147
1.0
148
0.0
149
0.0
100
AcDbLayout
  1
Model
 70
     1
 71
     0
 10
0.0
 20
0.0
 11
12.0
 21
9.0
 12
0.0
 22
0.0
 32
0.0
 14
1.000000000000000E+20
 24
1.000000000000000E+20
 34
1.000000000000000E+20
 15
-1.000000000000000E+20
 25
-1.000000000000000E+20
 35
-1.000000000000000E+20
146
0.0
 13
0.0
 23
0.0
 33
0.0
 16
1.0
 26
0.0
 36
0.0
 17
0.0
 27
1.0
 37
0.0
 76
     0
330
1F
331
29
  0
MLINESTYLE
  5
18
102
{ACAD_REACTORS
330
17
102
}
330
17
100
AcDbMlineStyle
  2
Standard
 70
     0
  3

 62
   256
 51
90.0
 52
90.0
 71
     2
 49
0.5
 62
   256
  6
BYLAYER
 49
-0.5
 62
   256
  6
BYLAYER
  0
ACDBPLACEHOLDER
  5
F
102
{ACAD_REACTORS
330
E
102
}
330
E
  0
VISUALSTYLE
  5
2F
102
{ACAD_REACTORS
330
2A
102
}
330
2A
100
AcDbVisualStyle
  2
2dWireframe
 70
     4
 71
     0
 72
     2
 73
     0
 90
        0
 40
-0.6
 41
-30.0
 62
     5
 63
     7
 74
     1
 91
        4
 64
     7
 65
   257
 75
     1
175
     1
 42
1.0
 92
        0
 66
   257
 43
1.0
 76
     1
 77
     6
 78
     2
 67
     7
 79
     5
170
     0
171
     0
290
     0
174
     0
 93
        1
 44
0.0
173
     0
291
     0
 45
0.0
1001
ACAD
1000
AcDbSavedByObjectVersion
1070
     0
  0
VISUALSTYLE
  5
31
102
{ACAD_REACTORS
330
2A
102
}
330
2A
100
AcDbVisualStyle
  2
3D Hidden
 70
     6
 71
     1
 72
     2
 73
     2
 90
        0
 40
-0.6
 41
-30.0
 62
     5
 63
     7
 74
     2
 91
        2
 64
     7
 65
   257
 75
     2
175
     1
 42
40.0
 92
        0
 66
   257
 43
1.0
 76
     1
 77
     6
 78
     2
 67
     7
 79
     3
170
     0
171
     0
290
     0
174
     0
 93
        1
 44
0.0
173
     0
291
     0
 45
0.0
1001
ACAD
1000
AcDbSavedByObjectVersion
1070
     0
  0
VISUALSTYLE
  5
30
102
{ACAD_REACTORS
330
2A
102
}
330
2A
100
AcDbVisualStyle
  2
3dWireframe
 70
     5
 71
     0
 72
     2
 73
     0
 90
        0
 40
-0.6
 41
-30.0
 62
     5
 63
     7
 74
     1
 91
        4
 64
     7
 65
   257
 75
     1
175
     1
 42
1.0
 92
        0
 66
   257
 43
1.0
 76
     1
 77
     6
 78
     2
 67
     7
 79
     5
170
     0
171
     0
290
     0
174
     0
 93
        1
 44
0.0
173
     0
291
     0
 45
0.0
1001
ACAD
1000
AcDbSavedByObjectVersion
1070
     0
  0
VISUALSTYLE
  5
32
102
{ACAD_REACTORS
330
2A
102
}
330
2A
100
AcDbVisualStyle
  2
Basic
 70
     7
 71
     1
 72
     0
 73
     1
 90
        0
 40
-0.6
 41
-30.0
 62
     5
 63
     7
 74
     0
 91
        4
 64
     7
 65
   257
 75
     1
175
     1
 42
1.0
 92
        8
 66
     7
 43
1.0
 76
     1
 77
     6
 78
     2
 67
     7
 79
     5
170
     0
171
     0
290
     0
174
     0
 93
        1
 44
0.0
173
     0
291
     1
 45
0.0
1001
ACAD
1000
AcDbSavedByObjectVersion
1070
     0
  0
VISUALSTYLE
  5
36
102
{ACAD_REACTORS
330
2A
102
}
330
2A
100
AcDbVisualStyle
  2
Brighten
 70
    12
 71
     2
 72
     2
 73
     0
 90
        0
 40
-0.6
 41
-30.0
 62
     5
 63
     7
 74
     1
 91
        4
 64
     7
 65
   257
 75
     1
175
     1
 42
1.0
 92
        8
 66
     7
 43
1.0
 76
     1
 77
     6
 78
     2
 67
     7
 79
     5
170
     0
171
     0
290
     0
174
     0
 93
        1
 44
50.0
173
     0
291
     1
 45
0.0
1001
ACAD
1000
AcDbSavedByObjectVersion
1070
     0
  0
VISUALSTYLE
  5
3A
102
{ACAD_REACTORS
330
2A
102
}
330
2A
100
AcDbVisualStyle
  2
ColorChange
 70
    16
 71
     2
 72
     2
 73
     3
 90
        0
 40
-0.6
 41
-30.0
 62
     5
 63
     8
 74
     1
 91
        4
 64
     7
 65
   257
 75
     1
175
     1
 42
1.0
 92
        8
 66
     8
 43
1.0
 76
     1
 77
     6
 78
     2
 67
     7
 79
     5
170
     0
171
     0
290
     0
174
     0
 93
        1
 44
0.0
173
     0
291
     1
 45
0.0
1001
ACAD
1000
AcDbSavedByObjectVersion
1070
     0
  0
VISUALSTYLE
  5
34
102
{ACAD_REACTORS
330
2A
102
}
330
2A
100
AcDbVisualStyle
  2
Conceptual
 70
     9
 71
     3
 72
     2
 73
     0
 90
        0
 40
-0.6
 41
-30.0
 62
     5
 63
     7
 74
     2
 91
        2
 64
     7
 65
   257
 75
     1
175
     1
 42
40.0
 92
        8
 66
     7
 43
1.0
 76
     1
 77
     6
 78
     2
 67
     7
 79
     3
170
     0
171
     0
290
     0
174
     0
 93
        1
 44
0.0
173
     0
291
     0
 45
0.0
1001
ACAD
1000
AcDbSavedByObjectVersion
1070
     0
  0
VISUALSTYLE
  5
35
102
{ACAD_REACTORS
330
2A
102
}
330
2A
100
AcDbVisualStyle
  2
Dim
 70
    11
 71
     2
 72
     2
 73
     0
 90
        0
 40
-0.6
 41
-30.0
 62
     5
 63
     7
 74
     1
 91
        4
 64
     7
 65
   257
 75
     1
175
     1
 42
1.0
 92
        8
 66
     7
 43
1.0
 76
     1
 77
     6
 78
     2
 67
     7
 79
     5
170
     0
171
     0
290
     0
174
     0
 93
        1
 44
-50.0
173
     0
291
     1
 45
0.0
1001
ACAD
1000
AcDbSavedByObjectVersion
1070
     0
  0
VISUALSTYLE
  5
39
102
{ACAD_REACTORS
330
2A
102
}
330
2A
100
AcDbVisualStyle
  2
Facepattern
 70
    15
 71
     2
 72
     2
 73
     0
 90
        0
 40
-0.6
 41
-30.0
 62
     5
 63
     7
 74
     1
 91
        4
 64
     7
 65
   257
 75
     1
175
     1
 42
1.0
 92
        8
 66
     7
 43
1.0
 76
     1
 77
     6
 78
     2
 67
     7
 79
     5
170
     0
171
     0
290
     0
174
     0
 93
        1
 44
0.0
173
     0
291
     1
 45
0.0
1001
ACAD
1000
AcDbSavedByObjectVersion
1070
     0
  0
VISUALSTYLE
  5
2B
102
{ACAD_REACTORS
330
2A
102
}
330
2A
100
AcDbVisualStyle
  2
Flat
 70
     0
 71
     2
 72
     1
 73
     1
 90
        2
 40
-0.6
 41
30.0
 62
     5
 63
     7
 74
     0
 91
        4
 64
     7
 65
   257
 75
     1
175
     1
 42
1.0
 92
        8
 66
     7
 43
1.0
 76
     1
 77
     6
 78
     2
 67
     7
 79
     5
170
     0
171
     0
290
     0
174
     0
 93
       13
 44
0.0
173
     0
291
     1
 45
0.0
1001
ACAD
1000
AcDbSavedByObjectVersion
1070
     0
  0
VISUALSTYLE
  5
2C
102
{ACAD_REACTORS
330
2A
102
}
330
2A
100
AcDbVisualStyle
  2
FlatWithEdges
 70
     1
 71
     2
 72
     1
 73
     1
 90
        2
 40
-0.6
 41
30.0
 62
     5
 63
     7
 74
     1
 91
        4
 64
     7
 65
   257
 75
     1
175
     1
 42
1.0
 92
        0
 66
   257
 43
1.0
 76
     1
 77
     6
 78
     2
 67
     7
 79
     5
170
     0
171
     0
290
     0
174
     0
 93
       13
 44
0.0
173
     0
291
     1
 45
0.0
1001
ACAD
1000
AcDbSavedByObjectVersion
1070
     0
  0
VISUALSTYLE
  5
2D
102
{ACAD_REACTORS
330
2A
102
}
330
2A
100
AcDbVisualStyle
  2
Gouraud
 70
     2
 71
     2
 72
     2
 73
     1
 90
        2
 40
-0.6
 41
30.0
 62
     5
 63
     7
 74
     0
 91
        4
 64
     7
 65
   257
 75
     1
175
     1
 42
1.0
 92
        0
 66
     7
 43
1.0
 76
     1
 77
     6
 78
     2
 67
     7
 79
     5
170
     0
171
     0
290
     0
174
     0
 93
       13
 44
0.0
173
     0
291
     1
 45
0.0
1001
ACAD
1000
AcDbSavedByObjectVersion
1070
     0
  0
VISUALSTYLE
  5
2E
102
{ACAD_REACTORS
330
2A
102
}
330
2A
100
AcDbVisualStyle
  2
GouraudWithEdges
 70
     3
 71
     2
 72
     2
 73
     1
 90
        2
 40
-0.6
 41
30.0
 62
     5
 63
     7
 74
     1
 91
        4
 64
     7
 65
   257
 75
     1
175
     1
 42
1.0
 92
        0
 66
   257
 43
1.0
 76
     1
 77
     6
 78
     2
 67
     7
 79
     5
170
     0
171
     0
290
     0
174
     0
 93
       13
 44
0.0
173
     0
291
     1
 45
0.0
1001
ACAD
1000
AcDbSavedByObjectVersion
1070
     0
  0
VISUALSTYLE
  5
38
102
{ACAD_REACTORS
330
2A
102
}
330
2A
100
AcDbVisualStyle
  2
Linepattern
 70
    14
 71
     2
 72
     2
 73
     0
 90
        0
 40
-0.6
 41
-30.0
 62
     5
 63
     7
 74
     1
 91
        4
 64
     7
 65
   257
 75
     7
175
     7
 42
1.0
 92
        8
 66
     7
 43
1.0
 76
     1
 77
     6
 78
     2
 67
     7
 79
     5
170
     0
171
     0
290
     0
174
     0
 93
        1
 44
0.0
173
     0
291
     1
 45
0.0
1001
ACAD
1000
AcDbSavedByObjectVersion
1070
     0
  0
VISUALSTYLE
  5
33
102
{ACAD_REACTORS
330
2A
102
}
330
2A
100
AcDbVisualStyle
  2
Realistic
 70
     8
 71
     2
 72
     2
 73
     0
 90
        0
 40
-0.6
 41
-30.0
 62
     5
 63
     7
 74
     1
 91
        0
 64
     7
 65
   257
 75
     1
175
     1
 42
1.0
 92
        8
 66
     8
 43
1.0
 76
     1
 77
     6
 78
     2
 67
     7
 79
     5
170
     0
171
     0
290
     0
174
     0
 93
       13
 44
0.0
173
     0
291
     0
 45
0.0
1001
ACAD
1000
AcDbSavedByObjectVersion
1070
     0
  0
VISUALSTYLE
  5
37
102
{ACAD_REACTORS
330
2A
102
}
330
2A
100
AcDbVisualStyle
  2
Thicken
 70
    13
 71
     2
 72
     2
 73
     0
 90
        0
 40
-0.6
 41
-30.0
 62
     5
 63
     7
 74
     1
 91
        4
 64
     7
 65
   257
 75
     1
175
     1
 42
1.0
 92
       12
 66
     7
 43
1.0
 76
     1
 77
     6
 78
     2
 67
     7
 79
     5
170
     0
171
     0
290
     0
174
     0
 93
        1
 44
0.0
173
     0
291
     1
 45
0.0
1001
ACAD
1000
AcDbSavedByObjectVersion
1070
     0
  0
ENDSEC
  0
EOF
