<?xml version="1.0" encoding="utf-8"?>
<!-- Generator: Adobe Illustrator 16.0.0, SVG Export Plug-In . SVG Version: 6.00 Build 0)  -->
<!DOCTYPE svg PUBLIC "-//W3C//DTD SVG 1.1//EN" "http://www.w3.org/Graphics/SVG/1.1/DTD/svg11.dtd">
<svg version="1.1" id="Layer_1" xmlns="http://www.w3.org/2000/svg" xmlns:xlink="http://www.w3.org/1999/xlink" x="0px" y="0px"
	 width="283.46px" height="283.46px" viewBox="0 0 283.46 283.46" enable-background="new 0 0 283.46 283.46" xml:space="preserve">
<path fill-rule="evenodd" clip-rule="evenodd" d="M139.191,188.051c-2.99-0.11-6.899-0.441-10.825-0.48
	c-2.066-0.021-3.936-0.913-5.473-2.202c-2.098-1.758-4.153-2.691-6.918-1.503c-1.124,0.483-2.526,0.369-3.811,0.273
	c-3.767-0.278-7.538-0.209-11.31-0.181c-1.127,0.009-2.261-0.088-3.382-0.218c-3.534-0.406-6.976,0.075-10.417,0.87
	c-7.516,1.736-14.667,0.453-21.531-2.832c-2.853-1.365-5.629-2.884-8.432-4.35c-4.403-2.302-7.086-5.926-8.685-10.533
	c-2.385-6.871-4.122-13.928-6.104-20.914c-0.349-1.23-0.723-2.455-1.118-3.671c-2.25-6.944-1.626-13.823,0.499-20.653
	c0.911-2.929,2.229-5.671,4.026-8.178c2.541-3.544,3.898-7.621,5.224-11.714c1.403-4.333,2.992-8.587,4.822-12.772
	c1.854-4.239,4.935-6.368,9.38-7.141c4.101-0.713,8.226-0.991,12.356-1.318c2.483-0.196,4.936-0.556,7.33-1.28
	c0.679-0.205,1.193-0.534,1.655-1.076c1.42-1.663,2.849-3.321,4.35-4.91c4.452-4.708,10.113-6.666,16.423-6.972
	c2.822-0.137,5.656-0.064,8.484-0.028c5.422,0.069,10.437-1.164,14.935-4.326c2.783-1.958,5.956-2.864,9.353-2.948
	c4.783-0.117,9.589-0.558,14.337,0.275c4.183,0.734,7.753,2.808,10.879,5.651c0.502,0.456,0.94,0.98,1.43,1.45
	c1.147,1.106,2.418,1.715,4.122,1.695c5.806-0.069,11.616-0.109,17.407,0.468c3.793,0.378,7.534,1.02,11.188,2.145
	c6.594,2.028,11.017,6.324,13.351,12.778c1.703,4.708,3.938,9.127,6.972,13.121c2.137,2.81,3.552,5.926,4.19,9.403
	c0.953,5.195,2.935,10.121,4.074,15.26c1.236,5.576,1.636,11.255,1.306,16.963c-0.282,4.874,1.176,9.221,3.853,13.205
	c1.954,2.905,4.299,5.524,6.139,8.525c2.731,4.455,4.756,9.119,4.375,14.459c-0.355,4.979-2.16,9.512-4.746,13.755
	c-1.74,2.854-4.167,5.156-6.189,7.779c-3.98,5.164-7.766,10.479-11.93,15.504c-1.829,2.206-3.645,4.433-5.735,6.398
	c-5.518,5.186-12.196,6.753-19.542,6.113c-4.551-0.396-9.027-1.225-13.442-2.393c-3.979-1.055-7.892-0.882-11.773,0.54
	c-2.757,1.009-5.573,1.844-8.453,2.438c-2.147,0.443-4.12-0.051-5.925-1.235c-1.513-0.992-3.001-2.021-4.48-3.061
	c-4.23-2.974-6.485-7.024-6.641-12.221c-0.104-3.509,0.453-6.916,1.674-10.195c0.56-1.506,1.68-2.672,2.832-3.77
	c0.818-0.78,1.68-1.516,2.509-2.285c0.497-0.461,1.01-0.925,1.301-1.552c0.44-0.953-0.064-1.752-1.11-1.746
	C148.029,188.483,144.074,188.297,139.191,188.051z M216.623,144.751c-0.086-0.054-0.172-0.107-0.258-0.161
	c0.181-0.309,0.357-0.619,0.542-0.925c0.877-1.451,1.813-2.869,2.624-4.355c2.197-4.028,3.577-8.299,3.604-12.935
	c0.01-1.589-0.362-3.044-1.715-4.267c-0.878,2.503-1.719,4.903-2.562,7.302c-0.199,0.567-0.4,1.135-0.617,1.695
	c-0.052,0.132-0.15,0.278-0.337,0.236c-0.262-0.059-0.231-0.266-0.179-0.444c0.088-0.287,0.203-0.567,0.311-0.849
	c1.388-3.636,2.053-7.398,1.93-11.29c-0.2-6.276-2.298-12.019-4.994-17.585c-0.87-1.796-1.809-3.559-2.726-5.333
	c-0.115-0.223-0.206-0.528-0.543-0.493c-0.353,0.037-0.282,0.389-0.402,0.603c-0.23,0.409,0.014,1.007-0.516,1.306
	c-0.334-2.448-0.751-4.865-0.978-7.299c-0.68-7.289-4.513-12.082-11.287-14.695c-3.388-1.307-6.874-1.886-10.487-1.983
	c-5.389-0.146-10.772-0.411-16.094-1.381c-0.632-0.115-1.25-0.354-2.156-0.248c0.756,0.595,1.322,1.041,1.961,1.543
	c-0.521,0.075-0.822-0.185-1.155-0.328c-3.48-1.495-6.648-3.528-9.772-5.647c-2.025-1.374-3.997-2.851-6.244-3.86
	c-3.908-1.754-7.991-1.476-12.118-1.091c-4.017,0.376-7.346,1.97-10.205,4.791c-2.938,2.898-6.389,5.158-9.795,7.459
	c-0.247,0.167-0.54,0.587-0.852,0.151c-0.318-0.446,0.197-0.575,0.429-0.747c1.852-1.363,3.734-2.686,5.568-4.072
	c0.391-0.295,1.301-0.487,0.951-1.106c-0.319-0.564-1.024-0.007-1.524,0.166c-5.45,1.897-11.046,2.906-16.784,2.023
	c-4.592-0.707-8.448,0.57-12.029,3.309c-4.462,3.414-8.978,6.758-13.479,10.121c-0.794,0.593-1.541,1.266-2.604,1.531
	c0.966-1.063,1.933-2.126,2.898-3.19c-0.588-0.066-1.022,0.034-1.451,0.155c-3.987,1.123-7.975,2.239-12.096,2.785
	c-1.718,0.228-3.424,0.579-5.148,0.712c-3.632,0.279-5.904,2.192-7.348,5.468c-1.691,3.834-2.32,7.938-3.331,11.945
	c-0.519,2.059-0.945,4.141-1.412,6.212c-0.359-1.104,0.006-2.217-0.29-3.406c-1.71,2.63-3.052,5.265-3.953,8.128
	c-0.982,3.124-2.068,6.215-3.063,9.335c-0.72,2.257-1.458,4.515-1.919,6.846c-0.659,3.322,0.063,6.449,1.071,9.638
	c2.188,6.924,4.175,13.914,6.132,20.908c1.511,5.4,4.766,8.95,10.252,10.371c0.469,0.121,1.014,0.201,1.553,0.931
	c-1.969-0.553-3.653-1.026-5.523-1.552c0.547,0.808,0.527,0.845,1.067,1.13c5.783,3.058,11.728,3.577,17.85,1.095
	c0.728-0.295,1.446-1.689,1.32-2.442c-0.133-0.795-0.75-1.051-1.416-0.57c-0.335,0.242-0.676,0.491-0.957,0.791
	c-1.166,1.245-2.633,1.867-4.285,2.073c-1.025,0.128-2.057,0.129-3.292-0.603c0.931,0,1.534,0.037,2.131-0.006
	c4.248-0.303,6.608-3.077,5.983-7.052c-0.099-0.626-0.304-1.244-0.523-1.842c-1.513-4.129-2.392-8.401-2.834-12.763
	c-0.784-7.73-0.222-15.446,0.307-23.162c0.374-5.454,0.986-10.897,0.674-16.38c-0.024-0.435-0.14-0.913,0.19-1.596
	c0.302,1.424,0.547,2.583,0.863,4.078c1.276-3.257,2.426-6.19,3.653-9.321c0.267,0.688,0.12,1.08,0.029,1.483
	c-0.795,3.523-1.938,6.97-2.352,10.578c-0.616,5.395-1.169,10.799-1.498,16.217c-0.294,4.851-0.777,9.703-0.33,14.576
	c0.384,4.171,1.226,8.274,1.732,12.427c0.442,3.627,2.523,5.856,6.047,6.76c3.684,0.943,7.366,1.892,11.051,2.825
	c2.19,0.555,4.388,1.077,6.575,1.645c0.283,0.073,0.803,0.017,0.773,0.464c-0.037,0.556-0.569,0.33-0.907,0.382
	c-0.147,0.023-0.301,0.002-0.452,0.003c-3.424,0.04-6.753-0.577-10.024-1.515c-2.774-0.795-5.522-1.683-8.302-2.536
	c0.021,0.311,0.249,0.404,0.412,0.533c2.438,1.933,5.195,3.202,8.247,3.755c5.099,0.924,10.269,1.131,15.431,1.221
	c3.581,0.062,7.631-2.857,8.767-5.99c0.086-0.235,0.304-0.525,0.044-0.727c-0.271-0.21-0.472,0.104-0.662,0.254
	c-1.185,0.933-2.342,1.904-3.651,2.664c-1.438,0.835-2.956,1.412-4.987,1.455c2.308-1.451,4.31-2.768,6.369-3.988
	c2.068-1.226,2.879-2.938,2.794-5.358c-0.384-10.979-0.113-21.941,0.978-32.885c0.563-5.646,0.362-11.308-0.532-16.92
	c-0.643-4.027-1.068-8.068-1.159-12.145c-0.009-0.375-0.15-0.789,0.328-1.342c0.738,4.337,1.196,8.535,3.09,12.66
	c0.732-1.778,1.373-3.262,1.959-4.766c1.072-2.752,1.649-5.62,1.876-8.57c0.382,0.928,0.413,1.885,0.411,2.85
	c-0.007,2.909-0.892,5.643-1.688,8.39c-1.357,4.673-2.714,9.364-2.801,14.262c-0.224,12.71-0.333,25.423-0.756,38.128
	c-0.107,3.235,1.29,5.401,3.99,7.04c2.95,1.788,6.277,1.999,9.514,2.632c3.215,0.627,6.489,0.935,9.656,1.815
	c0.306,0.086,0.729,0.061,0.658,0.576c-0.073,0.533-0.499,0.356-0.799,0.354c-2.414-0.021-4.829-0.026-7.242-0.102
	c-5.165-0.159-10.106-1.117-14.434-4.186c-0.023-0.017-0.11,0.057-0.167,0.088c0.9,2.536,3.515,4.727,6.682,5.317
	c8.03,1.497,16.11,2.236,24.299,1.627c4.829-0.358,8.089-2.939,10.592-6.79c0.241-0.371,0.6-0.778,0.435-1.438
	c-1.758,2.412-3.808,4.217-6.785,4.836c-3.682,0.766-7.262,0.828-8.375-0.086c0.662-0.486,1.364-0.765,2.169-0.894
	c1.674-0.268,3.405-0.122,5.037-0.657c5.273-1.726,9.058-4.836,9.915-10.681c0.863-5.889,1.792-11.768,2.621-17.661
	c0.352-2.491,0.889-4.965,0.67-7.525c-0.445-5.224-0.701-10.459-0.891-15.699c-0.291-8.06-0.42-16.138-2.235-24.059
	c-0.088-0.383-0.419-0.831,0.155-1.431c1.645,5.589,3.247,11.03,4.851,16.476c0.399-0.136,0.45-0.427,0.578-0.646
	c1.736-2.958,3.463-5.92,5.193-8.882c0.133-0.228,0.257-0.462,0.408-0.677c0.078-0.11,0.171-0.262,0.362-0.166
	c0.204,0.103,0.256,0.272,0.183,0.469c-0.078,0.211-0.178,0.416-0.284,0.614c-5.089,9.458-7.168,19.584-6.886,30.278
	c0.181,6.828,0.037,13.659-0.946,20.434c-0.535,3.688-1.293,7.344-1.941,11.016c-0.613,3.476,0.642,5.354,4.091,6.01
	c1.403,0.267,2.833,0.42,4.259,0.544c4.136,0.362,8.281,0.507,12.433,0.534c0.336,0.003,0.846-0.159,0.902,0.404
	c0.064,0.636-0.479,0.562-0.867,0.606c-1.873,0.212-3.744,0.45-5.622,0.606c-4.227,0.352-8.438,0.395-12.561-0.847
	c-0.692-0.209-1.379-0.438-2.24-0.711c1.495,2.012,2.867,2.823,5.441,3.243c3.142,0.513,6.318,0.445,9.481,0.433
	c5.128-0.021,10.265,0.276,15.379-0.2c3.101-0.288,5.871-1.508,8.262-3.575c-3.074,1.099-6.185,1.922-9.494,1.576
	c1.548-0.684,3.127-1.252,4.697-1.844c2.221-0.835,4.45-1.653,6.478-2.916c5.457-3.399,7.664-8.522,7.659-14.73
	c-0.004-4.496,0.262-8.969,0.671-13.441c0.495-5.408-0.031-10.685-2.11-15.756c-0.467-1.138-0.826-2.32-1.234-3.482
	c0.744,0.497,1.038,1.276,1.516,1.923c0.321,0.435,0.597,1.097,1.264,0.935c0.621-0.151,0.927-0.719,1.063-1.352
	c0.746-3.464,1.475-6.926,1.479-10.501c0.001-1.072-0.096-2.167,0.21-3.233c0.363,2.714,0.695,5.436,0.595,8.171
	c-0.234,6.362-0.688,12.701-0.544,19.092c0.17,7.537-0.945,15.042-1.591,22.554c-0.212,2.466-0.744,4.93-0.221,7.431
	c0.129,0.619,0.305,0.776,0.953,0.669c2.301-0.38,4.616-0.68,7.044-1.026c-0.565,0.711-1.306,0.758-1.974,0.925
	c-4.81,1.196-8.556,3.676-11.241,8.038c-3.627,5.892-9.274,8.813-16.095,9.329c-4.962,0.376-9.946,0.458-14.919,0.705
	c-6.961,0.346-13.186,2.517-18.384,7.34c-4.313,4.002-7.368,8.624-7.906,14.658c-0.39,4.371,0.98,7.938,4.555,10.568
	c1.499,1.104,2.286,0.947,3.214-0.616c1.193-2.01,2.291-4.065,3.112-6.267c0.79-2.115,1.665-4.199,2.521-6.289
	c0.764-1.862,2.069-3.002,4.164-3.123c0.977-0.057,1.946-0.233,2.922-0.326c2.923-0.281,5.838-0.781,8.791-0.314
	c1.648,0.26,3.303,0.43,4.211,2.172c0.877,1.683,1.417,3.424,1.095,5.321c-0.245,1.446-0.592,2.876-0.941,4.302
	c-0.184,0.755-0.014,1.131,0.787,1.384c5.092,1.608,10.268,2.325,15.608,1.764c3.511-0.369,6.001-1.987,7.592-5.234
	c2.084-4.254,2.747-8.482,0.762-12.941c-0.364-0.816-0.529-1.724-0.768-2.594c-0.085-0.314-0.238-0.682,0.232-0.852
	c0.428-0.153,0.492,0.251,0.657,0.463c2.915,3.758,3.422,7.85,1.65,12.236c-0.564,1.396-1.18,2.772-1.469,4.262
	c-0.07,0.362-0.476,0.847,0.11,1.039c0.498,0.163,0.529-0.426,0.681-0.729c1.593-3.175,2.772-6.476,2.939-10.175
	c0.555,0.502,0.646,1.051,0.702,1.609c0.099,0.999-0.172,1.938-0.431,2.888c-0.289,1.061-0.701,2.122-0.371,3.402
	c1.348-1.221,2.32-2.604,3.435-3.858c2.819-3.172,5.396-6.478,6.622-10.662c0.468-1.598,1.522-2.934,2.597-4.212
	c1.267-1.508,2.757-2.786,4.185-4.13c1.602-1.508,3.018-3.129,3.864-5.226c2.685-6.651,2.158-13.046-1.431-19.204
	c-1.594-2.734-3.325-5.389-4.804-8.189c-1.705-3.229-3.482-6.429-4.143-10.09c-0.168-0.934-0.401-1.857-0.648-2.984
	C220.037,140.968,218.33,142.859,216.623,144.751z M176.006,213.646c0.464,0.016,0.632-0.15,0.765-0.327
	c1.578-2.106,3.364-4.064,4.607-6.411c0.746-1.408,0.978-2.916,0.792-4.489c-0.123-1.034-0.641-1.714-1.712-1.974
	c-1.216-0.295-2.441-0.427-3.688-0.446c-2.836-0.044-5.622,0.559-8.436,0.671c-2.047,0.08-3.181,1.038-3.896,2.807
	c-0.762,1.883-1.586,3.739-2.355,5.618c-1.294,3.154-2.566,6.319-3.868,9.528c1.086,0.176,2.077,0.135,3.072-0.147
	c3.615-1.025,7.223-2.087,10.862-3.019c1.448-0.37,2.149-1.125,2.366-2.586c0.343-2.306,1.299-4.392,2.673-6.271
	c0.602-0.82,1.23-1.637,2.153-2.163C177.32,207.186,176.272,210.25,176.006,213.646z M202.914,176.111
	c-0.7,0.306-1.142,0.478-1.564,0.686c-3.606,1.778-7.421,2.74-11.438,2.729c-7.242-0.019-14.477-0.335-21.71-0.636
	c-1.898-0.079-3.76-0.375-5.907-0.899c1.431,1.681,3,2.267,4.789,2.361c6.101,0.323,12.202,0.64,18.311,0.733
	c5.103,0.079,10.058-0.722,14.751-2.813C201.137,177.832,202.061,177.261,202.914,176.111z M156.351,178.937
	c-3.896,2.586-8.219,3.184-12.755,2.782c-3.753-0.331-7.486-0.907-11.266-0.907c-2.998,0.001-5.833-0.599-8.378-2.282
	c-0.382-0.253-0.824-0.414-1.238-0.617c1.706,2.104,3.685,3.776,6.456,4.01c6.011,0.505,12.031,0.848,18.063,1.024
	C150.928,183.055,153.838,181.494,156.351,178.937z M89.288,175.686c2.604,1.626,5.471,2.329,8.472,2.417
	c4.449,0.13,8.902,0.117,13.351,0.246c2.255,0.065,4.307-0.587,6.344-1.411c0.541-0.219,0.825-0.581,0.819-1.236
	c-0.261,0.055-0.488,0.063-0.684,0.146c-3.384,1.442-6.968,1.49-10.553,1.507C101.07,177.382,95.136,177.044,89.288,175.686z
	 M235.469,167.269c0.246,1.588,0.71,3.102,0.792,4.689c0.228,4.433-1.188,8.371-3.558,12.034c-2.525,3.902-5.753,7.269-8.418,11.066
	c-1.342,1.912-2.741,3.784-4.098,5.688c-0.144,0.201-0.569,0.46-0.177,0.734c0.38,0.265,0.459-0.236,0.655-0.414
	c0.138-0.123,0.229-0.297,0.344-0.446c2.911-3.752,5.589-7.687,8.765-11.23c2.958-3.301,5.194-7.017,6.437-11.288
	C237.289,174.396,237.209,170.754,235.469,167.269z M183.877,216.062c3.148,0.979,6.338,1.684,9.592,2.025
	c4.854,0.512,9.56,0.108,13.873-2.456c1.931-1.147,3.657-2.529,4.961-4.385c-0.305,0.146-0.555,0.357-0.795,0.578
	c-3.342,3.069-7.229,4.935-11.76,5.498c-3.424,0.426-6.755-0.201-10.113-0.626C187.72,216.454,185.797,216.271,183.877,216.062z
	 M71.08,177.8c1.523,0.997,3.143,1.431,4.827,1.659c4.311,0.585,8.473-0.238,12.603-1.332c0.459-0.121,1.345-0.028,1.211-0.648
	c-0.16-0.735-0.946-0.254-1.429-0.154c-4.437,0.911-8.873,1.738-13.434,0.998C73.604,178.118,72.34,177.973,71.08,177.8z"/>
</svg>
