<svg 
 xmlns="http://www.w3.org/2000/svg"
 xmlns:xlink="http://www.w3.org/1999/xlink"
 width="2177px" height="2950px">
<path fill-rule="evenodd"  fill="rgb(0, 0, 0)"
 d="M1071.571,2949.173 C1071.571,2949.173 1009.597,2772.789 997.000,2756.000 C965.945,2714.611 967.984,2654.461 853.000,2604.000 C808.955,2584.561 609.457,2449.512 455.000,2377.000 C419.084,2358.487 393.156,2337.831 373.000,2338.000 C352.844,2338.169 251.670,2325.489 220.000,2219.000 C196.258,2148.278 176.289,2092.007 172.000,2074.000 C167.711,2055.993 160.656,2030.081 145.000,2002.000 C129.344,1973.919 30.576,1787.004 24.000,1772.000 C17.424,1756.996 -38.416,1669.908 52.000,1599.000 C103.281,1560.157 137.793,1523.750 154.000,1497.000 C170.207,1470.250 192.262,1455.375 199.000,1453.000 C199.000,1453.000 269.719,1285.008 373.000,1271.000 C403.762,1269.430 541.055,1346.023 434.000,1633.000 C430.113,1642.654 427.088,1664.189 409.000,1678.000 C409.000,1678.000 439.865,1684.568 453.000,1722.000 C453.000,1722.000 479.721,1738.152 491.000,1774.000 C491.000,1774.000 513.330,1804.314 520.000,1823.000 C520.000,1823.000 526.865,1839.053 512.000,1863.000 C512.000,1863.000 550.066,1858.752 560.000,1863.000 C560.000,1863.000 604.656,1709.896 643.000,1660.000 C643.000,1660.000 669.873,1550.676 675.000,1524.000 C680.127,1497.324 694.174,1362.349 702.000,1323.000 C709.826,1283.651 727.973,1127.959 738.000,1090.000 C748.027,1052.041 743.199,853.212 719.000,714.000 C710.525,656.669 719.854,569.278 727.000,536.000 C729.418,524.485 719.955,441.934 719.000,428.000 C718.045,414.066 641.023,204.339 864.000,211.000 C924.668,214.923 1006.129,239.897 1040.000,363.000 C1040.000,363.000 1046.389,350.563 1046.000,347.000 C1045.611,343.437 1021.463,276.655 1016.000,240.000 C1014.500,230.911 924.068,122.774 978.000,73.000 C989.766,61.196 1015.748,46.003 1037.000,32.000 C1058.252,17.997 1178.725,-36.077 1270.000,41.000 C1286.850,57.325 1304.150,91.018 1309.000,107.000 C1309.000,107.000 1311.508,93.345 1347.000,96.000 C1382.492,98.655 1450.412,112.538 1480.000,123.000 C1509.588,133.462 1540.775,149.247 1551.000,154.000 C1561.225,158.753 1607.352,178.409 1647.000,298.000 C1650.895,310.544 1654.000,322.000 1654.000,322.000 C1654.000,322.000 1694.684,325.819 1725.000,355.000 C1755.316,384.181 1824.678,466.880 1859.000,519.000 C1868.680,532.716 1885.414,556.966 1896.000,632.000 C1899.521,650.200 1930.533,765.979 1943.000,798.000 C1949.863,813.362 1957.170,837.934 1960.000,862.000 C1960.000,862.000 1981.988,913.559 1963.000,971.000 C1963.000,971.000 1978.496,1136.030 1982.000,1178.000 C1988.508,1260.991 2047.553,1366.921 2056.000,1452.000 C2064.447,1537.079 2049.912,1604.108 2056.000,1675.000 C2062.088,1745.892 2132.129,2027.750 2036.000,2291.000 C1982.935,2436.319 2176.221,2949.307 2176.221,2949.307 L1071.571,2949.173 Z"/>
</svg>