<svg 
 xmlns="http://www.w3.org/2000/svg"
 xmlns:xlink="http://www.w3.org/1999/xlink"
 width="1771px" height="2971px">
<path fill-rule="evenodd"  fill="rgb(0, 0, 0)"
 d="M619.000,2971.000 L1719.000,2971.000 C1719.000,2971.000 1632.504,2731.462 1623.000,2673.000 C1613.496,2614.538 1599.624,2475.223 1665.000,2330.000 C1730.376,2184.777 1739.764,1980.432 1740.000,1933.000 C1740.236,1885.568 1736.235,1796.949 1737.000,1778.000 C1737.765,1759.051 1748.442,1673.119 1756.000,1649.000 C1763.558,1624.881 1775.079,1603.502 1769.000,1544.000 C1762.921,1484.498 1751.975,1362.771 1752.000,1345.000 C1752.025,1327.229 1762.280,1233.426 1758.000,1205.000 C1753.720,1176.574 1725.090,986.346 1720.000,973.000 C1714.910,959.654 1698.317,896.539 1615.000,880.000 C1531.683,863.461 1468.254,919.010 1429.000,957.000 C1429.000,957.000 1446.822,702.802 1448.000,667.000 C1449.178,631.198 1442.322,553.622 1434.000,530.000 C1425.678,506.378 1386.471,420.361 1374.000,366.000 C1361.529,311.639 1331.662,195.583 1310.000,172.000 C1288.338,148.417 1198.060,55.626 1172.000,42.000 C1145.940,28.374 1104.932,-9.414 1017.000,50.000 C1017.000,50.000 973.939,-0.163 875.000,-0.000 C825.873,0.940 786.346,26.544 779.000,33.000 C771.654,39.456 740.103,52.208 730.000,64.000 C719.897,75.792 713.624,95.504 711.000,110.000 C711.000,110.000 669.053,43.260 602.000,44.000 C534.947,44.740 492.666,73.914 457.000,162.000 C421.334,250.086 429.112,266.953 432.000,334.000 C432.000,334.000 414.299,503.138 407.000,530.000 C399.701,556.862 400.928,660.337 401.000,714.000 C401.072,767.663 402.506,895.822 402.000,907.000 C401.494,918.178 410.318,1034.658 365.000,1151.000 C365.000,1151.000 358.541,1160.266 348.000,1161.000 C337.459,1161.734 303.508,1162.336 265.000,1195.000 C226.492,1227.664 176.487,1214.090 148.000,1227.000 C119.513,1239.910 66.008,1256.055 58.000,1364.000 C49.992,1471.945 47.943,1588.518 48.000,1601.000 C48.057,1613.482 8.026,1786.927 2.000,1837.000 C-4.026,1887.073 3.843,1926.745 61.000,2004.000 C118.157,2081.255 141.113,2144.729 171.000,2183.000 C200.887,2221.271 224.443,2269.647 247.000,2295.000 C269.557,2320.353 322.338,2413.200 344.000,2444.000 C365.662,2474.800 453.430,2571.215 477.000,2618.000 C500.570,2664.785 560.400,2779.609 619.000,2971.000 Z"/>
</svg>